<?xml version="1.0" standalone="no"?>
<!DOCTYPE svg PUBLIC "-//W3C//DTD SVG 1.1//EN" "http://www.w3.org/Graphics/SVG/1.1/DTD/svg11.dtd" >
<svg>
<metadata>
Created by FontForge 20090914 at Sun Jul 20 12:21:45 2014
 By www-data
Copyright (c) 2009 by Hannes von Doehren. All rights reserved.
</metadata>
<defs>
<font id="BrandonGrotW01-Thin" horiz-adv-x="639" >
  <font-face 
    font-family="BrandonGrotW01-Thin"
    font-weight="100"
    font-stretch="normal"
    units-per-em="1000"
    panose-1="2 11 4 3 2 2 3 6 2 2"
    ascent="700"
    descent="-300"
    x-height="400"
    cap-height="700"
    bbox="-156.501 -310.001 966 958"
    underline-thickness="50"
    underline-position="-50"
    unicode-range="U+0002-U+2122"
  />
<missing-glyph horiz-adv-x="0" 
 />
    <glyph glyph-name=".notdef" horiz-adv-x="0" 
 />
    <glyph glyph-name="uni0002" horiz-adv-x="0" 
 />
    <glyph glyph-name="uni0009" unicode="&#x9;" horiz-adv-x="0" 
 />
    <glyph glyph-name="uni000A" unicode="&#xa;" horiz-adv-x="0" 
 />
    <glyph glyph-name="uni000D" unicode="&#xd;" horiz-adv-x="0" 
 />
    <glyph glyph-name="space" unicode=" " horiz-adv-x="213" 
 />
    <glyph glyph-name="exclam" unicode="!" horiz-adv-x="296" 
d="M146 267c-4.66699 0 -7 2.33301 -7 7v419c0 4.66699 2.33301 7 7 7h4c4.66699 0 7 -2.33301 7 -7v-419c0 -4.66699 -2.33301 -7 -7 -7h-4zM124 14c0 6.66699 2.33301 12.167 7 16.5s10.334 6.5 17.001 6.5c7.33301 0 13.166 -2.16699 17.499 -6.5s6.5 -9.83301 6.5 -16.5
s-2.16699 -12.334 -6.5 -17.001s-10.166 -7 -17.499 -7c-6.66699 0 -12.334 2.33301 -17.001 7s-7 10.334 -7 17.001z" />
    <glyph glyph-name="quotedbl" unicode="&#x22;" horiz-adv-x="289" 
d="M217 491c-4.66699 0 -7 2.33301 -7 7v195c0 4.66699 2.33301 7 7 7h3c4.66699 0 7 -2.33301 7 -7v-195c0 -4.66699 -2.33301 -7 -7 -7h-3zM69 491c-4.66699 0 -7 2.33301 -7 7v195c0 4.66699 2.33301 7 7 7h3c4.66699 0 7 -2.33301 7 -7v-195
c0 -4.66699 -2.33301 -7 -7 -7h-3z" />
    <glyph glyph-name="numbersign" unicode="#" horiz-adv-x="564" 
d="M159 217h-97c-4 0 -6 2.33301 -6 7v3c0 4.66699 2 7 6 7h99l38 194h-109c-4.66699 0 -7 2.33301 -7 7v4c0 4.66699 2.33301 7 7 7h113l48 248c1.33301 4 3.66602 6 6.99902 6h3c6 0 8.33301 -2.66699 7 -8l-48 -246h175l48 248c1.33301 4 3.66602 6 6.99902 6h4
c5.33301 0 7.33301 -2.66699 6 -8l-48 -246h95c4 0 6 -2.33301 6 -7v-4c0 -4.66699 -2 -7 -6 -7h-98l-37 -194h107c4.66699 0 7 -2.33301 7 -7v-3c0 -4.66699 -2.33301 -7 -7 -7h-111l-40 -211c-1.33301 -4 -3.66602 -6 -6.99902 -6h-4c-6 0 -8.33301 2.66699 -7 8l41 209
h-175l-40 -211c-1.33301 -4 -3.66602 -6 -6.99902 -6h-4c-6 0 -8.33301 2.66699 -7 8zM354 234l37 194h-174l-37 -194h174z" />
    <glyph glyph-name="dollar" unicode="$" horiz-adv-x="545" 
d="M64 73c-3.33301 2.66699 -3.33496 5.66699 -0.00195312 9l3 3c3.33301 3.33301 6.66602 3.33301 9.99902 0c2.66699 -2.66699 9.16699 -8.16699 19.5 -16.5s23.833 -16.833 40.5 -25.5s36.167 -16.5 58.5 -23.5s47.166 -10.833 74.499 -11.5v339
c-30.667 8 -59 16.833 -85 26.5s-48.5 21.667 -67.5 36s-33.833 31.5 -44.5 51.5s-16 44.667 -16 74c0 20 3.83301 40.167 11.5 60.5s20 38.833 37 55.5s39 30.334 66 41.001s59.833 16.334 98.5 17.001v43c0 4.66699 2.33301 7 7 7h4c4.66699 0 7 -2.33301 7 -7v-44
c23.333 -1.33301 44.833 -4.66602 64.5 -9.99902s36.5 -11 50.5 -17c16.667 -7.33301 31.667 -15 45 -23c2 -2 3 -4 3 -6l-2 -4c0 -3.33301 -1.16699 -5.5 -3.5 -6.5s-4.83301 -0.833008 -7.5 0.5c-12.667 7.33301 -27 14.666 -43 21.999
c-13.333 5.33301 -29.166 10.666 -47.499 15.999s-38.166 8.66602 -59.499 9.99902v-329c32.667 -9.33301 62 -19.5 88 -30.5s48 -24.167 66 -39.5s31.833 -33.166 41.5 -53.499s14.5 -44.5 14.5 -72.5c0 -23.333 -5.66699 -45.333 -17 -66s-26.666 -38.834 -45.999 -54.501
s-41.666 -28.334 -66.999 -38.001s-52 -15.167 -80 -16.5v-113c0 -4 -2.33301 -6 -7 -6h-4c-4.66699 0 -7 2 -7 6v113c-28.667 0.666992 -55 4.83398 -79 12.501s-44.833 16.167 -62.5 25.5s-32.167 18.333 -43.5 27s-18.333 14.667 -21 18zM269.998 691
c-35.333 -0.666992 -65.5 -5.66699 -90.5 -15s-45.167 -21.5 -60.5 -36.5s-26.5 -31.667 -33.5 -50s-10.5 -36.5 -10.5 -54.5c0 -25.333 4.66699 -47 14 -65s22.5 -33.333 39.5 -46s37.5 -23.5 61.5 -32.5s50.667 -17.5 80 -25.5v325zM287.998 8
c25.333 0.666992 49.667 5.33398 73 14.001s43.833 20.167 61.5 34.5s31.667 30.666 42 48.999s15.5 38.166 15.5 59.499c0 25.333 -4.66699 47.333 -14 66s-22.5 34.834 -39.5 48.501s-37.167 25.5 -60.5 35.5s-49.333 19 -78 27v-334z" />
    <glyph glyph-name="percent" unicode="%" horiz-adv-x="704" 
d="M189 427c-19.333 0 -37.666 3.66699 -54.999 11s-32.333 17.5 -45 30.5s-22.667 28 -30 45s-11 35.5 -11 55.5c0 19.333 3.66699 37.666 11 54.999s17.333 32.333 30 45s27.667 22.667 45 30s35.666 11 54.999 11s37.666 -3.66699 54.999 -11s32.333 -17.333 45 -30
s22.667 -27.667 30 -45s11 -35.666 11 -54.999c0 -20 -3.66699 -38.5 -11 -55.5s-17.333 -32 -30 -45s-27.667 -23.167 -45 -30.5s-35.666 -11 -54.999 -11zM189 445c16.667 0 32.667 3.16699 48 9.5s28.5 15.166 39.5 26.499s19.833 24.5 26.5 39.5s10 31.167 10 48.5
c0 16.667 -3.33301 32.5 -10 47.5s-15.5 28.167 -26.5 39.5s-24.167 20.166 -39.5 26.499s-31.333 9.5 -48 9.5c-17.333 0 -33.5 -3.16699 -48.5 -9.5s-28 -15.166 -39 -26.499s-19.667 -24.5 -26 -39.5s-9.5 -30.833 -9.5 -47.5c0 -17.333 3.16699 -33.5 9.5 -48.5
s15 -28.167 26 -39.5s24 -20.166 39 -26.499s31.167 -9.5 48.5 -9.5zM358 131c0 20 3.66699 38.5 11 55.5s17.333 32 30 45s27.5 23.167 44.5 30.5s35.5 11 55.5 11c19.333 0 37.5 -3.66699 54.5 -11s32 -17.5 45 -30.5s23.167 -28 30.5 -45s11 -35.5 11 -55.5
c0 -19.333 -3.66699 -37.666 -11 -54.999s-17.5 -32.333 -30.5 -45s-28 -22.667 -45 -30s-35.167 -11 -54.5 -11c-20 0 -38.5 3.66699 -55.5 11s-31.833 17.333 -44.5 30s-22.667 27.667 -30 45s-11 35.666 -11 54.999zM375 131c0 -17.333 3.16699 -33.333 9.5 -48
s15.166 -27.667 26.499 -39s24.5 -20.166 39.5 -26.499s31.167 -9.5 48.5 -9.5c16.667 0 32.5 3.16699 47.5 9.5s28.167 15.166 39.5 26.499s20.166 24.333 26.499 39s9.5 30.667 9.5 48s-3.16699 33.5 -9.5 48.5s-15.166 28.167 -26.499 39.5s-24.5 20.166 -39.5 26.499
s-30.833 9.5 -47.5 9.5c-17.333 0 -33.5 -3.16699 -48.5 -9.5s-28.167 -15.166 -39.5 -26.499s-20.166 -24.5 -26.499 -39.5s-9.5 -31.167 -9.5 -48.5zM537 698c2 2.66699 4.66602 3 7.99902 1l6 -3c1.33301 -0.666992 2.33301 -1.5 3 -2.5
s0.333984 -2.83301 -0.999023 -5.5l-417 -686c-2.66699 -3.33301 -5 -4.33301 -7 -3l-8 5c-2.66699 2 -3 4.66699 -1 8z" />
    <glyph glyph-name="ampersand" unicode="&#x26;" horiz-adv-x="695" 
d="M102 173c0 25.333 4.00098 48.3359 12.001 69.0029s19 39.167 33 55.5s30.5 31.166 49.5 44.499s39.5 25.333 61.5 36l-30 31c-20.667 20.667 -38.834 44.334 -54.501 71.001s-23.5 54 -23.5 82c0 15.333 3.16699 31.666 9.5 48.999s16.166 33.333 29.499 48
s30.333 26.834 51 36.501s45.667 14.5 75 14.5c26.667 0 49.667 -4.16699 69 -12.5s35.333 -19.5 48 -33.5s22.167 -29.833 28.5 -47.5s9.5 -35.834 9.5 -54.501c0 -19.333 -4.66699 -37.833 -14 -55.5s-22.166 -34.334 -38.499 -50.001s-35.5 -30.334 -57.5 -44.001
s-45.333 -26.167 -70 -37.5h-1l242 -239c25.333 34 45 71.167 59 111.5s21 79.833 21 118.5c0 4.66699 -0.166992 9.66699 -0.5 15s-0.833008 10.666 -1.5 15.999c0 5.33301 2.33301 8 7 8h4c4.66699 0 7 -2 7 -6c0.666992 -5.33301 1.16699 -10.833 1.5 -16.5
s0.5 -11.167 0.5 -16.5c0 -40.667 -7.33301 -82 -22 -124s-35.667 -81 -63 -117l112 -111c2.66699 -3.33301 3 -6 1 -8l-7 -6c-2 -2 -4.33301 -1.66699 -7 1l-111 109c-30 -36 -65.5 -65 -106.5 -87s-86.833 -33 -137.5 -33c-28 0 -53.5 4.83301 -76.5 14.5
s-42.667 22.834 -59 39.501s-28.833 36.167 -37.5 58.5s-13 45.833 -13 70.5zM276.001 387.003c24.667 11.333 47.8291 23.502 69.4961 36.502s40.5 26.667 56.5 41s28.5 29.666 37.5 45.999s13.5 33.5 13.5 51.5c0 16 -2.83301 31.833 -8.5 47.5s-14.167 29.667 -25.5 42
s-25.666 22.166 -42.999 29.499s-37.666 11 -60.999 11c-26 0 -48.333 -4.16699 -67 -12.5s-34 -19 -46 -32s-20.833 -27 -26.5 -42s-8.5 -29.5 -8.5 -43.5c0 -12.667 2.16699 -25.167 6.5 -37.5s10 -24.5 17 -36.5s14.833 -23.5 23.5 -34.5s17.334 -21.167 26.001 -30.5
l17.5 -18c5.66699 -6 11.834 -12 18.501 -18zM118.996 173.005c0 -22.667 3.99805 -44 11.998 -64s19.333 -37.5 34 -52.5s32.334 -26.833 53.001 -35.5s44 -13 70 -13c48 0 91.5 10.5 130.5 31.5s72.833 48.5 101.5 82.5l-249 245
c-21.333 -10.667 -41.166 -22.167 -59.499 -34.5s-34.333 -26.333 -48 -42s-24.5 -33.167 -32.5 -52.5s-12 -41 -12 -65z" />
    <glyph glyph-name="quotesingle" unicode="'" horiz-adv-x="142" 
d="M69 491c-4.66699 0 -7 2.33301 -7 7v195c0 4.66699 2.33301 7 7 7h4c4.66699 0 7 -2.33301 7 -7v-195c0 -4.66699 -2.33301 -7 -7 -7h-4z" />
    <glyph glyph-name="parenleft" unicode="(" horiz-adv-x="344" 
d="M309 -61c4.66699 0 7 -2.33594 7 -7.00293v-4c0 -4 -2.33301 -6 -7 -6c-29.333 1.33301 -58.333 8.83301 -87 22.5s-54.334 35.667 -77.001 66s-41.167 70.5 -55.5 120.5s-21.5 111.667 -21.5 185s7.16699 134.833 21.5 184.5s32.833 89.834 55.5 120.501
s48.334 52.834 77.001 66.501s57.667 21.167 87 22.5c4.66699 0 7 -2.33301 7 -7v-4c0 -4.66699 -2.33301 -7 -7 -7c-27.333 -1.33301 -54.166 -8.5 -80.499 -21.5s-50.166 -34 -71.499 -63s-38.5 -67.333 -51.5 -115s-19.5 -106.5 -19.5 -176.5
c0 -70.667 6.5 -129.667 19.5 -177s30.167 -85.666 51.5 -114.999s45.166 -50.5 71.499 -63.5s53.166 -20.167 80.499 -21.5z" />
    <glyph glyph-name="parenright" unicode=")" horiz-adv-x="344" 
d="M35 -61c26.667 1.33301 53.334 8.50293 80.001 21.5029s50.667 34.167 72 63.5s38.5 67.666 51.5 114.999s19.5 106.333 19.5 177c0 70 -6.5 128.833 -19.5 176.5s-30.167 86 -51.5 115s-45.333 50 -72 63s-53.334 20.167 -80.001 21.5c-4.66699 0 -7 2.33301 -7 7v4
c0 4.66699 2.33301 7 7 7c28.667 -1.33301 57.5 -8.83301 86.5 -22.5s54.833 -35.834 77.5 -66.501s41.167 -70.834 55.5 -120.501s21.5 -111.167 21.5 -184.5s-7.16699 -135 -21.5 -185s-32.833 -90.167 -55.5 -120.5s-48.5 -52.333 -77.5 -66s-57.833 -21.167 -86.5 -22.5
c-4.66699 0 -7 2 -7 6v4c0 4.66699 2.33301 7 7 7z" />
    <glyph glyph-name="asterisk" unicode="*" horiz-adv-x="352" 
d="M174 406c-4.66699 0 -7 2.33301 -7 7v124l-108 -62c-4 -2 -6.66699 -1.66699 -8 1l-4 7c-1.33301 3.33301 -0.333008 5.66602 3 6.99902l107 63l-107 63c-3.33301 1.33301 -4 3.66602 -2 6.99902l3 6c0.666992 1.33301 1.5 2.33301 2.5 3s2.83301 0.333984 5.5 -0.999023
l108 -62v124c0 4.66699 2.33301 7 7 7h4c4.66699 0 7 -2.33301 7 -7v-124l108 62c2.66699 1.33301 4.5 1.66602 5.5 0.999023s1.83301 -1.66699 2.5 -3l3 -6c2 -3.33301 1.33301 -5.66602 -2 -6.99902l-107 -63l107 -63c3.33301 -1.33301 4.33301 -3.66602 3 -6.99902l-4 -7
c-2 -2.66699 -4.66699 -3 -8 -1l-108 62v-124c0 -4.66699 -2.33301 -7 -7 -7h-4z" />
    <glyph glyph-name="plus" unicode="+" horiz-adv-x="513" 
d="M248 339h-186c-4.66699 0 -7 2.33301 -7 7v4c0 4.66699 2.33301 7 7 7h186v185c0 4.66699 2.33301 7 7 7h4c4.66699 0 7 -2.33301 7 -7v-185h185c4.66699 0 7 -2.33301 7 -7v-4c0 -4.66699 -2.33301 -7 -7 -7h-185v-186c0 -4.66699 -2.33301 -7 -7 -7h-4
c-4.66699 0 -7 2.33301 -7 7v186z" />
    <glyph glyph-name="comma" unicode="," horiz-adv-x="262" 
d="M103 13c0 6 2.16602 11.166 6.49902 15.499s9.83301 6.5 16.5 6.5c10.667 0 22 -7 34 -21s18 -37.667 18 -71c0 -17.333 -3.33301 -32.166 -10 -44.499s-13.667 -22.5 -21 -30.5c-9.33301 -9.33301 -19.666 -17.333 -30.999 -24c-4.66699 -2 -7.66699 -1.66699 -9 1l-3 6
c-2 4 -1 7 3 9c10 5.33301 18.667 12 26 20c6.66699 6.66699 12.667 15.167 18 25.5s8 22.833 8 37.5c0 15.333 -1.33301 27.333 -4 36s-5.66699 15.667 -9 21c-2.66699 -2.66699 -5.5 -5 -8.5 -7s-6.83301 -3 -11.5 -3c-6.66699 0 -12.167 2.33301 -16.5 7s-6.5 10 -6.5 16
z" />
    <glyph glyph-name="hyphen" unicode="-" horiz-adv-x="597" 
d="M177 243c-4 0 -6 2.33301 -6 7v4c0 4.66699 2 7 6 7h243c4 0 6 -2.33301 6 -7v-4c0 -4.66699 -2 -7 -6 -7h-243z" />
    <glyph glyph-name="period" unicode="." horiz-adv-x="240" 
d="M96 14c0 6.66699 2.33301 12.167 7 16.5s10.334 6.5 17.001 6.5c7.33301 0 13.166 -2.16699 17.499 -6.5s6.5 -9.83301 6.5 -16.5s-2.16699 -12.334 -6.5 -17.001s-10.166 -7 -17.499 -7c-6.66699 0 -12.334 2.33301 -17.001 7s-7 10.334 -7 17.001z" />
    <glyph glyph-name="slash" unicode="/" horiz-adv-x="334" 
d="M289 695c1.33301 3.33301 3.66699 5 7 5h7c4 0 5.33301 -2 4 -6l-246 -690c-1.33301 -2.66699 -2.5 -4 -3.5 -4h-3.5h-7c-3.33301 0 -4.33301 2 -3 6z" />
    <glyph glyph-name="zero" unicode="0" horiz-adv-x="660" 
d="M330 -11c-39.333 0 -74.333 8 -105 24s-56.5 39.167 -77.5 69.5s-37 67.333 -48 111s-16.5 92.834 -16.5 147.501s5.5 103.834 16.5 147.501s27 80.667 48 111s46.833 53.5 77.5 69.5s65.667 24 105 24s74.333 -8 105 -24s56.5 -39.167 77.5 -69.5s37 -67.333 48 -111
s16.5 -92.834 16.5 -147.501s-5.5 -103.834 -16.5 -147.501s-27 -80.667 -48 -111s-46.833 -53.5 -77.5 -69.5s-65.667 -24 -105 -24zM330 7c74 0 130.667 29.333 170 88s59 140.667 59 246s-19.667 187.333 -59 246s-96 88 -170 88s-130.667 -29.333 -170 -88
s-59 -140.667 -59 -246s19.667 -187.333 59 -246s96 -88 170 -88z" />
    <glyph glyph-name="one" unicode="1" horiz-adv-x="320" 
d="M194 656l-166.001 -123.001c-3.33301 -2 -6 -1.66699 -8 1l-5 7c-1.33301 2.66699 -0.666016 5 2.00098 7l184 135c2.66699 2 5.16699 2.33301 7.5 1s3.5 -3.66602 3.5 -6.99902v-670c0 -4.66699 -2.33301 -7 -7 -7h-4c-4.66699 -0 -7 2.33301 -7 7v649z" />
    <glyph glyph-name="two" unicode="2" horiz-adv-x="525" 
d="M324 278c36 33.333 64.9961 67.1631 86.9961 101.496s33 72.5 33 114.5c0 24 -4.33301 46.833 -13 68.5s-21.5 40.834 -38.5 57.501s-38.167 30 -63.5 40s-54.666 15 -87.999 15c-28 0 -52 -5 -72 -15s-36.333 -20.667 -49 -32
c-15.333 -13.333 -27.666 -28.666 -36.999 -45.999c-2 -3.33301 -4.33301 -4.33301 -7 -3l-7 4c-1.33301 1.33301 -2.33301 2.5 -3 3.5s-0.333984 2.83301 0.999023 5.5c10.667 18.667 24.334 35.334 41.001 50.001c14 12.667 32 24.167 54 34.5s48.333 15.5 79 15.5
c36.667 0 68.667 -5.33301 96 -16s50.333 -25.167 69 -43.5s32.667 -39.5 42 -63.5s14 -49 14 -75c0 -44 -11.5 -84.167 -34.5 -120.5s-53.5 -72.166 -91.5 -107.499l-265 -248h379c4.66699 0 7 -2.33301 7 -7v-4c0 -4.66699 -2.33301 -7 -7 -7h-406
c-3.33301 0 -5.66602 1.5 -6.99902 4.5s-0.666016 5.5 2.00098 7.5z" />
    <glyph glyph-name="three" unicode="3" horiz-adv-x="561" 
d="M59 80c-2.66699 3.33301 -2.66602 6.33008 0.000976562 8.99707l5 4c3.33301 2 6.33301 1.66699 9 -1c5.33301 -6 12.833 -13.667 22.5 -23s22.167 -18.5 37.5 -27.5s33.666 -16.833 54.999 -23.5s46.333 -10 75 -10c32.667 0 62 4.5 88 13.5s48 21.5 66 37.5
s31.833 34.833 41.5 56.5s14.5 45.167 14.5 70.5c0 20 -4.16699 39.5 -12.5 58.5s-20.333 36 -36 51s-34.334 27 -56.001 36s-45.834 13.5 -72.501 13.5h-135c-4.66699 0 -7 2.33301 -7 7v4c0 4.66699 2.33301 7 7 7h135c20.667 0 40.667 3.83301 60 11.5
s36.333 18.334 51 32.001s26.334 30 35.001 49s13 40.167 13 63.5c0 22.667 -4.16699 43.5 -12.5 62.5s-20 35.5 -35 49.5s-33.333 24.833 -55 32.5s-45.5 11.5 -71.5 11.5c-30.667 0 -57.334 -4.33301 -80.001 -13s-41.667 -18.334 -57 -29.001
c-18 -12 -33.333 -25.667 -46 -41c-2 -3.33301 -4.66699 -4 -8 -2l-6 4c-3.33301 2 -4 4.66699 -2 8c14 16.667 30.667 31.667 50 45c16.667 11.333 37.334 21.666 62.001 30.999s53.667 14 87 14c28.667 0 54.834 -4.33301 78.501 -13s43.834 -20.667 60.501 -36
s29.667 -33.666 39 -54.999s14 -44.333 14 -69c0 -20 -3.16699 -38.667 -9.5 -56s-15 -33.166 -26 -47.499s-24 -26.666 -39 -36.999s-30.833 -18.166 -47.5 -23.499c20.667 -5.33301 39.667 -13.666 57 -24.999s32.166 -24.5 44.499 -39.5s21.833 -31.5 28.5 -49.5
s10 -36.333 10 -55c0 -28 -5.33301 -53.833 -16 -77.5s-25.834 -44.334 -45.501 -62.001s-43.667 -31.5 -72 -41.5s-59.833 -15 -94.5 -15c-31.333 0 -58.333 3.5 -81 10.5s-42.167 15.333 -58.5 25s-29.666 19.667 -39.999 30z" />
    <glyph glyph-name="four" unicode="4" horiz-adv-x="588" 
d="M22 159c-3.33301 0 -5.5 1.16699 -6.5 3.5s-0.5 4.83301 1.5 7.5l433 524c1.33301 2.66699 3.5 3.5 6.5 2.5s4.5 -3.16699 4.5 -6.5v-514h71c4.66699 0 7 -2 7 -6v-4c0 -4.66699 -2.33301 -7 -7 -7h-71v-152c0 -4.66699 -2.33301 -7 -7 -7h-3
c-4.66699 -0 -7 2.33301 -7 7v152h-422zM444 176v484l-399 -484h399z" />
    <glyph glyph-name="five" unicode="5" horiz-adv-x="559" 
d="M76 76c-2.66699 3.33301 -2.66699 6.33691 0 9.00391l5 4c2 1.33301 3.66699 1.66602 5 0.999023s2.66602 -1.66699 3.99902 -3c6 -7.33301 14 -15.5 24 -24.5s22.333 -17.5 37 -25.5s32 -14.833 52 -20.5s43 -8.5 69 -8.5c32 0 61.333 5.66699 88 17
s49.834 26.666 69.501 45.999s34.834 42 45.501 68s16 53.667 16 83c0 62 -18.333 109.167 -55 141.5s-91 47.833 -163 46.5h-181c-4.66699 0 -7 2.33301 -7 7v258c0 4.66699 2.33301 7 7 7h326c4.66699 0 7 -2.33301 7 -7v-3c0 -4.66699 -2.33301 -7 -7 -7h-315v-238h170
c77.333 1.33301 136 -15.834 176 -51.501s60 -86.834 60 -153.501c0 -32 -5.83301 -62.167 -17.5 -90.5s-28 -53 -49 -74s-46 -37.5 -75 -49.5s-60.833 -18 -95.5 -18c-28 0 -52.667 3 -74 9s-40 13.5 -56 22.5s-29.333 18.333 -40 28s-19.334 18.5 -26.001 26.5z" />
    <glyph glyph-name="six" unicode="6" horiz-adv-x="566" 
d="M63 276c0 46 6.33301 88 19 126s29 72.167 49 102.5s42.167 57 66.5 80s48.666 42.667 72.999 59s47 29.5 68 39.5s37.833 17.333 50.5 22c4 1.33301 6.66699 0.333008 8 -3l2 -7c0.666992 -3.33301 -0.666016 -6 -3.99902 -8c-12 -4 -27.167 -10.5 -45.5 -19.5
s-38.333 -20.333 -60 -34s-43.667 -30.167 -66 -49.5s-43.166 -41.833 -62.499 -67.5s-36 -54.334 -50 -86.001s-23.333 -66.834 -28 -105.501c8 10.667 18.5 22.834 31.5 36.501s28.667 26.5 47 38.5s39.333 22.167 63 30.5s50.167 12.5 79.5 12.5
c28.667 0 56.167 -5.16699 82.5 -15.5s49.666 -25.166 69.999 -44.499s36.5 -42.5 48.5 -69.5s18 -57.5 18 -91.5c0 -32 -6 -62.167 -18 -90.5s-28.333 -53 -49 -74s-44.5 -37.5 -71.5 -49.5s-55.833 -18 -86.5 -18c-37.333 0 -70.5 7.33301 -99.5 22s-53.5 35 -73.5 61
s-35.333 56.333 -46 91s-16 72 -16 112zM80 276c0 -38 4.83008 -73.335 14.4971 -106.002s23.834 -61 42.501 -85s41.5 -42.833 68.5 -56.5s57.833 -20.5 92.5 -20.5c28 0 54.667 5.5 80 16.5s47.5 26.167 66.5 45.5s34 42 45 68s16.5 54 16.5 84
c0 31.333 -5.5 59.5 -16.5 84.5s-25.833 46.333 -44.5 64s-40.167 31.167 -64.5 40.5s-49.833 14 -76.5 14c-37.333 0 -69.666 -6.66699 -96.999 -20s-50.166 -28.166 -68.499 -44.499s-32.333 -31.666 -42 -45.999l-16.5 -24.5v-14z" />
    <glyph glyph-name="seven" unicode="7" horiz-adv-x="479" 
d="M442 665h-410c-4.66699 0 -7 2.33301 -7 7v3c0 4.66699 2.33301 7 7 7h426c2.66699 0 4.66699 -1 6 -3s1.33301 -4 0 -6l-295 -672c-2 -4 -4.66699 -5 -8 -3l-5 2c-3.33301 1.33301 -4 4.33301 -2 9z" />
    <glyph glyph-name="eight" unicode="8" horiz-adv-x="584" 
d="M69 175c0 44.667 15.998 82.168 47.998 112.501s76 50.166 132 59.499c-48 9.33301 -87 28.5 -117 57.5s-45 64.167 -45 105.5c0 22 3.66699 43.667 11 65s19.166 40.333 35.499 57s37.333 30.167 63 40.5s56.834 15.5 93.501 15.5s68.167 -5.16699 94.5 -15.5
s47.833 -23.833 64.5 -40.5s28.834 -35.667 36.501 -57s11.5 -43 11.5 -65c0 -41.333 -14.833 -76.5 -44.5 -105.5s-68.5 -48.167 -116.5 -57.5c56 -9.33301 99.833 -28.5 131.5 -57.5s47.5 -67.167 47.5 -114.5c0 -32 -5.83301 -59.667 -17.5 -83s-27.5 -42.5 -47.5 -57.5
s-43.667 -26.167 -71 -33.5s-56.666 -11 -87.999 -11s-60.5 3.66699 -87.5 11s-50.5 18.5 -70.5 33.5s-35.667 34.167 -47 57.5s-17 51 -17 83zM291.998 359.001c26.667 1.33301 51.3262 5.66602 73.9932 12.999s42.334 17.5 59.001 30.5s29.834 28.5 39.501 46.5
s14.5 38.333 14.5 61c0 20 -3.66699 39.667 -11 59s-18.666 36.666 -33.999 51.999s-34.833 27.666 -58.5 36.999s-52.167 14 -85.5 14s-61.666 -4.66699 -84.999 -14s-42.5 -21.666 -57.5 -36.999s-25.833 -32.666 -32.5 -51.999s-10 -39 -10 -59
c0 -22.667 4.83301 -43 14.5 -61s22.834 -33.5 39.501 -46.5s36.334 -23.167 59.001 -30.5s47.334 -11.666 74.001 -12.999zM85.9902 175.001c0 -29.333 5.33105 -54.665 15.998 -75.998s25.167 -38.833 43.5 -52.5s40 -23.834 65 -30.501s51.833 -10 80.5 -10
s55.667 3.33301 81 10s47.333 16.834 66 30.501s33.334 31.167 44.001 52.5s16 46.666 16 75.999c0 22 -4.83301 42.333 -14.5 61s-23.5 35 -41.5 49s-39.667 25.5 -65 34.5s-53.666 14.5 -84.999 16.5c-62.667 -4.66699 -112.667 -20.834 -150 -48.501
s-56 -65.167 -56 -112.5z" />
    <glyph glyph-name="nine" unicode="9" horiz-adv-x="566" 
d="M167 -8c-0.666992 3.33301 0.666016 6 3.99902 8c11.333 4 26.333 10.5 45 19.5s38.834 20.333 60.501 34s43.667 30.167 66 49.5s43.166 41.833 62.499 67.5s36 54.334 50 86.001s23.333 66.834 28 105.501c-8 -10.667 -18.5 -22.834 -31.5 -36.501
s-28.667 -26.5 -47 -38.5s-39.333 -22.167 -63 -30.5s-50.167 -12.5 -79.5 -12.5c-28.667 0 -56.167 5.16699 -82.5 15.5s-49.666 25.166 -69.999 44.499s-36.5 42.5 -48.5 69.5s-18 57.5 -18 91.5c0 32 6 62.167 18 90.5s28.167 53 48.5 74s44.166 37.5 71.499 49.5
s56.333 18 87 18c37.333 0 70.5 -7.33301 99.5 -22s53.5 -35 73.5 -61s35.333 -56.333 46 -91s16 -72 16 -112c0 -46 -6.33301 -88 -19 -126s-29 -72.167 -49 -102.5s-42.167 -57 -66.5 -80s-48.666 -42.667 -72.999 -59s-47 -29.5 -68 -39.5s-37.833 -17.333 -50.5 -22
c-4 -1.33301 -6.66699 -0.333008 -8 3zM262 262c36.667 0 68.834 6.66895 96.501 20.002s50.667 28.166 69 44.499s32.333 31.666 42 45.999l16.5 24.5v14c0 38 -4.83301 73.333 -14.5 106s-23.834 61 -42.501 85s-41.5 42.833 -68.5 56.5s-57.833 20.5 -92.5 20.5
c-28 0 -54.667 -5.5 -80 -16.5s-47.5 -26.167 -66.5 -45.5s-34 -42 -45 -68s-16.5 -54 -16.5 -84c0 -31.333 5.5 -59.5 16.5 -84.5s25.833 -46.333 44.5 -64s40.167 -31.167 64.5 -40.5s49.833 -14 76.5 -14z" />
    <glyph glyph-name="colon" unicode=":" horiz-adv-x="290" 
d="M145 363c-6.66699 0 -12.334 2.33301 -17.001 7s-7 10 -7 16c0 7.33301 2.33301 13.166 7 17.499s10.334 6.5 17.001 6.5c7.33301 0 13.166 -2.16699 17.499 -6.5s6.5 -10.166 6.5 -17.499c0 -6 -2.16699 -11.333 -6.5 -16s-10.166 -7 -17.499 -7zM121 14
c0 6.66699 2.33301 12.167 7 16.5s10.334 6.5 17.001 6.5c7.33301 0 13.166 -2.16699 17.499 -6.5s6.5 -9.83301 6.5 -16.5s-2.16699 -12.334 -6.5 -17.001s-10.166 -7 -17.499 -7c-6.66699 0 -12.334 2.33301 -17.001 7s-7 10.334 -7 17.001z" />
    <glyph glyph-name="semicolon" unicode=";" horiz-adv-x="301" 
d="M145 363c-6 0 -11.333 2.33301 -16 7s-7 10 -7 16c0 7.33301 2.33301 13.166 7 17.499s10 6.5 16 6.5c7.33301 0 13.166 -2.16699 17.499 -6.5s6.5 -10.166 6.5 -17.499c0 -6 -2.16699 -11.333 -6.5 -16s-10.166 -7 -17.499 -7zM123 13
c0 6 2.16602 11.166 6.49902 15.499s9.83301 6.5 16.5 6.5c10.667 0 22 -7 34 -21s18 -37.667 18 -71c0 -17.333 -3.33301 -32.333 -10 -45s-14 -23 -22 -31c-9.33301 -9.33301 -19.666 -17.333 -30.999 -24c-2 -2 -4.33301 -1.66699 -7 1l-3 5
c-4.66699 4.66699 -4 8.33398 2 11.001c10 5.33301 18.667 12 26 20c6.66699 6.66699 12.667 15.167 18 25.5s8 22.833 8 37.5c0 15.333 -1.33301 27.333 -4 36s-5.66699 15.667 -9 21c-2.66699 -2.66699 -5.5 -5 -8.5 -7s-6.83301 -3 -11.5 -3
c-6.66699 0 -12.167 2.33301 -16.5 7s-6.5 10 -6.5 16z" />
    <glyph glyph-name="less" unicode="&#x3c;" horiz-adv-x="438" 
d="M32 226c-2.66699 1.33301 -4 3.33301 -4 6s1.33301 4.66699 4 6l365 235c4 2 7 1.33301 9 -2l3 -5c2.66699 -4 2 -7 -2 -9l-350 -225l350 -218c4 -2 4.66699 -5 2 -9l-3 -5c-2 -3.33301 -5 -4 -9 -2z" />
    <glyph glyph-name="equal" unicode="=" horiz-adv-x="665" 
d="M167 382c-4.66699 0 -7 2.33301 -7 7v4c0 4.66699 2.33301 7 7 7h331c4.66699 0 7 -2.33301 7 -7v-4c0 -4.66699 -2.33301 -7 -7 -7h-331zM167 176c-4.66699 0 -7 2.33301 -7 7v4c0 4.66699 2.33301 7 7 7h331c4.66699 0 7 -2.33301 7 -7v-4
c0 -4.66699 -2.33301 -7 -7 -7h-331z" />
    <glyph glyph-name="greater" unicode="&#x3e;" horiz-adv-x="438" 
d="M29 5c-2.66699 4 -2 7 2 9l350 218l-350 225c-4 2 -4.66699 5 -2 9l3 5c2 3.33301 5 4 9 2l365 -235c2.66699 -1.33301 4 -3.33301 4 -6s-1.33301 -4.66699 -4 -6l-365 -228c-4 -2 -7 -1.33301 -9 2z" />
    <glyph glyph-name="question" unicode="?" horiz-adv-x="504" 
d="M234 257c-4.66699 0 -6.99609 2.33105 -6.99609 6.99805v60c0 12 2 22.5 6 31.5s9 16.5 15 22.5s12.333 11 19 15l18 11c11.333 6 24.333 13.833 39 23.5s28.5 21.167 41.5 34.5s24 28.333 33 45s13.5 35.334 13.5 56.001c0 18 -3.83301 35 -11.5 51
s-18.667 29.667 -33 41s-31.5 20.333 -51.5 27s-42 10 -66 10c-30 0 -55.833 -4.33301 -77.5 -13s-39.5 -18 -53.5 -28c-16.667 -12 -30.334 -25.667 -41.001 -41c-2.66699 -4 -5.33398 -4.66699 -8.00098 -2l-5 4l-3 3
c-0.666992 0.666992 -0.333984 2.33398 0.999023 5.00098c12 16.667 27 31.667 45 45c15.333 11.333 34.666 21.666 57.999 30.999s51.333 14 84 14c26.667 0 51 -3.83301 73 -11.5s40.833 -18 56.5 -31s27.834 -28.5 36.501 -46.5s13 -37.333 13 -58
c0 -23.333 -4.83301 -44.166 -14.5 -62.499s-21.5 -34.833 -35.5 -49.5s-28.833 -27.167 -44.5 -37.5s-29.5 -18.833 -41.5 -25.5l-15.5 -9c-5.66699 -3.33301 -10.834 -7.5 -15.501 -12.5s-8.66699 -10.833 -12 -17.5s-5 -15 -5 -25v-60c0 -4.66699 -2.33301 -7 -7 -7h-4z
M217.004 13.998c0 6.66699 2.16699 12.167 6.5 16.5s9.83301 6.5 16.5 6.5c7.33301 0 13.166 -2.16699 17.499 -6.5s6.5 -9.83301 6.5 -16.5s-2.16699 -12.334 -6.5 -17.001s-10.166 -7 -17.499 -7c-6.66699 0 -12.167 2.33301 -16.5 7s-6.5 10.334 -6.5 17.001z" />
    <glyph glyph-name="at" unicode="@" horiz-adv-x="1000" 
d="M52 225c0 70.667 10.8301 135.831 32.4971 195.498s52.5 110.834 92.5 153.501s88.333 76 145 100s120 36 190 36c66.667 0 126.167 -10.5 178.5 -31.5s96.5 -50.167 132.5 -87.5s63.5 -81.666 82.5 -132.999s28.5 -107 28.5 -167
c0 -33.333 -2.83301 -67.666 -8.5 -102.999s-15.834 -67.666 -30.501 -96.999s-35 -53.5 -61 -72.5s-59.333 -28.5 -100 -28.5c-32 0 -56.833 7.66699 -74.5 23s-29.167 34.333 -34.5 57c-5.33301 -8 -12 -16.667 -20 -26s-18 -18 -30 -26s-26.5 -14.667 -43.5 -20
s-36.5 -8 -58.5 -8c-29.333 0 -55.666 5.5 -78.999 16.5s-43.5 26.167 -60.5 45.5s-30 42 -39 68s-13.5 54 -13.5 84c0 29.333 4.83301 56.666 14.5 81.999s23.334 47.166 41.001 65.499s38.334 32.666 62.001 42.999s49.5 15.5 77.5 15.5c18.667 0 35.667 -1.83301 51 -5.5
s29 -8.16699 41 -13.5s22.5 -11.166 31.5 -17.499s16.5 -12.166 22.5 -17.499v37c0 4.66699 2.33301 7 7 7h4c4.66699 0 7 -2.33301 7 -7v-289c0 -28 7.83301 -51 23.5 -69s39.167 -27 70.5 -27c36.667 0 66.834 8.83301 90.501 26.5s42.334 40.334 56.001 68.001
s23.167 58.167 28.5 91.5s8 65.666 8 96.999c0 58 -9 111.5 -27 160.5s-44.333 91.333 -79 127s-77.167 63.5 -127.5 83.5s-107.5 30 -171.5 30c-68 0 -129.167 -11.5 -183.5 -34.5s-100.833 -55.167 -139.5 -96.5s-68.334 -90.5 -89.001 -147.5s-31 -119.833 -31 -188.5
c0 -52 7.33301 -100.333 22 -145s35 -85.334 61 -122.001s57 -69 93 -97s75.667 -51 119 -69c3.33301 -2 4.33301 -4.33301 3 -7l-3 -6c-2 -4 -4.66699 -5 -8 -3c-44 18.667 -84.667 42.5 -122 71.5s-69.5 62.5 -96.5 100.5s-48 80.167 -63 126.5s-22.5 96.5 -22.5 150.5z
M298.997 203.997c0 -27.333 4.16992 -53 12.5029 -77s20 -44.833 35 -62.5s33.167 -31.5 54.5 -41.5s45.333 -15 72 -15c29.333 0 53.5 5 72.5 15s34.167 21 45.5 33c13.333 14 23.666 30.333 30.999 49v224c-1.33301 2 -5.33301 6.33301 -12 13s-16 13.667 -28 21
s-27 14 -45 20s-38.333 9 -61 9c-26 0 -49.833 -4.66699 -71.5 -14s-40.334 -22.5 -56.001 -39.5s-27.834 -37 -36.501 -60s-13 -47.833 -13 -74.5z" />
    <glyph glyph-name="A" unicode="A" 
d="M316 717c1.33301 2.66699 3 4 5 4h2c2 0 3.66699 -1.33301 5 -4l302 -710c0.666992 -3.33301 -0.333008 -5.33301 -3 -6l-9 -3c-2 -0.666992 -3.66699 0.333008 -5 3l-89 209h-409l-90 -209c-1.33301 -2.66699 -3 -3.66699 -5 -3l-9 3
c-3.33301 0.666992 -4.33301 2.66699 -3 6zM516 227l-194 458l-199 -458h393z" />
    <glyph glyph-name="B" unicode="B" horiz-adv-x="625" 
d="M112 693c0 4.66699 2.33203 7 6.99902 7h206c31.333 0 59.833 -3.83301 85.5 -11.5s47.834 -19 66.501 -34s33 -33.5 43 -55.5s15 -47.333 15 -76c0 -41.333 -11.5 -75.833 -34.5 -103.5s-53.833 -47.167 -92.5 -58.5c44.667 -8.66699 80.667 -27.167 108 -55.5
s41 -67.5 41 -117.5c0 -28 -5.5 -53.5 -16.5 -76.5s-26.333 -42.833 -46 -59.5s-43.167 -29.5 -70.5 -38.5s-57.333 -13.5 -90 -13.5h-215c-4.66699 -0 -7 2.33301 -7 7v686zM326.999 367c28 0 53.502 3.50098 76.502 10.501s43 17.167 60 30.5s30.167 29.666 39.5 48.999
s14 41.333 14 66c0 26 -4.66699 48.833 -14 68.5s-22.333 36.167 -39 49.5s-36.834 23.5 -60.501 30.5s-49.834 10.5 -78.501 10.5h-195v-315h197zM334.001 18.001c30.667 0 58.5 4.00098 83.5 12.001s46.5 19.5 64.5 34.5s32 33 42 54s15 44.167 15 69.5
c0 28 -4.83301 52 -14.5 72s-23 36.667 -40 50s-37.333 23.166 -61 29.499s-49.5 9.5 -77.5 9.5h-216v-331h204z" />
    <glyph glyph-name="C" unicode="C" horiz-adv-x="730" 
d="M61 349c0 50 9.50488 97.002 28.5049 141.002s44.833 82.333 77.5 115s71.167 58.334 115.5 77.001s91.5 28 141.5 28c51.333 0 96.166 -8.33301 134.499 -25s74.5 -39.334 108.5 -68.001c2.66699 -2.66699 3 -5.33398 1 -8.00098l-5 -6
c-2.66699 -2.66699 -5.33398 -2.66699 -8.00098 0c-32.667 28 -67.334 49.833 -104.001 65.5s-79 23.5 -127 23.5s-92.833 -8.83301 -134.5 -26.5s-78.167 -42 -109.5 -73s-56 -67.333 -74 -109s-27 -86.5 -27 -134.5s9 -92.667 27 -134s42.667 -77.333 74 -108
s67.833 -54.834 109.5 -72.501s86.5 -26.5 134.5 -26.5c86 0 163 31 231 93c3.33301 3.33301 6 3.33301 8 0l5 -6c2 -2.66699 2 -5 0 -7c-34.667 -33.333 -72.834 -58 -114.501 -74s-84.834 -24 -129.501 -24c-50 0 -97.167 9.33301 -141.5 28s-82.833 44.167 -115.5 76.5
s-58.5 70.333 -77.5 114s-28.5 90.5 -28.5 140.5z" />
    <glyph glyph-name="D" unicode="D" horiz-adv-x="733" 
d="M112 693c0 4.66699 2 7.00098 6 7.00098h200c48.667 0 94.5 -9.16699 137.5 -27.5s80.5 -43.166 112.5 -74.499s57.167 -68.333 75.5 -111s27.5 -88 27.5 -136c0 -48.667 -9.16699 -94.334 -27.5 -137.001s-43.5 -79.834 -75.5 -111.501s-69.5 -56.667 -112.5 -75
s-88.833 -27.5 -137.5 -27.5h-200c-4 -0 -6 2.33301 -6 7v686zM318 18.001c46 0 89.5 8.66699 130.5 26s76.667 41 107 71s54.333 65.333 72 106s26.5 84 26.5 130s-8.83301 89 -26.5 129s-41.667 75 -72 105s-66 53.667 -107 71s-84.5 26 -130.5 26h-189v-664h189z" />
    <glyph glyph-name="E" unicode="E" horiz-adv-x="610" 
d="M112 693c0 4.66699 2.33301 7 7 7h407c4.66699 0 7 -2.33301 7 -7v-4c0 -4.66699 -2.33301 -7 -7 -7h-396v-309h348c4.66699 0 7 -2.33301 7 -7v-4c0 -4.66699 -2.33301 -7 -7 -7h-348v-337h396c4.66699 0 7 -2.33301 7 -7v-4c0 -4.66699 -2.33301 -7 -7 -7h-407
c-4.66699 -0 -7 2.33301 -7 7v686z" />
    <glyph glyph-name="F" unicode="F" horiz-adv-x="585" 
d="M112 693c0 4.66699 2.33301 7 7 7h407c4.66699 0 7 -2.33301 7 -7v-4c0 -4.66699 -2.33301 -7 -7 -7h-396v-334h348c4.66699 0 7 -2.33301 7 -7v-4c0 -4.66699 -2.33301 -7 -7 -7h-348v-323c0 -4.66699 -2.33301 -7 -7 -7h-4c-4.66699 -0 -7 2.33301 -7 7v686z" />
    <glyph glyph-name="G" unicode="G" horiz-adv-x="755" 
d="M61 349c0 50 9.50391 97.002 28.5039 141.002s44.833 82.333 77.5 115s71.167 58.334 115.5 77.001s91.5 28 141.5 28c51.333 0 96.166 -8.33301 134.499 -25s74.5 -39.334 108.5 -68.001c2.66699 -2.66699 3 -5.33398 1 -8.00098l-5 -6
c-2.66699 -2.66699 -5.33398 -2.66699 -8.00098 0c-32.667 28 -67.334 49.833 -104.001 65.5s-79 23.5 -127 23.5s-92.833 -8.83301 -134.5 -26.5s-78.167 -42 -109.5 -73s-56 -67.333 -74 -109s-27 -86.5 -27 -134.5s9 -92.667 27 -134s42.667 -77.333 74 -108
s67.833 -54.834 109.5 -72.501s86.5 -26.5 134.5 -26.5c33.333 0 63.5 2.83301 90.5 8.5s50.333 12.167 70 19.5s35.667 15 48 23s21.166 14 26.499 18v235h-227c-4.66699 0 -7 2.33301 -7 7v4c0 4 2.33301 6 7 6h238c4.66699 0 7 -2 7 -6v-253
c-2 -2.66699 -8.83301 -8.33398 -20.5 -17.001s-28.167 -17.667 -49.5 -27s-47.333 -17.666 -78 -24.999s-65.667 -11 -105 -11c-50 0 -97.167 9.33301 -141.5 28s-82.833 44.167 -115.5 76.5s-58.5 70.333 -77.5 114s-28.5 90.5 -28.5 140.5z" />
    <glyph glyph-name="H" unicode="H" horiz-adv-x="752" 
d="M112 693c0 4.66699 2.33301 7 7 7h4c4.66699 0 7 -2.33301 7 -7v-320h492v320c0 4.66699 2.33301 7 7 7h4c4.66699 0 7 -2.33301 7 -7v-686c0 -4.66699 -2.33301 -7 -7 -7h-4c-4.66699 -0 -7 2.33301 -7 7v348h-492v-348c0 -4.66699 -2.33301 -7 -7 -7h-4
c-4.66699 -0 -7 2.33301 -7 7v686z" />
    <glyph glyph-name="I" unicode="I" horiz-adv-x="242" 
d="M112 693c0 4.66699 2.33301 7 7 7h4c4.66699 0 7 -2.33301 7 -7v-686c0 -4.66699 -2.33301 -7 -7 -7h-4c-4.66699 -0 -7 2.33301 -7 7v686z" />
    <glyph glyph-name="J" unicode="J" horiz-adv-x="379" 
d="M-30 67c-2.66699 3.33301 -2.33301 6.33203 1 8.99902l4 3c3.33301 2 6 1.33301 8 -2c4 -5.33301 9.83301 -11.833 17.5 -19.5s17.334 -15.167 29.001 -22.5s25.5 -13.666 41.5 -18.999s34 -8 54 -8c55.333 0 97.333 17.667 126 53s43 86.333 43 153v479
c0 4.66699 2.33301 7 7 7h3c4.66699 0 7 -2.33301 7 -7v-479c0 -70.667 -15.833 -125.667 -47.5 -165s-77.834 -59 -138.501 -59c-22 0 -41.667 3 -59 9s-32.5 13.167 -45.5 21.5s-23.667 16.833 -32 25.5s-14.5 15.667 -18.5 21z" />
    <glyph glyph-name="K" unicode="K" horiz-adv-x="559" 
d="M112 693c0 4.66699 2.33398 6.99902 7.00098 6.99902h4c4.66699 0 7 -2.33301 7 -7v-333l372 339c3.33301 3.33301 6.66602 3.33301 9.99902 0l3 -3c3.33301 -3.33301 3.33301 -6.66602 0 -9.99902l-369 -335l379 -340c2 -2 3.33301 -3.83301 4 -5.5s0 -3.5 -2 -5.5
l-4 -4c-2.66699 -2.66699 -5.66699 -2 -9 2l-384 344v-335c0 -4.66699 -2.33301 -7 -7 -7h-4c-4.66699 -0 -7 2.33301 -7 7v686z" />
    <glyph glyph-name="L" unicode="L" horiz-adv-x="489" 
d="M112 693c0 4.66699 2.33301 7 7 7h4c4 0 6 -2.33301 6 -7v-675h349c4.66699 0 7 -2.33301 7 -7v-4c0 -4.66699 -2.33301 -7 -7 -7h-359c-4.66699 -0 -7 2.33301 -7 7v686z" />
    <glyph glyph-name="M" unicode="M" horiz-adv-x="859" 
d="M199 712c0.666992 3.33301 2.83301 5 6.5 5s6.16699 -1.66699 7.5 -5l217 -676l214 676c1.33301 3.33301 3.66602 5 6.99902 5s5.66602 -1.66699 6.99902 -5l151 -704c0.666992 -4.66699 -0.333008 -7.33398 -3 -8.00098l-8 -2c-3.33301 -1.33301 -5.33301 0.666992 -6 6
l-144 662l-211 -674c-1.33301 -3.33301 -3.66602 -5 -6.99902 -5s-5.66602 1.66699 -6.99902 5l-215 674l-139 -662c-1.33301 -5.33301 -3.33301 -7.33301 -6 -6l-8 2c-2.66699 0.666992 -3.66699 3.33398 -3 8.00098z" />
    <glyph glyph-name="N" unicode="N" horiz-adv-x="772" 
d="M112 710c0 3.33301 1.66699 5.66602 5 6.99902s6 0.333008 8 -3l517 -689v668c0 4.66699 2.33301 7 7 7h4c4.66699 0 7 -2.33301 7 -7v-701c0 -3.33301 -1.66699 -5.66602 -5 -6.99902s-6 -0.333008 -8 3l-517 689v-670c0 -4.66699 -2.33301 -7 -7 -7h-4
c-4.66699 -0 -7 2.33301 -7 7v703z" />
    <glyph glyph-name="O" unicode="O" horiz-adv-x="846" 
d="M62 349c0 50 9.33301 97 28 141s44.334 82.333 77.001 115s71 58.334 115 77.001s91 28 141 28s97 -9.33301 141 -28s82.333 -44.334 115 -77.001s58.5 -71 77.5 -115s28.5 -91 28.5 -141s-9.5 -96.833 -28.5 -140.5s-44.833 -81.667 -77.5 -114s-71 -57.833 -115 -76.5
s-91 -28 -141 -28s-97 9.33301 -141 28s-82.333 44.167 -115 76.5s-58.334 70.333 -77.001 114s-28 90.5 -28 140.5zM80 349c0 -48 8.83301 -92.667 26.5 -134s42 -77.333 73 -108s67.333 -54.834 109 -72.501s86.5 -26.5 134.5 -26.5s92.833 8.83301 134.5 26.5
s78 41.834 109 72.501s55.5 66.667 73.5 108s27 86 27 134s-9 92.833 -27 134.5s-42.5 78 -73.5 109s-67.333 55.333 -109 73s-86.5 26.5 -134.5 26.5s-92.833 -8.83301 -134.5 -26.5s-78 -42 -109 -73s-55.333 -67.333 -73 -109s-26.5 -86.5 -26.5 -134.5z" />
    <glyph glyph-name="P" unicode="P" horiz-adv-x="596" 
d="M112 693c0 4.66699 2.33398 7.00098 7.00098 7.00098h208c31.333 0 61 -6 89 -18s52.333 -28.167 73 -48.5s37 -44.333 49 -72s18 -56.834 18 -87.501c0 -31.333 -6 -61 -18 -89s-28.333 -52.333 -49 -73s-44.834 -37 -72.501 -49s-57.167 -18 -88.5 -18h-198v-238
c0 -4.66699 -2.33301 -7 -7 -7h-4c-4.66699 -0 -7 2.33301 -7 7v686zM328.001 263.001c28.667 0 55.834 5.50195 81.501 16.502s48 26.167 67 45.5s34 41.666 45 66.999s16.5 52.666 16.5 81.999c0 28.667 -5.5 55.5 -16.5 80.5s-26.167 47 -45.5 66s-41.833 34 -67.5 45
s-52.834 16.5 -81.501 16.5h-197v-419h198z" />
    <glyph glyph-name="Q" unicode="Q" horiz-adv-x="847" 
d="M62 349c0 50 9.33301 97 28 141s44.334 82.333 77.001 115s71 58.334 115 77.001s91 28 141 28s97 -9.33301 141 -28s82.333 -44.334 115 -77.001s58.5 -71 77.5 -115s28.5 -91 28.5 -141c0 -39.333 -5.83301 -76.666 -17.5 -111.999s-28 -67.5 -49 -96.5
s-46 -54.333 -75 -76s-60.833 -38.834 -95.5 -51.501l117 -192c2 -3.33301 1.66699 -6 -1 -8l-9 -5c-2.66699 -0.666992 -4.66699 0.333008 -6 3l-118 196c-35.333 -11.333 -71.333 -17 -108 -17c-50 0 -97 9.33301 -141 28s-82.333 44.167 -115 76.5
s-58.334 70.333 -77.001 114s-28 90.5 -28 140.5zM80 349c0 -48 8.83301 -92.667 26.5 -134s42 -77.333 73 -108s67.333 -54.834 109 -72.501s86.5 -26.5 134.5 -26.5s92.833 8.83301 134.5 26.5s78 41.834 109 72.501s55.5 66.667 73.5 108s27 86 27 134
s-9 92.833 -27 134.5s-42.5 78 -73.5 109s-67.333 55.333 -109 73s-86.5 26.5 -134.5 26.5s-92.833 -8.83301 -134.5 -26.5s-78 -42 -109 -73s-55.333 -67.333 -73 -109s-26.5 -86.5 -26.5 -134.5z" />
    <glyph glyph-name="R" unicode="R" horiz-adv-x="648" 
d="M112 693c0 4.66699 2.33105 7.00195 6.99805 7.00195h237c31.333 0 60.833 -5.33301 88.5 -16s51.834 -25.5 72.501 -44.5s37 -41.667 49 -68s18 -54.833 18 -85.5c0 -28 -4.66699 -54 -14 -78s-22.166 -45.333 -38.499 -64s-35.5 -34.334 -57.5 -47.001
s-46 -21.334 -72 -26.001l156 -261c2 -3.33301 1.66699 -6 -1 -8l-9 -5c-2.66699 -0.666992 -4.66699 0.333008 -6 3l-159 268c-4.66699 -0.666992 -9 -1 -13 -1h-13h-228v-260c0 -4.66699 -2 -7 -6 -7h-4c-4.66699 -0 -7 2.33301 -7 7v686zM356.998 284.002
c28.667 0 55.834 5 81.501 15s48 24 67 42s34 39.333 45 64s16.5 51.667 16.5 81c0 28.667 -5.5 55 -16.5 79s-26.167 44.667 -45.5 62s-41.833 30.833 -67.5 40.5s-52.834 14.5 -81.501 14.5h-227v-398h228z" />
    <glyph glyph-name="S" unicode="S" horiz-adv-x="556" 
d="M72 73c-3.33301 2.66699 -3.33301 5.66406 0 8.99707l4 4c2.66699 2.66699 5.66699 2.33398 9 -0.999023l21 -16.5c10.667 -8.33301 24.5 -17 41.5 -26s37.167 -17 60.5 -24s49 -10.5 77 -10.5c26.667 0 52.334 4.16699 77.001 12.5s46.334 19.666 65.001 33.999
s33.5 31 44.5 50s16.5 39.5 16.5 61.5c0 27.333 -5.16699 50.5 -15.5 69.5s-25 35.5 -44 49.5s-41.5 25.833 -67.5 35.5s-55 18.834 -87 27.501c-30 8 -57.833 16.833 -83.5 26.5s-47.834 21.5 -66.501 35.5s-33.167 31 -43.5 51s-15.5 44.667 -15.5 74c0 20 4 40.5 12 61.5
s20.667 39.833 38 56.5s39.833 30.334 67.5 41.001s61.167 16 100.5 16c25.333 0 48.5 -2.66699 69.5 -8s39.167 -11.333 54.5 -18c18 -7.33301 34.333 -15.666 49 -24.999c3.33301 -2 4 -4.66699 2 -8l-4 -6c-2 -3.33301 -4.66699 -4 -8 -2
c-14 8.66699 -29.667 16.667 -47 24c-14.667 6 -31.834 11.667 -51.501 17s-41.167 8 -64.5 8c-36 0 -66.667 -4.83301 -92 -14.5s-46 -22 -62 -37s-27.667 -31.833 -35 -50.5s-11 -37 -11 -55c0 -25.333 4.66699 -47 14 -65s22.666 -33.333 39.999 -46s38 -23.5 62 -32.5
s50.667 -17.5 80 -25.5c34.667 -10 66.167 -20.5 94.5 -31.5s52.166 -24.167 71.499 -39.5s34.333 -33.5 45 -54.5s16 -45.833 16 -74.5c0 -24 -6 -46.667 -18 -68s-28.167 -40 -48.5 -56s-43.833 -28.667 -70.5 -38s-54.667 -14 -84 -14c-30 0 -57.333 3.83301 -82 11.5
s-46.167 16.167 -64.5 25.5s-33.166 18.5 -44.499 27.5s-18.666 15.167 -21.999 18.5z" />
    <glyph glyph-name="T" unicode="T" horiz-adv-x="462" 
d="M221 682h-208c-4.66699 0 -7 2.33301 -7 7v4c0 4.66699 2.33301 7 7 7h436c4.66699 0 7 -2.33301 7 -7v-4c0 -4.66699 -2.33301 -7 -7 -7h-210v-675c0 -4.66699 -2.33301 -7 -7 -7h-4c-4.66699 -0 -7 2.33301 -7 7v675z" />
    <glyph glyph-name="U" unicode="U" horiz-adv-x="724" 
d="M103 693c0 4.66699 2.33203 7 6.99902 7h4c4.66699 0 7 -2.33301 7 -7v-441c0 -36 5.5 -69 16.5 -99s26.833 -55.667 47.5 -77s45.834 -38 75.501 -50s63.167 -18 100.5 -18s71 6 101 18s55.5 28.667 76.5 50s37 47 48 77s16.5 63 16.5 99v441c0 4.66699 2.33301 7 7 7h4
c4.66699 0 7 -2.33301 7 -7v-441c0 -38.667 -6 -74 -18 -106s-29.333 -59.5 -52 -82.5s-50 -41 -82 -54s-68 -19.5 -108 -19.5s-75.833 6.5 -107.5 19.5s-58.667 31 -81 54s-39.5 50.5 -51.5 82.5s-18 67.333 -18 106v441z" />
    <glyph glyph-name="V" unicode="V" 
d="M9 693c-1.33301 2.66699 -0.333008 4.66699 3 6l9 3c2 0.666992 3.66699 -0.333008 5 -3l290 -683l297 683c1.33301 2.66699 3 3.66699 5 3l9 -3c2.66699 -1.33301 3.66699 -3.33301 3 -6l-308 -709c-1.33301 -3.33301 -3.33301 -5 -6 -5s-4.66699 1.66699 -6 5z" />
    <glyph glyph-name="W" unicode="W" horiz-adv-x="889" 
d="M41 693c-1.33301 2.66699 -0.334961 4.66699 2.99805 6l8 3c2.66699 0.666992 4.66699 -0.333008 6 -3l194 -668l184 677c1.33301 3.33301 3.66602 5 6.99902 5s5.66602 -1.66699 6.99902 -5l193 -676l187 667c0.666992 2.66699 2.66699 3.66699 6 3l8 -3
c2.66699 -1.33301 3.66699 -3.33301 3 -6l-197 -705c-1.33301 -3.33301 -3.66602 -5 -6.99902 -5s-5.66602 1.66699 -6.99902 5l-193 676l-184 -676c-1.33301 -3.33301 -3.66602 -5 -6.99902 -5s-5.66602 1.66699 -6.99902 5z" />
    <glyph glyph-name="X" unicode="X" horiz-adv-x="546" 
d="M39 3c-3.33301 2 -3.66602 5 -0.999023 9l223 345l-213 331c-2.66699 3.33301 -2.33398 6.33301 0.999023 9l6 4c2.66699 1.33301 5.33398 0.333008 8.00098 -3l210 -325l210 325c2 3.33301 4.66699 4.33301 8 3l6 -4c3.33301 -2.66699 3.66602 -5.66699 0.999023 -9
l-214 -331l225 -345c2.66699 -4 2.33398 -7 -0.999023 -9l-6 -4c-3.33301 -1.33301 -6 -0.333008 -8 3l-221 338l-220 -338c-2.66699 -3.33301 -5.33398 -4.33301 -8.00098 -3z" />
    <glyph glyph-name="Y" unicode="Y" horiz-adv-x="544" 
d="M263 343l-263.999 345c-2.66699 3.33301 -2.33398 6.33301 0.999023 9l6 4c2 1.33301 3.5 1.5 4.5 0.5l3.5 -3.5l258 -339l258 339c2.66699 4 5.33398 5 8.00098 3l6 -4c3.33301 -2.66699 3.66602 -5.66699 0.999023 -9l-264 -344v-337c0 -4.66699 -2.33301 -7 -7 -7h-4
c-4.66699 -0 -7 2.33301 -7 7v336z" />
    <glyph glyph-name="Z" unicode="Z" horiz-adv-x="528" 
d="M468 682h-399c-4.66699 0 -7 2.33301 -7 7v4c0 4.66699 2.33301 7 7 7h419c3.33301 0 5.5 -1.16699 6.5 -3.5s0.833008 -4.83301 -0.5 -7.5l-439 -671h411c4.66699 0 7 -2.33301 7 -7v-4c0 -4.66699 -2.33301 -7 -7 -7h-431c-3.33301 0 -5.5 1.16699 -6.5 3.5
s-0.833008 4.83301 0.5 7.5z" />
    <glyph glyph-name="bracketleft" unicode="[" horiz-adv-x="333" 
d="M298 -282c4.66699 0 7 -2.33301 7 -7v-4c0 -4.66699 -2.33301 -7 -7 -7h-203c-4.66699 0 -7 2.33301 -7 7v986c0 4.66699 2.33301 7 7 7h203c4.66699 0 7 -2.33301 7 -7v-4c0 -4.66699 -2.33301 -7 -7 -7h-192v-964h192z" />
    <glyph glyph-name="backslash" unicode="\" horiz-adv-x="334" 
d="M28 693c-1.33301 4 -0.333008 6.33301 3 7h7c4 0 6.33301 -1.33301 7 -4l245 -690c1.33301 -4 0.333008 -6 -3 -6h-7h-3.5c-1 -0 -2.16699 1.33301 -3.5 4z" />
    <glyph glyph-name="bracketright" unicode="]" horiz-adv-x="333" 
d="M227 -282v964h-192c-4.66699 0 -7 2.33301 -7 7v4c0 4.66699 2.33301 7 7 7h203c4.66699 0 7 -2.33301 7 -7v-986c0 -4.66699 -2.33301 -7 -7 -7h-203c-4.66699 0 -7 2.33301 -7 7v4c0 4.66699 2.33301 7 7 7h192z" />
    <glyph glyph-name="asciicircum" unicode="^" horiz-adv-x="524" 
d="M42 402c-3.33301 2 -4 4.66699 -2 8l219 305c4 5.33301 8 5.33301 12 0l213 -305c2 -3.33301 1.33301 -6 -2 -8l-6 -4c-3.33301 -2 -6 -1.33301 -8 2l-203 291l-209 -291c-2 -3.33301 -4.66699 -4 -8 -2z" />
    <glyph glyph-name="underscore" unicode="_" horiz-adv-x="401" 
d="M28 -17c0 4.66699 2.33301 7 7 7h331c4.66699 0 7 -2.33301 7 -7v-4c0 -4 -2.33301 -6 -7 -6h-331c-4.66699 0 -7 2 -7 6v4z" />
    <glyph glyph-name="grave" unicode="`" horiz-adv-x="302" 
d="M57 650c-4 2 -5 5 -3 9l2 4c1.33301 2.66699 2.83301 4 4.5 4s3.16699 -0.333008 4.5 -1l182 -91c3.33301 -2 4.33301 -4.33301 3 -7l-2 -5c-2 -4 -5 -5 -9 -3z" />
    <glyph glyph-name="a" unicode="a" horiz-adv-x="436" 
d="M47 125c0 20 4.16699 38.332 12.5 54.999s20.166 31 35.499 43s33.833 21.5 55.5 28.5s45.834 10.5 72.501 10.5c24.667 0 47.667 -2.83301 69 -8.5s37.666 -10.5 48.999 -14.5v37c0 40 -7.83301 69.333 -23.5 88s-44.834 28 -87.501 28
c-19.333 0 -36.5 -1.66699 -51.5 -5s-27.833 -6.66602 -38.5 -9.99902c-12 -4.66699 -22.667 -9.66699 -32 -15c-2.66699 -1.33301 -4.5 -1.66602 -5.5 -0.999023s-2.16699 1.66699 -3.5 3l-3 5c-1.33301 2.66699 -1.66602 4.5 -0.999023 5.5s1.66699 1.83301 3 2.5
c10 6 21.667 11.333 35 16c11.333 4 25.166 7.83301 41.499 11.5s34.833 5.5 55.5 5.5c48.667 0 82.334 -11 101.001 -33s28 -55.667 28 -101v-269c0 -4.66699 -2.33301 -7 -7 -7h-4c-4.66699 0 -7 2.33301 -7 7v45c-8 -6.66699 -17.333 -13.667 -28 -21
s-22.667 -14 -36 -20s-27.666 -11 -42.999 -15s-31.333 -6 -48 -6c-19.333 0 -37.5 3.16699 -54.5 9.5s-31.833 15.166 -44.5 26.499s-22.5 25.333 -29.5 42s-10.5 35.667 -10.5 57zM65 124.999c0 -37.333 11.665 -66.1689 34.998 -86.502s52 -30.5 86 -30.5
c18 0 35.333 2.5 52 7.5s31.834 11 45.501 18s25.334 14.5 35.001 22.5s17.167 15 22.5 21v144c-3.33301 0.666992 -9 2.33398 -17 5.00098s-17.167 5.33398 -27.5 8.00098s-21.833 5 -34.5 7s-25.667 3 -39 3c-48 0 -86.333 -11.167 -115 -33.5s-43 -50.833 -43 -85.5z" />
    <glyph glyph-name="b" unicode="b" horiz-adv-x="491" 
d="M81 693c0 4.66699 2.00098 7 6.00098 7h4c4.66699 0 7 -2.33301 7 -7v-339c11.333 10.667 24.666 20 39.999 28c12.667 7.33301 28 13.833 46 19.5s37.667 8.5 59 8.5c29.333 0 56 -5.33301 80 -16s44.667 -25.167 62 -43.5s30.666 -40.333 39.999 -66s14 -53.5 14 -83.5
c0 -29.333 -5 -56.833 -15 -82.5s-23.667 -48 -41 -67s-37.666 -34 -60.999 -45s-48 -16.5 -74 -16.5c-20 0 -37.833 2.16699 -53.5 6.5s-29.667 9.66602 -42 15.999s-23 13.333 -32 21s-16.5 14.834 -22.5 21.501v-48c0 -4.66699 -2.33301 -7 -7 -7h-4
c-4 -0 -6 2.33301 -6 7v686zM98.001 83c0.666992 -2 4.17285 -6.99707 10.5059 -14.9971s15.666 -16.5 27.999 -25.5s27.666 -17 45.999 -24s40.166 -10.5 65.499 -10.5c24 0 46.5 5 67.5 15s39.333 23.667 55 41s28.167 37.666 37.5 60.999s14 48.666 14 75.999
s-4.33301 52.666 -13 75.999s-20.834 43.5 -36.501 60.5s-34.5 30.333 -56.5 40s-46.333 14.5 -73 14.5c-22.667 0 -42.834 -3.33301 -60.501 -10s-32.834 -13.667 -45.501 -21c-14.667 -8.66699 -27.667 -18.667 -39 -30v-248z" />
    <glyph glyph-name="c" unicode="c" horiz-adv-x="476" 
d="M50 202c0 30 5.66992 57.834 17.0029 83.501s26.666 47.667 45.999 66s42 32.666 68 42.999s53.667 15.5 83 15.5c23.333 0 44.5 -2.83301 63.5 -8.5s35.167 -12.167 48.5 -19.5c15.333 -8 29 -17 41 -27c2.66699 -2.66699 2.66699 -5.33398 0 -8.00098l-4 -4
c-3.33301 -3.33301 -6.66602 -3 -9.99902 1c-10.667 8.66699 -23 16.667 -37 24c-12 6 -26.5 11.5 -43.5 16.5s-36.5 7.5 -58.5 7.5c-26.667 0 -52 -4.66699 -76 -14s-45 -22.5 -63 -39.5s-32.167 -37 -42.5 -60s-15.5 -48.5 -15.5 -76.5s5.33301 -54 16 -78
s25.167 -44.5 43.5 -61.5s39.333 -30.333 63 -40s48.5 -14.5 74.5 -14.5c22 0 42 3.16699 60 9.5s33.667 13.5 47 21.5c15.333 9.33301 28.666 20 39.999 32c2.66699 2.66699 5.33398 3 8.00098 1l5 -5c2 -2.66699 2.33301 -4.66699 1 -6
c-12 -13.333 -26.333 -25.333 -43 -36c-14 -9.33301 -31 -17.5 -51 -24.5s-42.333 -10.5 -67 -10.5c-28.667 0 -55.834 5.33301 -81.501 16s-48.334 25.334 -68.001 44.001s-35.334 41 -47.001 67s-17.5 54.333 -17.5 85z" />
    <glyph glyph-name="d" unicode="d" horiz-adv-x="491" 
d="M52 201c0 30 4.83105 57.833 14.498 83.5s23.167 47.667 40.5 66s38 32.833 62 43.5s50.667 16 80 16c21.333 0 40.833 -3 58.5 -9s32.834 -12.667 45.501 -20c14.667 -8 28 -17.333 40 -28v340c0 4.66699 2.33301 7 7 7h4c4 0 6 -2.33301 6 -7v-686
c0 -4.66699 -2 -7 -6 -7h-4c-4.66699 -0 -7 2.33301 -7 7v48c-6 -6.66699 -13.5 -13.834 -22.5 -21.501s-19.667 -14.667 -32 -21s-26.333 -11.666 -42 -15.999s-33.5 -6.5 -53.5 -6.5c-26 0 -50.667 5.5 -74 16.5s-43.666 26 -60.999 45s-31 41.333 -41 67
s-15 53.167 -15 82.5zM68.998 201c0 -27.333 4.67188 -52.6689 14.0049 -76.002s21.833 -43.666 37.5 -60.999s34 -31 55 -41s43.5 -15 67.5 -15c25.333 0 47.166 3.5 65.499 10.5s33.666 15 45.999 24s21.5 17.5 27.5 25.5s9.66699 13 11 15v244
c-10.667 12 -23.334 22.667 -38.001 32c-12.667 8 -27.834 15.5 -45.501 22.5s-37.834 10.5 -60.501 10.5c-26.667 0 -51 -4.83301 -73 -14.5s-41 -23 -57 -40s-28.333 -37.167 -37 -60.5s-13 -48.666 -13 -75.999z" />
    <glyph glyph-name="e" unicode="e" horiz-adv-x="477" 
d="M71 193c0.666992 -26 5.16992 -50.333 13.5029 -73s20.166 -42.167 35.499 -58.5s33.833 -29.333 55.5 -39s46.167 -14.5 73.5 -14.5c32 0 59.833 4.83301 83.5 14.5s41.167 19.167 52.5 28.5c3.33301 2.66699 6 2.33398 8 -0.999023l4 -6
c1.33301 -2 0.666016 -4.33301 -2.00098 -7c-12.667 -9.33301 -31.834 -19.5 -57.501 -30.5s-55.167 -16.5 -88.5 -16.5c-30.667 0 -58.167 5.5 -82.5 16.5s-45 26 -62 45s-30 41.5 -39 67.5s-13.5 53.667 -13.5 83c0 28.667 4.5 55.667 13.5 81s22 47.5 39 66.5
s37.667 33.833 62 44.5s51.833 16 82.5 16c26.667 0 51.167 -4.5 73.5 -13.5s41.5 -21.5 57.5 -37.5s28.5 -35.333 37.5 -58s13.5 -47.334 13.5 -74.001c0 -3.33301 -0.333008 -8.5 -1 -15.5s-1.66699 -11.833 -3 -14.5s-3.33301 -4 -6 -4h-350zM412.003 210
c0.666992 3.33301 1.00098 6.49707 1.00098 9.49707v7.5c0 24.667 -4.16699 47 -12.5 67s-19.833 37.333 -34.5 52s-32 26 -52 34s-41.667 12 -65 12c-27.333 0 -51.833 -4.66699 -73.5 -14s-40 -22.166 -55 -38.499s-26.833 -35.666 -35.5 -57.999
s-13.334 -46.166 -14.001 -71.499h341z" />
    <glyph glyph-name="f" unicode="f" horiz-adv-x="301" 
d="M99 382l-59.999 -0.000976562c-4.66699 0 -7 2.33301 -7 7v4c0 4.66699 2.33301 7 7 7h60v134c0 60 13.667 104.333 41 133s63.333 43 108 43c28 0 51.667 -4.83301 71 -14.5s33.666 -19.167 42.999 -28.5c3.33301 -3.33301 3.33301 -6.66602 0 -9.99902l-3 -3
c-3.33301 -3.33301 -6.66602 -3.33301 -9.99902 0c-8.66699 8 -21.334 16.333 -38.001 25s-37.667 13 -63 13c-40 0 -71.833 -12.833 -95.5 -38.5s-35.5 -65.5 -35.5 -119.5v-134h181c4.66699 0 7 -2.33301 7 -7v-4c0 -4.66699 -2.33301 -7 -7 -7h-181v-375
c0 -4.66699 -2.33301 -7 -7 -7h-4c-4.66699 -0 -7 2.33301 -7 7v375z" />
    <glyph glyph-name="g" unicode="g" horiz-adv-x="464" 
d="M40 50c0 14.667 2.32812 27.5029 6.99512 38.5029s10.334 20.5 17.001 28.5s13.667 14.5 21 19.5s13.666 8.83301 18.999 11.5c-10.667 14 -18.334 29.667 -23.001 47s-7 35.333 -7 54c0 22 3.83301 42.833 11.5 62.5s18.667 36.667 33 51s31.833 25.833 52.5 34.5
s43.667 13 69 13h31h1h143c4.66699 0 7 -2.33301 7 -7v-4c0 -4.66699 -2.33301 -7 -7 -7h-91c9.33301 -5.33301 18.833 -11.666 28.5 -18.999s18.334 -16.5 26.001 -27.5s13.834 -24.333 18.501 -40s7 -34.5 7 -56.5s-3.83301 -42.667 -11.5 -62s-18.667 -36.5 -33 -51.5
s-31.666 -26.833 -51.999 -35.5s-42.833 -13 -67.5 -13c-28.667 0 -53.167 4.33301 -73.5 13s-37.166 20 -50.499 34c-4 -2 -9.16699 -5 -15.5 -9s-12.666 -9.33301 -18.999 -16s-11.833 -14.834 -16.5 -24.501s-7 -21.167 -7 -34.5c0 -21.333 6.83301 -38 20.5 -50
s28.834 -18 45.501 -18h184c43.333 0 78.5 -10 105.5 -30s40.5 -52.667 40.5 -98c0 -21.333 -4.83301 -42 -14.5 -62s-23.167 -37.5 -40.5 -52.5s-38.5 -27 -63.5 -36s-52.833 -13.5 -83.5 -13.5c-34 0 -63.5 5 -88.5 15s-45.667 22.667 -62 38s-28.333 32.333 -36 51
s-11.5 36.667 -11.5 54c0 29.333 7.33301 53.666 22 72.999s30 34 46 44c-10 0 -19.833 2 -29.5 6s-18.5 9.66699 -26.5 17s-14.333 16.166 -19 26.499s-7 22.166 -7 35.499zM239.995 105.003c22.667 0 42.9971 3.83496 60.9971 11.502s33.333 18.167 46 31.5
s22.334 28.666 29.001 45.999s10 35.666 10 54.999c0 33.333 -6 59.666 -18 78.999s-25.333 33.666 -40 42.999c-17.333 11.333 -36.666 18.333 -57.999 21h-30c-23.333 0 -44 -3.83301 -62 -11.5s-33.5 -18 -46.5 -31s-22.833 -28.167 -29.5 -45.5s-10 -35.666 -10 -54.999
c0 -18.667 2.66699 -36.667 8 -54s14 -32.666 26 -45.999s27.333 -24 46 -32s41.334 -12 68.001 -12zM71.9922 -151.995c0 -15.333 3.49805 -31.167 10.498 -47.5s17.833 -31.333 32.5 -45s33.334 -25 56.001 -34s49.667 -13.5 81 -13.5c28.667 0 54.334 4 77.001 12
s42 18.667 58 32s28.167 28.833 36.5 46.5s12.5 36.167 12.5 55.5c0 40 -11.667 68.5 -35 85.5s-54.333 25.5 -93 25.5h-142c-4.66699 -0.666992 -12.167 -3.5 -22.5 -8.5s-20.833 -12.167 -31.5 -21.5s-20 -21.333 -28 -36s-12 -31.667 -12 -51z" />
    <glyph glyph-name="h" unicode="h" horiz-adv-x="496" 
d="M81 693c0 4.66699 2.33398 6.99805 7.00098 6.99805h4c4.66699 0 7 -2.33301 7 -7v-358c6 6.66699 14 14.334 24 23.001s21.5 16.834 34.5 24.501s27.667 14.167 44 19.5s34.166 8 53.499 8c54 0 95.167 -15.833 123.5 -47.5s42.5 -77.834 42.5 -138.501v-217
c0 -4.66699 -2.33301 -7 -7 -7h-4c-4.66699 0 -7 2.33301 -7 7v217c0 54.667 -12.667 96.334 -38 125.001s-62 43 -110 43c-22 0 -42.167 -3.83301 -60.5 -11.5s-34.333 -16.5 -48 -26.5s-24.5 -19.667 -32.5 -29s-13 -15.333 -15 -18v-300c0 -4.66699 -2.33301 -7 -7 -7h-4
c-4.66699 -0 -7 2.33301 -7 7v686z" />
    <glyph glyph-name="i" unicode="i" horiz-adv-x="180" 
d="M91 607c-6 0 -10.833 2 -14.5 6s-5.5 8.66699 -5.5 14s1.83301 10.166 5.5 14.499s8.5 6.5 14.5 6.5c5.33301 0 10 -2.16699 14 -6.5s6 -9.16602 6 -14.499s-2 -10 -6 -14s-8.66699 -6 -14 -6zM81 393c0 4.66699 2.33301 7 7 7h4c4.66699 0 7 -2.33301 7 -7v-386
c0 -4.66699 -2.33301 -7 -7 -7h-4c-4.66699 -0 -7 2.33301 -7 7v386z" />
    <glyph glyph-name="j" unicode="j" horiz-adv-x="180" 
d="M90 607c-6 0 -11 2 -15 6s-6 8.66699 -6 14s2 10.166 6 14.499s9 6.5 15 6.5c5.33301 0 10 -2.16699 14 -6.5s6 -9.16602 6 -14.499s-2 -10 -6 -14s-8.66699 -6 -14 -6zM81 393c0 4.66699 2.33203 7.00098 6.99902 7.00098h4c4.66699 0 7 -2.33301 7 -7v-527
c0 -60.667 -11.833 -105.167 -35.5 -133.5s-58.5 -42.5 -104.5 -42.5c-28 0 -51.5 4.83301 -70.5 14.5s-33.167 19.167 -42.5 28.5c-3.33301 3.33301 -3.33301 6.66602 0 9.99902l3 3c2.66699 2.66699 5.66699 2.66699 9 0c8.66699 -8 21.334 -16.333 38.001 -25
s37.667 -13 63 -13c40 0 70.333 12.833 91 38.5s31 65.5 31 119.5v527z" />
    <glyph glyph-name="k" unicode="k" horiz-adv-x="413" 
d="M81 693c0 4.66699 2.33398 6.99902 7.00098 6.99902h4c4.66699 0 7 -2.33301 7 -7v-462l261 174c3.33301 2 6 1.66699 8 -1l4 -7c2 -3.33301 1.33301 -6 -2 -8l-252 -167l268 -210c3.33301 -3.33301 3.66602 -6.33301 0.999023 -9l-5 -6
c-2 -3.33301 -4.33301 -3.66602 -7 -0.999023l-276 218v-207c0 -4.66699 -2.33301 -7 -7 -7h-4c-4.66699 -0 -7 2.33301 -7 7v686z" />
    <glyph glyph-name="l" unicode="l" horiz-adv-x="180" 
d="M81 693c0 4.66699 2.33301 7 7 7h4c4.66699 0 7 -2.33301 7 -7v-686c0 -4.66699 -2.33301 -7 -7 -7h-4c-4.66699 -0 -7 2.33301 -7 7v686z" />
    <glyph glyph-name="m" unicode="m" horiz-adv-x="763" 
d="M81 393c0 4.66699 2.33594 7.00195 7.00293 7.00195h4c4.66699 0 7 -2.33301 7 -7v-55c5.33301 7.33301 12.333 15.166 21 23.499s19 16.166 31 23.499s25.833 13.333 41.5 18s33.5 7 53.5 7c64.667 0 109.334 -26.667 134.001 -80
c4.66699 6.66699 11.167 14.667 19.5 24s18.666 18.166 30.999 26.499s26.666 15.333 42.999 21s35.166 8.5 56.499 8.5c52 0 91.333 -15.833 118 -47.5s40 -77.834 40 -138.501v-217c0 -4.66699 -2.33301 -7 -7 -7h-4c-4.66699 0 -7 2.33301 -7 7v217
c0 54.667 -11.833 96.334 -35.5 125.001s-58.5 43 -104.5 43c-21.333 0 -40.333 -3.33301 -57 -10s-30.834 -14.5 -42.501 -23.5s-21 -17.833 -28 -26.5s-11.833 -15.334 -14.5 -20.001c4 -12.667 7.16699 -26.167 9.5 -40.5s3.5 -30.166 3.5 -47.499v-217
c0 -4.66699 -2.33301 -7 -7 -7h-4c-4.66699 0 -7 2.33301 -7 7v217c0 54.667 -11.833 96.334 -35.5 125.001s-57.5 43 -101.5 43c-22.667 0 -42.667 -3.5 -60 -10.5s-32 -15.167 -44 -24.5s-21.5 -18.5 -28.5 -27.5s-11.833 -15.5 -14.5 -19.5v-303
c0 -4.66699 -2.33301 -7 -7 -7h-4c-4.66699 -0 -7 2.33301 -7 7v386z" />
    <glyph glyph-name="n" unicode="n" horiz-adv-x="496" 
d="M81 393c0 4.66699 2.33398 7.00098 7.00098 7.00098h4c4.66699 0 7 -2.33301 7 -7v-55c6 6.66699 14 14.167 24 22.5s21.5 16.166 34.5 23.499s27.667 13.5 44 18.5s34.166 7.5 53.499 7.5c54 0 95.167 -15.833 123.5 -47.5s42.5 -77.834 42.5 -138.501v-217
c0 -4.66699 -2.33301 -7 -7 -7h-4c-4.66699 0 -7 2.33301 -7 7v217c0 54.667 -12.667 96.334 -38 125.001s-62 43 -110 43c-22 0 -42.167 -3.83301 -60.5 -11.5s-34.333 -16.167 -48 -25.5s-24.5 -18.5 -32.5 -27.5s-13 -14.833 -15 -17.5v-303
c0 -4.66699 -2.33301 -7 -7 -7h-4c-4.66699 -0 -7 2.33301 -7 7v386z" />
    <glyph glyph-name="o" unicode="o" horiz-adv-x="508" 
d="M51 201c0 28.667 5.16699 55.834 15.5 81.501s24.666 47.834 42.999 66.501s39.833 33.5 64.5 44.5s51.334 16.5 80.001 16.5s55.334 -5.5 80.001 -16.5s46.167 -25.833 64.5 -44.5s32.666 -40.834 42.999 -66.501s15.5 -52.834 15.5 -81.501
c0 -29.333 -5.16699 -56.833 -15.5 -82.5s-24.666 -48 -42.999 -67s-39.833 -34 -64.5 -45s-51.334 -16.5 -80.001 -16.5s-55.334 5.5 -80.001 16.5s-46.167 26 -64.5 45s-32.666 41.333 -42.999 67s-15.5 53.167 -15.5 82.5zM69 201
c0 -27.333 4.83301 -52.666 14.5 -75.999s22.667 -43.666 39 -60.999s35.833 -31 58.5 -41s47 -15 73 -15s50.333 5 73 15s42.167 23.667 58.5 41s29.333 37.666 39 60.999s14.5 48.666 14.5 75.999c0 26.667 -4.83301 51.5 -14.5 74.5s-22.667 43.167 -39 60.5
s-35.833 31 -58.5 41s-47 15 -73 15s-50.333 -5 -73 -15s-42.167 -23.667 -58.5 -41s-29.333 -37.5 -39 -60.5s-14.5 -47.833 -14.5 -74.5z" />
    <glyph glyph-name="p" unicode="p" horiz-adv-x="491" 
d="M98 -293c0 -4.66699 -2.33203 -6.99805 -6.99902 -6.99805h-4c-4 0 -6 2.33301 -6 7v686c0 4.66699 2 7 6 7h4c4.66699 0 7 -2.33301 7 -7v-37c6 5.33301 13.333 11.166 22 17.499s18.834 12.166 30.501 17.499s25.167 9.83301 40.5 13.5s32.333 5.5 51 5.5
c28 0 54.167 -5.33301 78.5 -16s45.166 -25.334 62.499 -44.001s31 -40.667 41 -66s15 -52.666 15 -81.999c0 -30 -4.83301 -58 -14.5 -84s-23.334 -48.5 -41.001 -67.5s-39.167 -33.833 -64.5 -44.5s-54 -16 -86 -16c-32.667 0 -60.5 5.83301 -83.5 17.5
s-40.167 22.5 -51.5 32.5v-333zM98.001 67.002c1.33301 -2 5.16895 -6.16699 11.502 -12.5s15.333 -13 27 -20s25.5 -13.167 41.5 -18.5s34.333 -8 55 -8c29.333 0 55.666 5 78.999 15s43.166 23.667 59.499 41s28.833 37.833 37.5 61.5s13 49.167 13 76.5
c0 26.667 -4.5 51.667 -13.5 75s-21.5 43.5 -37.5 60.5s-35 30.333 -57 40s-46 14.5 -72 14.5c-22.667 0 -42.667 -2.83301 -60 -8.5s-32 -12.167 -44 -19.5s-21.333 -14.5 -28 -21.5s-10.667 -11.5 -12 -13.5v-262z" />
    <glyph glyph-name="q" unicode="q" horiz-adv-x="491" 
d="M52 202c0 29.333 5.16699 56.666 15.5 81.999s24.666 47.333 42.999 66s39.833 33.334 64.5 44.001s51 16 79 16c18 0 34.333 -1.83301 49 -5.5s27.667 -8.33398 39 -14.001s21.166 -11.667 29.499 -18s15.5 -12.166 21.5 -17.499v38c0 4.66699 2.33301 7 7 7h4
c4 0 6 -2.33301 6 -7v-686c0 -4.66699 -2 -7 -6 -7h-4c-4.66699 0 -7 2.33301 -7 7v334c-11.333 -10 -28.166 -21 -50.499 -33s-50.166 -18 -83.499 -18c-32 0 -60.667 5.33301 -86 16s-47 25.5 -65 44.5s-31.833 41.5 -41.5 67.5s-14.5 54 -14.5 84zM69 202
c0 -27.333 4.33398 -52.834 13.001 -76.501s21.334 -44.167 38.001 -61.5s36.667 -31 60 -41s49.666 -15 78.999 -15c20 0 37.833 2.66699 53.5 8s29.167 11.5 40.5 18.5s20.333 13.833 27 20.5l13 13v260c-1.33301 2 -5 6.33301 -11 13s-14.667 13.834 -26 21.501
s-25.5 14.5 -42.5 20.5s-36.833 9 -59.5 9c-26 0 -50.167 -4.83301 -72.5 -14.5s-41.833 -23 -58.5 -40s-29.834 -37.167 -39.501 -60.5s-14.5 -48.333 -14.5 -75z" />
    <glyph glyph-name="r" unicode="r" horiz-adv-x="314" 
d="M81 393c0 4.66699 2.33398 6.99902 7.00098 6.99902h4c4.66699 0 7 -2.33301 7 -7v-53c4.66699 6.66699 11 14.167 19 22.5s17.5 16 28.5 23s23.333 12.833 37 17.5s28.834 7 45.501 7c12 0 22.667 -1 32 -3s17 -4 23 -6c7.33301 -2.66699 13.666 -5.66699 18.999 -9
c4 -2.66699 4.66699 -5.66699 2 -9l-3 -5c-2 -3.33301 -5 -4 -9 -2c-4.66699 2.66699 -10.334 5.33398 -17.001 8.00098c-5.33301 2 -12 3.83301 -20 5.5s-17 2.5 -27 2.5c-20 0 -37.667 -3.66699 -53 -11s-28.5 -15.833 -39.5 -25.5s-19.5 -19 -25.5 -28
s-10 -14.833 -12 -17.5v-303c0 -4.66699 -2.33301 -7 -7 -7h-4c-4.66699 -0 -7 2.33301 -7 7v386z" />
    <glyph glyph-name="s" unicode="s" horiz-adv-x="381" 
d="M61 35c-2.66699 2 -3.66504 4.33008 -2.99805 6.99707l5 7c2 2.66699 5 2.66699 9 0c10 -8 24.833 -16.833 44.5 -26.5s45.167 -14.5 76.5 -14.5c18 0 34.667 2.33301 50 7s28.666 11.167 39.999 19.5s20.166 18 26.499 29s9.5 23.167 9.5 36.5
c0 14 -3.5 26.167 -10.5 36.5s-16.667 19.166 -29 26.499s-26.666 13.833 -42.999 19.5s-33.833 11.167 -52.5 16.5c-44.667 12.667 -77.834 26.834 -99.501 42.501s-32.5 37.5 -32.5 65.5c0 11.333 2.66699 23 8 35s13.5 23 24.5 33s25 18.333 42 25s37.167 10 60.5 10
c27.333 0 50.666 -3.66699 69.999 -11s34 -14.333 44 -21c3.33301 -2 4 -4.66699 2 -8l-3 -5c-1.33301 -1.33301 -2.5 -2.33301 -3.5 -3s-2.83301 -0.333984 -5.5 0.999023c-9.33301 6 -23 12.333 -41 19s-39 10 -63 10c-20.667 0 -38.334 -2.66699 -53.001 -8
s-26.667 -12.166 -36 -20.499s-16.166 -17.5 -20.499 -27.5s-6.5 -19.667 -6.5 -29c0 -23.333 9.83301 -41.5 29.5 -54.5s48.834 -25.167 87.501 -36.5l57.5 -18c18.333 -6 34.333 -13.167 48 -21.5s24.667 -18.666 33 -30.999s12.5 -27.5 12.5 -45.5
c0 -15.333 -3.83301 -29.666 -11.5 -42.999s-18 -25 -31 -35s-28.5 -17.833 -46.5 -23.5s-37 -8.5 -57 -8.5c-34.667 0 -62.5 5.33301 -83.5 16s-37.167 20.334 -48.5 29.001z" />
    <glyph glyph-name="t" unicode="t" horiz-adv-x="315" 
d="M87 382h-42c-4 0 -6 2.33301 -6 7v4c0 4.66699 2 7 6 7h42v108c0 4.66699 2 7 6 7h4c4.66699 0 7 -2.33301 7 -7v-108h163c4.66699 0 7 -2.33301 7 -7v-4c0 -4.66699 -2.33301 -7 -7 -7h-163v-275c0 -14 0.5 -27 1.5 -39s3.83301 -22.5 8.5 -31.5s11.834 -16 21.501 -21
s23.167 -7.5 40.5 -7.5c10.667 0 21.667 1.16699 33 3.5s22 5.33301 32 9s18.833 7.33398 26.5 11.001s13.167 6.5 16.5 8.5c4 2.66699 6.66699 2 8 -2l3 -6c0.666992 -2.66699 0 -5 -2 -7c-3.33301 -2 -9 -5 -17 -9s-17.333 -8 -28 -12s-22.334 -7.33301 -35.001 -10
s-25 -4 -37 -4c-22 0 -39 3 -51 9s-20.833 14.167 -26.5 24.5s-9 22.666 -10 36.999s-1.5 29.833 -1.5 46.5v275z" />
    <glyph glyph-name="u" unicode="u" horiz-adv-x="486" 
d="M75 393c0 4.66699 2.33398 6.99902 7.00098 6.99902h4c4.66699 0 7 -2.33301 7 -7v-219c0 -54.667 12.667 -96 38 -124s62 -42 110 -42c22.667 0 42.667 3.83301 60 11.5s32.166 16.334 44.499 26.001s22 19 29 28s11.167 14.5 12.5 16.5v303c0 4.66699 2.33301 7 7 7h4
c4.66699 0 7 -2.33301 7 -7v-386c0 -4.66699 -2.33301 -7 -7 -7h-4c-4.66699 -0 -7 2.33301 -7 7v53c-6 -7.33301 -13.5 -15 -22.5 -23s-19.5 -15.5 -31.5 -22.5s-25.667 -12.833 -41 -17.5s-32.333 -7 -51 -7c-54 0 -95.167 15.5 -123.5 46.5s-42.5 76.833 -42.5 137.5v219
z" />
    <glyph glyph-name="v" unicode="v" horiz-adv-x="398" 
d="M16 395c-2 4.66699 -1.66699 7.33398 1 8.00098l7 3c2.66699 1.33301 5 0.333008 7 -3l168 -383l168 383c2 3.33301 4.33301 4.33301 7 3l7 -3c2.66699 -0.666992 3 -3.33398 1 -8.00098l-177 -405c-1.33301 -3.33301 -3.33301 -5 -6 -5s-4.66699 1.66699 -6 5z" />
    <glyph glyph-name="w" unicode="w" horiz-adv-x="596" 
d="M31 396c-1.33301 4 -0.334961 6.66699 2.99805 8l6 2c4 0.666992 6.33301 -0.333008 7 -3l125 -376l119 388c1.33301 3.33301 3.66602 5 6.99902 5s5.66602 -1.66699 6.99902 -5l119 -388l125 376c0.666992 2.66699 3 3.66699 7 3l6 -2c3.33301 -1.33301 4.33301 -4 3 -8
l-134 -408c-1.33301 -3.33301 -3.66602 -5 -6.99902 -5s-5.66602 1.66699 -6.99902 5l-119 387l-119 -387c-1.33301 -3.33301 -3.66602 -5 -6.99902 -5s-5.66602 1.66699 -6.99902 5z" />
    <glyph glyph-name="x" unicode="x" horiz-adv-x="405" 
d="M38 3c-2.66699 2 -3 4.33301 -1 7l154 197l-147 187c-2 2.66699 -1.66699 5 1 7l6 4c2.66699 1.33301 5 1 7 -1l144 -183l145 183c2 2 4.33301 2.33301 7 1l6 -4c2.66699 -2 3 -4.33301 1 -7l-148 -187l155 -197c2 -2.66699 1.66699 -5 -1 -7l-6 -4
c-2.66699 -1.33301 -5 -1 -7 1l-152 193l-151 -193c-2 -2 -4.33301 -2.33301 -7 -1z" />
    <glyph glyph-name="y" unicode="y" horiz-adv-x="422" 
d="M13 395c-2 4.66699 -1.66602 7.33398 1.00098 8.00098l7 3c2.66699 1.33301 5 0.333008 7 -3l188 -376l176 376c2 3.33301 4.33301 4.33301 7 3l7 -3c2.66699 -0.666992 3 -3.33398 1 -8.00098l-326 -696c-2 -4 -4.66699 -5 -8 -3l-5 3
c-2.66699 2 -3.33398 4.66699 -2.00098 8l141 301z" />
    <glyph glyph-name="z" unicode="z" horiz-adv-x="377" 
d="M308 382h-243c-4 0 -6 2.33301 -6 7v4c0 4.66699 2 7 6 7h267c3.33301 0 5.66602 -1.16699 6.99902 -3.5s1 -4.83301 -1 -7.5l-279 -371h262c4.66699 0 7 -2.33301 7 -7v-4c0 -4.66699 -2.33301 -7 -7 -7h-284c-3.33301 0 -5.66602 1.16699 -6.99902 3.5
s-1 4.83301 1 7.5z" />
    <glyph glyph-name="braceleft" unicode="{" horiz-adv-x="333" 
d="M108 103c0 14.667 -2.66895 27.834 -8.00195 39.501s-11.666 21.167 -18.999 28.5s-15.166 13 -23.499 17s-15.833 6 -22.5 6c-4.66699 0 -7 2.33301 -7 7v4c0 4.66699 2.33301 7 7 7c6 0 13.167 1.83301 21.5 5.5s16.333 9.16699 24 16.5s14.167 16.833 19.5 28.5
s8 25.167 8 40.5v165c0 46 5 84.5 15 115.5s23.5 55.833 40.5 74.5s37 32 60 40s47.833 12 74.5 12c4.66699 0 7 -2.33301 7 -7v-4c0 -4.66699 -2.33301 -7 -7 -7c-24 0 -46.5 -3.66699 -67.5 -11s-39.167 -19.666 -54.5 -36.999s-27.5 -40.333 -36.5 -69
s-13.5 -64.334 -13.5 -107.001v-165c0 -26 -6.5 -47.333 -19.5 -64s-26.5 -28.667 -40.5 -36c14 -7.33301 27.5 -19.333 40.5 -36s19.5 -38 19.5 -64v-168c0 -42.667 4.5 -78.5 13.5 -107.5s21.167 -52.333 36.5 -70s33.5 -30.334 54.5 -38.001s43.5 -11.5 67.5 -11.5
c4.66699 0 7 -2.33301 7 -7v-4c0 -4.66699 -2.33301 -7 -7 -7c-26.667 0 -51.5 4.16699 -74.5 12.5s-43 22 -60 41s-30.5 44.167 -40.5 75.5s-15 70 -15 116v168z" />
    <glyph glyph-name="bar" unicode="|" horiz-adv-x="192" 
d="M87 752c0 4.66699 2.33301 7 7 7h4c4.66699 0 7 -2.33301 7 -7v-1045c0 -4.66699 -2.33301 -7 -7 -7h-4c-4.66699 0 -7 2.33301 -7 7v1045z" />
    <glyph glyph-name="braceright" unicode="}" horiz-adv-x="333" 
d="M207 103c0 26 6.5 47.333 19.5 64s26.5 28.667 40.5 36c-14 7.33301 -27.5 19.333 -40.5 36s-19.5 38 -19.5 64v165c0 42.667 -4.5 78.334 -13.5 107.001s-21.167 51.667 -36.5 69s-33.5 29.666 -54.5 36.999s-43.5 11 -67.5 11c-4.66699 0 -7 2.33301 -7 7v4
c0 4.66699 2.33301 7 7 7c26.667 0 51.5 -4 74.5 -12s43 -21.333 60 -40s30.5 -43.5 40.5 -74.5s15 -69.5 15 -115.5v-165c0 -15.333 2.66699 -28.833 8 -40.5s11.833 -21.167 19.5 -28.5s15.667 -12.833 24 -16.5s15.5 -5.5 21.5 -5.5c4.66699 0 7 -2.33301 7 -7v-4
c0 -4.66699 -2.33301 -7 -7 -7c-6.66699 0 -14.167 -2 -22.5 -6s-16.333 -9.66699 -24 -17s-14 -16.833 -19 -28.5s-7.5 -24.834 -7.5 -39.501v-168c0 -46 -5 -84.667 -15 -116s-23.5 -56.5 -40.5 -75.5s-37 -32.667 -60 -41s-47.833 -12.5 -74.5 -12.5
c-4.66699 0 -7 2.33301 -7 7v4c0 4.66699 2.33301 7 7 7c24 0 46.5 3.83301 67.5 11.5s39.167 20.334 54.5 38.001s27.5 41 36.5 70s13.5 64.833 13.5 107.5v168z" />
    <glyph glyph-name="asciitilde" unicode="~" horiz-adv-x="591" 
d="M79 253c-2.66699 2 -3.33105 4.66797 -1.99805 8.00098c9.33301 18 20.333 34.333 33 49c11.333 12 25.166 23.167 41.499 33.5s35.5 15.5 57.5 15.5c12 0 23.167 -2 33.5 -6s19.666 -9 27.999 -15s15.833 -12.833 22.5 -20.5l18 -21.5c10 -13.333 21.833 -26 35.5 -38
s30.5 -18 50.5 -18c19.333 0 36.166 4.5 50.499 13.5s26.5 19.167 36.5 30.5c12 12.667 22 27.334 30 44.001c1.33301 3.33301 3.66602 4.33301 6.99902 3l5 -2c4 -2 5 -4.66699 3 -8c-9.33301 -18.667 -20.333 -35 -33 -49c-11.333 -12.667 -25.166 -24 -41.499 -34
s-35.5 -15 -57.5 -15c-12.667 0 -24 2 -34 6s-19 9 -27 15s-15.333 12.667 -22 20s-12.667 14.666 -18 21.999c-9.33301 12.667 -21 25 -35 37s-31.333 18 -52 18c-19.333 0 -36.166 -4.5 -50.499 -13.5s-26.5 -19.167 -36.5 -30.5c-12 -12.667 -22 -27.334 -30 -44.001
c-2 -4 -4.66699 -5 -8 -3z" />
    <glyph glyph-name="uni00A0" unicode="&#xa0;" horiz-adv-x="213" 
 />
    <glyph glyph-name="exclamdown" unicode="&#xa1;" horiz-adv-x="222" 
d="M111 365c-7.33301 0 -13.166 2.16699 -17.499 6.5s-6.5 9.83301 -6.5 16.5s2.16699 12.334 6.5 17.001s10.166 7 17.499 7c6.66699 0 12.334 -2.33301 17.001 -7s7 -10.334 7 -17.001s-2.33301 -12.167 -7 -16.5s-10.334 -6.5 -17.001 -6.5zM102 133
c0 4.66699 2.33301 7 7 7h4c4.66699 0 7 -2.33301 7 -7v-419c0 -4.66699 -2.33301 -7 -7 -7h-4c-4.66699 0 -7 2.33301 -7 7v419z" />
    <glyph glyph-name="cent" unicode="&#xa2;" horiz-adv-x="461" 
d="M180 3c-20 7.33301 -38.5 17.334 -55.5 30.001s-31.833 27.5 -44.5 44.5s-22.5 36 -29.5 57s-10.5 43.5 -10.5 67.5c0 30 5.66699 57.833 17 83.5s26.666 47.667 45.999 66s42 32.666 68 42.999s53.667 15.5 83 15.5c12 0 23.667 -1 35 -3l10 38
c1.33301 4.66699 4 6.33398 8 5.00098l4 -1c4.66699 -1.33301 6.33398 -4.33301 5.00098 -9l-10 -36c16 -3.33301 30.167 -7.83301 42.5 -13.5s22.833 -11.167 31.5 -16.5c10 -6.66699 19 -13 27 -19c2.66699 -2.66699 2.66699 -5.33398 0 -8.00098l-4 -4
c-3.33301 -3.33301 -6.66602 -3 -9.99902 1c-6.66699 6 -14.667 11.667 -24 17c-8 4.66699 -17.667 9.33398 -29 14.001s-24 8.66699 -38 12l-100 -373c16.667 -4 34 -6 52 -6c22 0 42 3.16699 60 9.5s33.667 13.5 47 21.5c15.333 9.33301 28.666 20 39.999 32
c2.66699 2.66699 5.33398 3 8.00098 1l5 -5c2 -2.66699 2.33301 -4.66699 1 -6c-12 -13.333 -26.333 -25.333 -43 -36c-14 -9.33301 -31 -17.5 -51 -24.5s-42.333 -10.5 -67 -10.5c-18.667 0 -37.667 2.66699 -57 8l-22 -84c-1.33301 -4.66699 -4 -6.33398 -8 -5.00098l-4 1
c-4.66699 1.33301 -6.33398 4.33301 -5.00098 9zM284 390.001c-5.33301 0.666992 -10.333 1.16699 -15 1.5s-9.66699 0.5 -15 0.5c-26.667 0 -52 -4.66699 -76 -14s-45 -22.5 -63 -39.5s-32.167 -37 -42.5 -60s-15.5 -48.5 -15.5 -76.5c0 -44 12.167 -82 36.5 -114
s54.833 -54.667 91.5 -68z" />
    <glyph glyph-name="sterling" unicode="&#xa3;" horiz-adv-x="536" 
d="M82 10c19.333 46 32.667 86.499 40 121.499s11 66.833 11 95.5c0 14.667 -0.833008 29 -2.5 43s-3.83398 27.667 -6.50098 41h-43c-4.66699 0 -7 2.33301 -7 7v4c0 4 2.33301 6 7 6h40l-21 88.5c-6.66699 28.333 -10 59.833 -10 94.5c0 30 5.5 57.167 16.5 81.5
s25.5 45.166 43.5 62.499s38.833 30.833 62.5 40.5s48.167 14.5 73.5 14.5c26.667 0 50.167 -2.66699 70.5 -8s38.166 -11.833 53.499 -19.5s28.166 -15.5 38.499 -23.5s18.5 -15 24.5 -21c2.66699 -3.33301 2.66699 -6.33301 0 -9l-4 -4
c-1.33301 -1.33301 -2.66602 -2.16602 -3.99902 -2.49902s-2.66602 0.166992 -3.99902 1.5c-6 5.33301 -13.833 11.833 -23.5 19.5s-21.5 15.167 -35.5 22.5s-30.667 13.5 -50 18.5s-41.333 7.5 -66 7.5c-23.333 0 -45.666 -4.33301 -66.999 -13
s-40.333 -20.834 -57 -36.501s-30 -34.667 -40 -57s-15 -47.166 -15 -74.499c0 -32 3.33301 -62.667 10 -92s14 -59.666 22 -90.999h240c4.66699 0 7 -2 7 -6v-4c0 -4.66699 -2.33301 -7 -7 -7h-236c2 -13.333 3.66699 -26.833 5 -40.5s2 -28.167 2 -43.5
c0 -28.667 -3.33301 -59.667 -10 -93s-19 -72 -37 -116h350c4.66699 0 7 -2.33301 7 -7v-4c0 -4.66699 -2.33301 -7 -7 -7h-365c-6.66699 -0 -8.66699 3.33301 -6 10z" />
    <glyph glyph-name="currency" unicode="&#xa4;" horiz-adv-x="449" 
d="M108 311c0 -16 2.99902 -31.001 8.99902 -45.001s14.333 -26.167 25 -36.5s23 -18.666 37 -24.999s29 -9.5 45 -9.5c15.333 0 30.166 3.16699 44.499 9.5s26.833 14.666 37.5 24.999s19.167 22.666 25.5 36.999s9.5 29.5 9.5 45.5c0 15.333 -3 30 -9 44
s-14.333 26.333 -25 37s-23 19.167 -37 25.5s-29 9.5 -45 9.5s-31.167 -3.16699 -45.5 -9.5s-26.666 -14.666 -36.999 -24.999s-18.666 -22.666 -24.999 -36.999s-9.5 -29.5 -9.5 -45.5zM62.999 152.999c-2 3.33301 -1.99805 6.66504 0.00195312 9.99805l60 61
c-10.667 12.667 -18.667 26.334 -24 41.001s-8 29.667 -8 45c0 16.667 2.66699 32.667 8 48s13.666 29.666 24.999 42.999l-61 62c-2 3.33301 -2 6.66602 0 9.99902l2 2c3.33301 2 6.66602 2 9.99902 0l62 -62c12.667 11.333 26.5 19.5 41.5 24.5s30.5 7.5 46.5 7.5
c15.333 0 30.666 -2.66699 45.999 -8s29 -13.333 41 -24l63 62c3.33301 2 6.66602 2 9.99902 0l2 -2c2 -3.33301 2 -6.66602 0 -9.99902l-62 -63c22.667 -26 34 -55.333 34 -88c0 -33.333 -10.667 -62.666 -32 -87.999l60 -61c2 -3.33301 2 -6.66602 0 -9.99902l-2 -2
c-3.33301 -2 -6.66602 -2 -9.99902 0l-61 60c-13.333 -11.333 -27.5 -19.666 -42.5 -24.999s-30.5 -8 -46.5 -8s-31.667 2.66699 -47 8s-29.333 13.666 -42 24.999l-61 -60c-3.33301 -2 -6.66602 -2 -9.99902 0z" />
    <glyph glyph-name="yen" unicode="&#xa5;" horiz-adv-x="606" 
d="M125 155c-4 0 -5.99707 2 -5.99707 6v4c0 2 0.666992 3.83301 2 5.5s2.66602 2.16699 3.99902 1.5h169v101h-169c-4 0 -6 2 -6 6v4c0 2 0.666992 3.83301 2 5.5s2.66602 2.16699 3.99902 1.5h169v53l-264 345c-2.66699 3.33301 -2.33398 6.33301 0.999023 9l6 4
c2 1.33301 3.5 1.5 4.5 0.5l3.5 -3.5l258 -339l258 339c2.66699 4 5.33398 5 8.00098 3l6 -4c3.33301 -2.66699 3.66602 -5.66699 0.999023 -9l-264 -344v-54h170c4 0 6 -2.33301 6 -7v-4c0 -4 -2 -6 -6 -6h-170v-101h170c4 0 6 -2.33301 6 -7v-4c0 -4 -2 -6 -6 -6h-170
v-148c0 -4.66699 -2.33301 -7 -7 -7h-4c-4.66699 -0 -7 2.33301 -7 7v148h-169z" />
    <glyph glyph-name="brokenbar" unicode="&#xa6;" horiz-adv-x="358" 
d="M177 384c-4.66699 0 -7 2.33301 -7 7v361c0 4.66699 2.33301 7 7 7h4c4.66699 0 7 -2.33301 7 -7v-361c0 -4.66699 -2.33301 -7 -7 -7h-4zM170 69c0 4 2.33301 6 7 6h4c4.66699 0 7 -2 7 -6v-361c0 -4.66699 -2.33301 -7 -7 -7h-4c-4.66699 0 -7 2.33301 -7 7v361z" />
    <glyph glyph-name="section" unicode="&#xa7;" horiz-adv-x="541" 
d="M79 -120c2 2 4.66797 1.67188 8.00098 -0.995117c2.66699 -3.33301 9.16699 -9 19.5 -17s23.5 -16.167 39.5 -24.5s34.833 -15.833 56.5 -22.5s45.834 -10 72.501 -10c24.667 0 48.5 3.83301 71.5 11.5s43.333 18 61 31s31.667 28.167 42 45.5s15.5 36 15.5 56
c0 25.333 -5 47 -15 65s-23.833 33.667 -41.5 47s-38.834 24.666 -63.501 33.999s-52 17.666 -82 24.999c-29.333 7.33301 -56.666 15.833 -81.999 25.5s-47.333 21.834 -66 36.501s-33.5 32.167 -44.5 52.5s-16.5 44.5 -16.5 72.5c0 19.333 3.83301 38.666 11.5 57.999
s20.167 37.333 37.5 54c-15.333 14 -27 30.333 -35 49s-12 40.667 -12 66c0 20 4 40.5 12 61.5s20.667 40 38 57s39.666 30.833 66.999 41.5s60.666 16 99.999 16c25.333 0 48.166 -2.66699 68.499 -8s38.166 -11.333 53.499 -18c17.333 -7.33301 33.333 -15.666 48 -24.999
c2.66699 -1.33301 3 -3.66602 1 -6.99902l-4 -7c-0.666992 -1.33301 -1.66699 -2.5 -3 -3.5s-3 -0.833008 -5 0.5c-13.333 9.33301 -28.333 17.666 -45 24.999c-14 6 -30.667 11.667 -50 17s-40.666 8 -63.999 8c-36 0 -66.667 -4.83301 -92 -14.5s-46 -22 -62 -37
s-27.667 -32 -35 -51s-11 -37.5 -11 -55.5c0 -24 4.83301 -45.167 14.5 -63.5s23 -34.333 40 -48s37.333 -25.334 61 -35.001s49.834 -17.834 78.501 -24.501c32 -8 61.333 -17 88 -27s49.5 -22.167 68.5 -36.5s33.833 -31.333 44.5 -51s16 -43.5 16 -71.5
c0 -19.333 -5.66699 -38.5 -17 -57.5s-24.333 -35.833 -39 -50.5c17.333 -14 30.666 -30.5 39.999 -49.5s14 -42.5 14 -70.5c0 -22 -5.66699 -42.833 -17 -62.5s-26.5 -36.834 -45.5 -51.501s-41 -26.167 -66 -34.5s-51.167 -12.5 -78.5 -12.5c-28 0 -53.5 3.5 -76.5 10.5
s-43.167 14.833 -60.5 23.5s-31.5 17.167 -42.5 25.5s-18.167 14.166 -21.5 17.499s-3.66602 6.33301 -0.999023 9zM267.001 137.005c30 -7.33301 57.168 -15.499 81.501 -24.499s45.833 -19.833 64.5 -32.5c13.333 12.667 25.333 27.667 36 45s16 34.666 16 51.999
c0 24.667 -5 46 -15 64s-23.833 33.5 -41.5 46.5s-38.834 24.167 -63.501 33.5s-52 17.666 -82 24.999c-29.333 7.33301 -56.333 15.833 -81 25.5s-46.334 21.834 -65.001 36.501c-15.333 -14.667 -26.5 -30.667 -33.5 -48s-10.5 -35 -10.5 -53
c0 -24 4.83301 -45.167 14.5 -63.5s23 -34.166 40 -47.499s37.333 -24.833 61 -34.5s49.834 -17.834 78.501 -24.501z" />
    <glyph glyph-name="dieresis" unicode="&#xa8;" horiz-adv-x="414" 
d="M319 607c-6 0 -10.833 2 -14.5 6s-5.5 8.66699 -5.5 14c0 6 1.83301 11 5.5 15s8.5 6 14.5 6s11 -2 15 -6s6 -9 6 -15c0 -5.33301 -2 -10 -6 -14s-9 -6 -15 -6zM130 607c-6 0 -11 2 -15 6s-6 8.66699 -6 14c0 6 2 11 6 15s9 6 15 6s10.833 -2 14.5 -6s5.5 -9 5.5 -15
c0 -5.33301 -1.83301 -10 -5.5 -14s-8.5 -6 -14.5 -6z" />
    <glyph glyph-name="copyright" unicode="&#xa9;" horiz-adv-x="845" 
d="M61 350c0 50 9.5 96.833 28.5 140.5s44.833 81.667 77.5 114s70.834 58 114.501 77s90.5 28.5 140.5 28.5s96.833 -9.5 140.5 -28.5s82 -44.667 115 -77s59 -70.333 78 -114s28.5 -90.5 28.5 -140.5s-9.5 -96.833 -28.5 -140.5s-45 -81.667 -78 -114
s-71.333 -58 -115 -77s-90.5 -28.5 -140.5 -28.5s-96.833 9.5 -140.5 28.5s-81.834 44.667 -114.501 77s-58.5 70.333 -77.5 114s-28.5 90.5 -28.5 140.5zM79 350c0 -47.333 9 -91.666 27 -132.999s42.5 -77.5 73.5 -108.5s67.333 -55.5 109 -73.5s86.167 -27 133.5 -27
s91.833 9 133.5 27s78.167 42.5 109.5 73.5s56 67.167 74 108.5s27 85.666 27 132.999s-9 91.666 -27 132.999s-42.667 77.5 -74 108.5s-67.833 55.5 -109.5 73.5s-86.167 27 -133.5 27s-91.833 -9 -133.5 -27s-78 -42.5 -109 -73.5s-55.5 -67.167 -73.5 -108.5
s-27 -85.666 -27 -132.999zM239 348c0 26.667 5.00098 51.832 15.001 75.499s23.667 44.167 41 61.5s37.666 31 60.999 41s48.333 15 75 15c20.667 0 41 -3.16699 61 -9.5s38.667 -16.166 56 -29.499c3.33301 -2 4 -4.66699 2 -8l-4 -5c-2 -2.66699 -4.33301 -3 -7 -1
c-16 12.667 -33.333 21.834 -52 27.501s-37.334 8.5 -56.001 8.5c-24 0 -46.667 -4.5 -68 -13.5s-39.833 -21.5 -55.5 -37.5s-28.167 -34.667 -37.5 -56s-14 -44.333 -14 -69c0 -24 4.66699 -46.5 14 -67.5s21.833 -39.5 37.5 -55.5s34.167 -28.5 55.5 -37.5
s44 -13.5 68 -13.5c19.333 0 38 2.83301 56 8.5s35.667 15.834 53 30.501c3.33301 3.33301 6.33301 2.66602 9 -2.00098l3 -5c1.33301 -2.66699 1 -5 -1 -7c-17.333 -15.333 -36 -26.333 -56 -33s-41.333 -10 -64 -10c-26.667 0 -51.667 5 -75 15s-43.666 23.667 -60.999 41
s-31 37.666 -41 60.999s-15 48.333 -15 75z" />
    <glyph glyph-name="ordfeminine" unicode="&#xaa;" horiz-adv-x="336" 
d="M147 401c-29.333 0 -53.665 9 -72.998 27s-29 42.667 -29 74c0 28 11.667 51.333 35 70s54.333 28 93 28c16 0 31.333 -1.33301 46 -4s26.334 -5.66699 35.001 -9v26c0 28 -5.33301 48.167 -16 60.5s-30.334 18.5 -59.001 18.5c-14 0 -26.333 -1.16699 -37 -3.5
s-19.667 -4.83301 -27 -7.5c-8.66699 -2.66699 -16.334 -6 -23.001 -10c-3.33301 -1.33301 -5.66602 -1 -6.99902 1l-3 6c-2.66699 2.66699 -2 5.33398 2 8.00098c7.33301 4.66699 15.666 8.66699 24.999 12c8 3.33301 17.833 6.16602 29.5 8.49902s25.167 3.5 40.5 3.5
c35.333 0 59.666 -8.16699 72.999 -24.5s20 -40.5 20 -72.5v-196c0 -4.66699 -2.33301 -7 -7 -7h-4c-4.66699 0 -7 2.33301 -7 7v25c-11.333 -9.33301 -26.5 -18.5 -45.5 -27.5s-39.5 -13.5 -61.5 -13.5zM147.001 419c12 0 23.668 1.66504 35.001 4.99805
s21.666 7.33301 30.999 12s17.5 9.83398 24.5 15.501s12.5 10.834 16.5 15.501v102c-6 2 -16.5 5 -31.5 9s-31.5 6 -49.5 6c-34 0 -60.833 -7.83301 -80.5 -23.5s-29.5 -35.167 -29.5 -58.5c0 -26.667 8 -47.167 24 -61.5s36 -21.5 60 -21.5z" />
    <glyph glyph-name="guillemotleft" unicode="&#xab;" horiz-adv-x="390" 
d="M196 204c-2 2.66699 -2 5.33301 0 8l122 170c2 3.33301 5 4 9 2l5 -3c3.33301 -2 4 -4.66699 2 -8l-117 -165l117 -167c2 -3.33301 1.33301 -6 -2 -8l-5 -3c-4 -2 -7 -1.33301 -9 2zM36 203.999c-2 2.66699 -2 5.33301 0 8l122 170c2 3.33301 5 4 9 2l5 -3
c3.33301 -2 4 -4.66699 2 -8l-117 -165l117 -167c2 -3.33301 1.33301 -6 -2 -8l-5 -3c-4 -2 -7 -1.33301 -9 2z" />
    <glyph glyph-name="logicalnot" unicode="&#xac;" horiz-adv-x="565" 
d="M88 340c-4.66699 0 -7 2.33301 -7 7v4c0 4.66699 2.33301 7 7 7h389c4.66699 0 7 -2.33301 7 -7v-197c0 -4.66699 -2.33301 -7 -7 -7h-4c-4.66699 0 -7 2.33301 -7 7v186h-378z" />
    <glyph glyph-name="uni00AD" unicode="&#xad;" horiz-adv-x="347" 
d="M52 243c-4 0 -6 2.33301 -6 7v4c0 4.66699 2 7 6 7h243c4 0 6 -2.33301 6 -7v-4c0 -4.66699 -2 -7 -6 -7h-243z" />
    <glyph glyph-name="registered" unicode="&#xae;" horiz-adv-x="845" 
d="M61 350c0 50 9.5 96.833 28.5 140.5s44.833 81.667 77.5 114s70.834 58 114.501 77s90.5 28.5 140.5 28.5s96.833 -9.5 140.5 -28.5s82 -44.667 115 -77s59 -70.333 78 -114s28.5 -90.5 28.5 -140.5s-9.5 -96.833 -28.5 -140.5s-45 -81.667 -78 -114
s-71.333 -58 -115 -77s-90.5 -28.5 -140.5 -28.5s-96.833 9.5 -140.5 28.5s-81.834 44.667 -114.501 77s-58.5 70.333 -77.5 114s-28.5 90.5 -28.5 140.5zM79 350c0 -47.333 9 -91.666 27 -132.999s42.5 -77.5 73.5 -108.5s67.333 -55.5 109 -73.5s86.167 -27 133.5 -27
s91.833 9 133.5 27s78.167 42.5 109.5 73.5s56 67.167 74 108.5s27 85.666 27 132.999s-9 91.666 -27 132.999s-42.667 77.5 -74 108.5s-67.833 55.5 -109.5 73.5s-86.167 27 -133.5 27s-91.833 -9 -133.5 -27s-78 -42.5 -109 -73.5s-55.5 -67.167 -73.5 -108.5
s-27 -85.666 -27 -132.999zM291 532c0 4.66699 2 6.99805 6 6.99805h150c16.667 0 32.834 -2.16699 48.501 -6.5s29.5 -11.166 41.5 -20.499s21.667 -21.166 29 -35.499s11 -31.5 11 -51.5c0 -17.333 -3.16699 -32.833 -9.5 -46.5s-14.5 -25.167 -24.5 -34.5
s-21.5 -16.833 -34.5 -22.5s-26.5 -9.5 -40.5 -11.5l78 -134c2 -2.66699 1.33301 -5 -2 -7l-6 -3c-2.66699 -2 -5.33398 -1 -8.00098 3l-81 140h-2h-139v-136c0 -4.66699 -2.33301 -7 -7 -7h-4c-4 0 -6 2.33301 -6 7v359zM447 325.998
c13.333 0 26.666 2.00098 39.999 6.00098s25.333 10.167 36 18.5s19.334 18.666 26.001 30.999s10 26.833 10 43.5s-3.16699 31.167 -9.5 43.5s-14.833 22.5 -25.5 30.5s-22.667 13.833 -36 17.5s-27 5.5 -41 5.5h-139v-196h139z" />
    <glyph glyph-name="macron" unicode="&#xaf;" horiz-adv-x="414" 
d="M63 607c-4.66699 0 -7 2.33301 -7 7v4c0 4.66699 2.33301 7 7 7h288c4.66699 0 7 -2.33301 7 -7v-4c0 -4.66699 -2.33301 -7 -7 -7h-288z" />
    <glyph glyph-name="degree" unicode="&#xb0;" horiz-adv-x="365" 
d="M183 427c-19.333 0 -37.666 3.66699 -54.999 11s-32.333 17.5 -45 30.5s-22.667 28 -30 45s-11 35.5 -11 55.5c0 19.333 3.66699 37.666 11 54.999s17.333 32.333 30 45s27.667 22.667 45 30s35.666 11 54.999 11s37.5 -3.66699 54.5 -11s32 -17.333 45 -30
s23.167 -27.667 30.5 -45s11 -35.666 11 -54.999c0 -20 -3.66699 -38.5 -11 -55.5s-17.5 -32 -30.5 -45s-28 -23.167 -45 -30.5s-35.167 -11 -54.5 -11zM183 445c16.667 0 32.5 3.16699 47.5 9.5s28 15.166 39 26.499s19.667 24.5 26 39.5s9.5 31.167 9.5 48.5
c0 16.667 -3.16699 32.5 -9.5 47.5s-15 28.167 -26 39.5s-24 20.166 -39 26.499s-30.833 9.5 -47.5 9.5c-17.333 0 -33.5 -3.16699 -48.5 -9.5s-28 -15.166 -39 -26.499s-19.667 -24.5 -26 -39.5s-9.5 -30.833 -9.5 -47.5c0 -17.333 3.16699 -33.5 9.5 -48.5
s15 -28.167 26 -39.5s24 -20.166 39 -26.499s31.167 -9.5 48.5 -9.5z" />
    <glyph glyph-name="plusminus" unicode="&#xb1;" horiz-adv-x="632" 
d="M306 381h-186c-4.66699 0 -7 2.33301 -7 7v4c0 4.66699 2.33301 7 7 7h186v185c0 4.66699 2.33301 7 7 7h4c4.66699 0 7 -2.33301 7 -7v-185h185c4.66699 0 7 -2.33301 7 -7v-4c0 -4.66699 -2.33301 -7 -7 -7h-185v-156c0 -4.66699 -2.33301 -7 -7 -7h-4
c-4.66699 0 -7 2.33301 -7 7v156zM116 96c0 4.66699 2.33301 7 7 7h389c4.66699 0 7 -2.33301 7 -7v-4c0 -4.66699 -2.33301 -7 -7 -7h-389c-4.66699 0 -7 2.33301 -7 7v4z" />
    <glyph glyph-name="uni00B2" unicode="&#xb2;" horiz-adv-x="330" 
d="M69 504c-3.33301 0 -5.66895 1.50195 -7.00195 4.50195s-0.666016 5.5 2.00098 7.5l132 110c15.333 12.667 28.5 26.5 39.5 41.5s16.5 32.167 16.5 51.5c0 18.667 -7.33301 35.5 -22 50.5s-36 22.5 -64 22.5c-13.333 0 -24.666 -1.83301 -33.999 -5.5
s-17 -7.83398 -23 -12.501c-7.33301 -5.33301 -13 -11.333 -17 -18c-2 -4.66699 -5 -5.66699 -9 -3l-5 4l-2.5 2.5c-1 1 -0.833008 2.83301 0.5 5.5c5.33301 8 12.333 15.333 21 22c7.33301 5.33301 16.666 10.5 27.999 15.5s25 7.5 41 7.5c16.667 0 31.5 -2.5 44.5 -7.5
s23.833 -11.833 32.5 -20.5s15.334 -18.334 20.001 -29.001s7 -22 7 -34c0 -20 -5.83301 -38.5 -17.5 -55.5s-26.5 -33.167 -44.5 -48.5l-112 -93h165c4 0 6 -2.33301 6 -7v-4c0 -4.66699 -2 -7 -6 -7h-192z" />
    <glyph glyph-name="uni00B3" unicode="&#xb3;" horiz-adv-x="334" 
d="M170 494c-15.333 0 -29 1.66797 -41 5.00098s-22.333 7.33301 -31 12s-16 9.33398 -22 14.001s-10.333 8.33398 -13 11.001c-3.33301 3.33301 -3.33301 6.66602 0 9.99902l3 3c3.33301 3.33301 6.66602 3.33301 9.99902 0c2.66699 -2 6.33398 -5.16699 11.001 -9.5
s10.667 -8.5 18 -12.5s16.5 -7.5 27.5 -10.5s23.833 -4.5 38.5 -4.5c29.333 0 52.333 6.5 69 19.5s25 29.5 25 49.5c0 17.333 -7.33301 32.5 -22 45.5s-35 19.5 -61 19.5h-65c-4.66699 0 -7 2.33301 -7 7v4c0 4.66699 2.33301 7 7 7h65c21.333 0 39 6.33301 53 19
s21 28 21 46c0 19.333 -7.16699 34.666 -21.5 45.999s-34.166 17 -59.499 17c-15.333 0 -28.333 -1.83301 -39 -5.5s-19.667 -7.83398 -27 -12.501c-8 -5.33301 -15 -11.333 -21 -18c-2.66699 -2.66699 -5 -3 -7 -1l-5 4c-2.66699 2 -4 3.66699 -4 5
s0.666992 2.66602 2 3.99902c6.66699 7.33301 15 14.333 25 21c8.66699 5.33301 19.167 10.166 31.5 14.499s27.166 6.5 44.499 6.5c30 0 54.167 -7.16699 72.5 -21.5s27.5 -34.166 27.5 -59.499c0 -15.333 -5.33301 -29.833 -16 -43.5s-22.667 -23.5 -36 -29.5
c18 -6 32.667 -16 44 -30s17 -29 17 -45c0 -25.333 -10.5 -46.166 -31.5 -62.499s-48.5 -24.5 -82.5 -24.5z" />
    <glyph glyph-name="acute" unicode="&#xb4;" horiz-adv-x="302" 
d="M63 560c-4 -2 -7 -1 -9 3l-2 5c-1.33301 2.66699 -0.333008 5 3 7l182 91c1.33301 0.666992 2.83301 1 4.5 1s3.16699 -1.33301 4.5 -4l2 -4c2 -4 1 -7 -3 -9z" />
    <glyph glyph-name="uni00B5" unicode="&#xb5;" horiz-adv-x="504" 
d="M100 -293c0 -4.66699 -2.33008 -7.00098 -6.99707 -7.00098h-4c-4.66699 0 -7 2.33301 -7 7v686c0 4.66699 2.33301 7 7 7h4c4.66699 0 7 -2.33301 7 -7v-219c0 -54.667 12.667 -96 38 -124s62 -42 110 -42c22.667 0 42.667 3.83301 60 11.5s32.166 16.334 44.499 26.001
s22 19 29 28s11.167 14.5 12.5 16.5v303c0 4.66699 2.33301 7 7 7h4c4.66699 0 7 -2.33301 7 -7v-386c0 -4.66699 -2.33301 -7 -7 -7h-4c-4.66699 -0 -7 2.33301 -7 7v53c-6 -7.33301 -13.5 -15 -22.5 -23s-19.5 -15.5 -31.5 -22.5s-25.667 -12.833 -41 -17.5
s-32.333 -7 -51 -7c-36.667 0 -67.834 7.16699 -93.501 21.5s-43.834 36.5 -54.501 66.5v-371z" />
    <glyph glyph-name="paragraph" unicode="&#xb6;" horiz-adv-x="669" 
d="M241 274c-29.333 0 -56.8369 5.5 -82.5039 16.5s-48.167 26.167 -67.5 45.5s-34.666 42 -45.999 68s-17 54 -17 84c0 29.333 5.16699 56.833 15.5 82.5s24.333 48.167 42 67.5s38.667 34.5 63 45.5s50.5 16.5 78.5 16.5h414c4.66699 0 7 -2.33301 7 -7v-4
c0 -4.66699 -2.33301 -7 -7 -7h-100v-975c0 -4.66699 -2.33301 -7 -7 -7h-4c-4.66699 0 -7 2.33301 -7 7v975h-193v-975c0 -4.66699 -2.33301 -7 -7 -7h-4c-4 0 -6 2.33301 -6 7v975h-86c-25.333 0 -49 -5.16699 -71 -15.5s-41.167 -24.166 -57.5 -41.499
s-29.166 -37.833 -38.499 -61.5s-14 -48.834 -14 -75.501c0 -28 5.16699 -54 15.5 -78s24.333 -44.833 42 -62.5s38.334 -31.5 62.001 -41.5s48.834 -15 75.501 -15c4.66699 0 7 -2.33301 7 -7v-4c0 -4 -2.33301 -6 -7 -6z" />
    <glyph glyph-name="periodcentered" unicode="&#xb7;" horiz-adv-x="258" 
d="M129 238c-6.66699 0 -12.334 2.33301 -17.001 7s-7 10.334 -7 17.001s2.33301 12.167 7 16.5s10.334 6.5 17.001 6.5c7.33301 0 13.166 -2.16699 17.499 -6.5s6.5 -9.83301 6.5 -16.5s-2.16699 -12.334 -6.5 -17.001s-10.166 -7 -17.499 -7z" />
    <glyph glyph-name="cedilla" unicode="&#xb8;" horiz-adv-x="247" 
d="M88 -6c0 4 2 6.00098 6 6.00098h6c3.33301 0 5 -2 5 -6v-48c14.667 -1.33301 28.667 -4 42 -8s25 -9.66699 35 -17s17.833 -16.5 23.5 -27.5s8.5 -23.833 8.5 -38.5c0 -24 -8.5 -45 -25.5 -63s-38.833 -27 -65.5 -27c-17.333 0 -32.5 3.33301 -45.5 10
s-23.833 14.667 -32.5 24c-3.33301 2.66699 -3.33301 5.66699 0 9l6 5c3.33301 2 6.33301 1.66699 9 -1c7.33301 -8 16 -14.833 26 -20.5s22.333 -8.5 37 -8.5c22 0 39.5 7.16699 52.5 21.5s19.5 31.166 19.5 50.499c0 12.667 -2.83301 23.5 -8.5 32.5
s-13.167 16.333 -22.5 22s-20 10 -32 13s-24.667 5.16699 -38 6.5c-4 0 -6 2 -6 6v59z" />
    <glyph glyph-name="uni00B9" unicode="&#xb9;" horiz-adv-x="181" 
d="M103 504c-4.66699 0 -7.00098 2.33203 -7.00098 6.99902v266l-55 -41c-3.33301 -2 -6 -1.66699 -8 1l-5 7c-1.33301 2.66699 -0.666016 5 2.00098 7l73 53c2.66699 2 5.16699 2.33301 7.5 1s3.5 -3.66602 3.5 -6.99902v-287c0 -4.66699 -2.33301 -7 -7 -7h-4z" />
    <glyph glyph-name="ordmasculine" unicode="&#xba;" horiz-adv-x="337" 
d="M168 394c-38 0 -67.667 14.167 -89 42.5s-32 66.833 -32 115.5c0 49.333 10.667 88 32 116s51 42 89 42s67.833 -14 89.5 -42s32.5 -66.667 32.5 -116c0 -48.667 -10.833 -87.167 -32.5 -115.5s-51.5 -42.5 -89.5 -42.5zM168 412c33.333 0 59 12.333 77 37s27 59 27 103
s-9 78.5 -27 103.5s-43.667 37.5 -77 37.5c-32.667 0 -58.167 -12.5 -76.5 -37.5s-27.5 -59.5 -27.5 -103.5s9.16699 -78.333 27.5 -103s43.833 -37 76.5 -37z" />
    <glyph glyph-name="guillemotright" unicode="&#xbb;" horiz-adv-x="390" 
d="M333 208l-117 165.001c-2.66699 3.33301 -2 6 2 8l5 3c4 2 7 1.33301 9 -2l122 -170c2 -2.66699 2 -5.33398 0 -8.00098l-122 -172c-2 -3.33301 -5 -4 -9 -2l-5 3c-4 2 -4.66699 4.66699 -2 8zM58 33.001c-4 2 -4.66699 4.66797 -2 8.00098l117 167l-117 165
c-2.66699 3.33301 -2 6 2 8l5 3c4 2 7 1.33301 9 -2l122 -170c2 -2.66699 2 -5.33398 0 -8.00098l-122 -172c-2 -3.33301 -5 -4 -9 -2z" />
    <glyph glyph-name="onequarter" unicode="&#xbc;" horiz-adv-x="637" 
d="M130 404c-4.66699 0 -7.00098 2.33203 -7.00098 6.99902v266l-55 -41c-3.33301 -2 -6 -1.66699 -8 1l-5 7c-1.33301 2.66699 -0.666016 5 2.00098 7l73 53c2.66699 2 5.16699 2.33301 7.5 1s3.5 -3.66602 3.5 -6.99902v-287c0 -4.66699 -2.33301 -7 -7 -7h-4z
M482.999 697.999c2 2.66699 4.66602 3 7.99902 1l6 -3c1.33301 -0.666992 2.33301 -1.5 3 -2.5s0.333984 -2.83301 -0.999023 -5.5l-417 -686c-2.66699 -3.33301 -5 -4.33301 -7 -3l-8 5c-2.66699 2 -3 4.66699 -1 8zM508.998 301.999c2.66699 2 5.33301 2.5 8 1.5
s4 -3.16699 4 -6.5v-212h50c4.66699 0 7 -2.33301 7 -7v-4c0 -4 -2.33301 -6 -7 -6h-50v-61c0 -4.66699 -2.33301 -7 -7 -7h-4c-4.66699 0 -7 2.33301 -7 7v61h-192c-3.33301 0 -5.5 1.16699 -6.5 3.5s-0.5 4.83301 1.5 7.5zM502.997 84.999v185l-170 -185h170z" />
    <glyph glyph-name="onehalf" unicode="&#xbd;" horiz-adv-x="625" 
d="M130 404c-4.66699 0 -7.00098 2.33203 -7.00098 6.99902v266l-55 -41c-3.33301 -2 -6 -1.66699 -8 1l-5 7c-1.33301 2.66699 -0.666016 5 2.00098 7l73 53c2.66699 2 5.16699 2.33301 7.5 1s3.5 -3.66602 3.5 -6.99902v-287c0 -4.66699 -2.33301 -7 -7 -7h-4z
M482.999 697.999c2 2.66699 4.66602 3 7.99902 1l6 -3c1.33301 -0.666992 2.33301 -1.5 3 -2.5s0.333984 -2.83301 -0.999023 -5.5l-417 -686c-2.66699 -3.33301 -5 -4.33301 -7 -3l-8 5c-2.66699 2 -3 4.66699 -1 8zM478.998 121.999
c15.333 12.667 28.4971 26.502 39.4971 41.502s16.5 32.167 16.5 51.5c0 18.667 -7.33301 35.5 -22 50.5s-36 22.5 -64 22.5c-13.333 0 -24.666 -1.83301 -33.999 -5.5s-17 -7.83398 -23 -12.501c-7.33301 -5.33301 -13 -11.333 -17 -18c-2 -4.66699 -5 -5.66699 -9 -3l-5 4
l-2.5 2.5c-1 1 -0.833008 2.83301 0.5 5.5c5.33301 8 12.333 15.333 21 22c7.33301 5.33301 16.666 10.5 27.999 15.5s25 7.5 41 7.5c16.667 0 31.5 -2.5 44.5 -7.5s23.833 -11.833 32.5 -20.5s15.334 -18.334 20.001 -29.001s7 -22 7 -34c0 -20 -5.83301 -38.5 -17.5 -55.5
s-26.5 -33.167 -44.5 -48.5l-112 -93h165c4 0 6 -2.33301 6 -7v-4c0 -4.66699 -2 -7 -6 -7h-192c-3.33301 0 -5.66602 1.5 -6.99902 4.5s-0.666016 5.5 2.00098 7.5z" />
    <glyph glyph-name="threequarters" unicode="&#xbe;" horiz-adv-x="695" 
d="M162 394c-15.333 0 -29 1.66797 -41 5.00098s-22.333 7.33301 -31 12s-16 9.33398 -22 14.001s-10.333 8.33398 -13 11.001c-3.33301 3.33301 -3.33301 6.66602 0 9.99902l3 3c3.33301 3.33301 6.66602 3.33301 9.99902 0c2.66699 -2 6.33398 -5.16699 11.001 -9.5
s10.667 -8.5 18 -12.5s16.5 -7.5 27.5 -10.5s23.833 -4.5 38.5 -4.5c29.333 0 52.333 6.5 69 19.5s25 29.5 25 49.5c0 17.333 -7.33301 32.5 -22 45.5s-35 19.5 -61 19.5h-65c-4.66699 0 -7 2.33301 -7 7v4c0 4.66699 2.33301 7 7 7h65c21.333 0 39 6.33301 53 19
s21 28 21 46c0 19.333 -7.16699 34.666 -21.5 45.999s-34.166 17 -59.499 17c-15.333 0 -28.333 -1.83301 -39 -5.5s-19.667 -7.83398 -27 -12.501c-8 -5.33301 -15 -11.333 -21 -18c-2.66699 -2.66699 -5 -3 -7 -1l-5 4c-2.66699 2 -4 3.66699 -4 5
s0.666992 2.66602 2 3.99902c6.66699 7.33301 15 14.333 25 21c8.66699 5.33301 19.167 10.166 31.5 14.499s27.166 6.5 44.499 6.5c30 0 54.167 -7.16699 72.5 -21.5s27.5 -34.166 27.5 -59.499c0 -15.333 -5.33301 -29.833 -16 -43.5s-22.667 -23.5 -36 -29.5
c18 -6 32.667 -16 44 -30s17 -29 17 -45c0 -25.333 -10.5 -46.166 -31.5 -62.499s-48.5 -24.5 -82.5 -24.5zM541 698.001c2 2.66699 4.66602 3 7.99902 1l6 -3c1.33301 -0.666992 2.33301 -1.5 3 -2.5s0.333984 -2.83301 -0.999023 -5.5l-417 -686
c-2.66699 -3.33301 -5 -4.33301 -7 -3l-8 5c-2.66699 2 -3 4.66699 -1 8zM566.999 302.001c2.66699 2 5.33301 2.5 8 1.5s4 -3.16699 4 -6.5v-212h50c4.66699 0 7 -2.33301 7 -7v-4c0 -4 -2.33301 -6 -7 -6h-50v-61c0 -4.66699 -2.33301 -7 -7 -7h-4
c-4.66699 0 -7 2.33301 -7 7v61h-192c-3.33301 0 -5.5 1.16699 -6.5 3.5s-0.5 4.83301 1.5 7.5zM560.998 85.001v185l-170 -185h170z" />
    <glyph glyph-name="questiondown" unicode="&#xbf;" horiz-adv-x="241" 
d="M131 364c-7.33301 0 -13.166 2.16699 -17.499 6.5s-6.5 9.83301 -6.5 16.5s2.16699 12.334 6.5 17.001s10.166 7 17.499 7c6.66699 0 12.167 -2.33301 16.5 -7s6.5 -10.334 6.5 -17.001s-2.16699 -12.167 -6.5 -16.5s-9.83301 -6.5 -16.5 -6.5zM78 13l15.498 8.99902
c5.66699 3.33301 10.834 7.5 15.501 12.5s8.66699 10.833 12 17.5s5 15 5 25v60c0 4.66699 2.33301 7 7 7h4c4.66699 0 7 -2.33301 7 -7v-60c0 -12 -2.16699 -22.5 -6.5 -31.5s-9.5 -16.5 -15.5 -22.5s-12.333 -11.167 -19 -15.5s-12.334 -7.83301 -17.001 -10.5
c-11.333 -6 -24.333 -13.833 -39 -23.5s-28.5 -21.167 -41.5 -34.5s-24 -28.333 -33 -45s-13.5 -35.334 -13.5 -56.001c0 -18 3.83301 -35 11.5 -51s18.667 -29.667 33 -41s31.5 -20.333 51.5 -27s42 -10 66 -10c30 0 55.833 4.16699 77.5 12.5s39.5 17.833 53.5 28.5
c16.667 12 30.334 25.667 41.001 41c2.66699 4 5.33398 4.66699 8.00098 2l5 -4l3 -3c0.666992 -0.666992 0.333984 -2.33398 -0.999023 -5.00098c-12 -17.333 -27 -32.333 -45 -45c-15.333 -11.333 -34.833 -21.666 -58.5 -30.999s-51.5 -14 -83.5 -14
c-26.667 0 -51 3.83301 -73 11.5s-40.833 18 -56.5 31s-27.834 28.5 -36.501 46.5s-13 37.333 -13 58c0 22.667 4.83301 43.334 14.5 62.001s21.5 35.334 35.5 50.001s28.833 27.167 44.5 37.5s29.5 18.833 41.5 25.5z" />
    <glyph glyph-name="Agrave" unicode="&#xc0;" 
d="M316 717c1.33301 2.66699 3 4 5 4h2c2 0 3.66699 -1.33301 5 -4l302 -710c0.666992 -3.33301 -0.333008 -5.33301 -3 -6l-9 -3c-2 -0.666992 -3.66699 0.333008 -5 3l-89 209h-409l-90 -209c-1.33301 -2.66699 -3 -3.66699 -5 -3l-9 3
c-3.33301 0.666992 -4.33301 2.66699 -3 6zM516 227l-194 458l-199 -458h393zM237 868c-4 2 -5 5 -3 9l2 4c1.33301 2.66699 2.83301 4 4.5 4s3.16699 -0.333008 4.5 -1l182 -91c3.33301 -2 4.33301 -4.33301 3 -7l-2 -5c-2 -4 -5 -5 -9 -3z" />
    <glyph glyph-name="Aacute" unicode="&#xc1;" 
d="M316 717c1.33301 2.66699 3 4 5 4h2c2 0 3.66699 -1.33301 5 -4l302 -710c0.666992 -3.33301 -0.333008 -5.33301 -3 -6l-9 -3c-2 -0.666992 -3.66699 0.333008 -5 3l-89 209h-409l-90 -209c-1.33301 -2.66699 -3 -3.66699 -5 -3l-9 3
c-3.33301 0.666992 -4.33301 2.66699 -3 6zM516 227l-194 458l-199 -458h393zM241 778c-4 -2 -7 -1 -9 3l-2 5c-1.33301 2.66699 -0.333008 5 3 7l182 91c1.33301 0.666992 2.83301 1 4.5 1s3.16699 -1.33301 4.5 -4l2 -4c2 -4 1 -7 -3 -9z" />
    <glyph glyph-name="Acircumflex" unicode="&#xc2;" 
d="M316 717c1.33301 2.66699 3 4 5 4h2c2 0 3.66699 -1.33301 5 -4l302 -710c0.666992 -3.33301 -0.333008 -5.33301 -3 -6l-9 -3c-2 -0.666992 -3.66699 0.333008 -5 3l-89 209h-409l-90 -209c-1.33301 -2.66699 -3 -3.66699 -5 -3l-9 3
c-3.33301 0.666992 -4.33301 2.66699 -3 6zM516 227l-194 458l-199 -458h393zM197 763c-2 -1.33301 -3.50293 -1.66602 -4.50293 -0.999023s-1.83301 1.33398 -2.5 2.00098l-4 5c-1.33301 2.66699 -0.666016 5.33398 2.00098 8.00098l129 106
c2.66699 2.66699 5.33398 2.66699 8.00098 0l129 -106c2.66699 -2.66699 3.33398 -5.33398 2.00098 -8.00098l-4 -5c-0.666992 -0.666992 -1.5 -1.33398 -2.5 -2.00098s-2.5 -0.333984 -4.5 0.999023l-124 101z" />
    <glyph glyph-name="Atilde" unicode="&#xc3;" 
d="M316 717c1.33301 2.66699 3 4 5 4h2c2 0 3.66699 -1.33301 5 -4l302 -710c0.666992 -3.33301 -0.333008 -5.33301 -3 -6l-9 -3c-2 -0.666992 -3.66699 0.333008 -5 3l-89 209h-409l-90 -209c-1.33301 -2.66699 -3 -3.66699 -5 -3l-9 3
c-3.33301 0.666992 -4.33301 2.66699 -3 6zM516 227l-194 458l-199 -458h393zM177 804c-4 0.666992 -5 3.66699 -3 9c1.33301 4.66699 3.83301 11.667 7.5 21s8.83398 18.666 15.501 27.999s15.167 17.5 25.5 24.5s22.833 10.5 37.5 10.5c11.333 0 20.833 -2 28.5 -6
s14 -9.16699 19 -15.5s9.16699 -13 12.5 -20l9 -19.5c4 -9.33301 9.83301 -19.333 17.5 -30s19.5 -16 35.5 -16c11.333 0 21 3 29 9s14.667 13 20 21s9.5 16 12.5 24s5.16699 14 6.5 18c1.33301 4.66699 3.66602 6.33398 6.99902 5.00098l8 -2c4 -1.33301 5 -4.33301 3 -9
c-1.33301 -4.66699 -3.83301 -11.667 -7.5 -21s-8.83398 -18.666 -15.501 -27.999s-15.167 -17.5 -25.5 -24.5s-22.833 -10.5 -37.5 -10.5c-11.333 0 -21 2.16699 -29 6.5s-14.667 9.5 -20 15.5s-9.83301 12.5 -13.5 19.5s-6.5 13.167 -8.5 18.5
c-2 4 -4.16699 8.83301 -6.5 14.5s-5.5 11 -9.5 16s-8.83301 9.16699 -14.5 12.5s-12.5 5 -20.5 5c-11.333 0 -21 -3 -29 -9s-14.667 -13 -20 -21s-9.5 -16.167 -12.5 -24.5s-5.16699 -14.5 -6.5 -18.5c-1.33301 -4.66699 -3.66602 -6.33398 -6.99902 -5.00098z" />
    <glyph glyph-name="Adieresis" unicode="&#xc4;" 
d="M316 717c1.33301 2.66699 3 4 5 4h2c2 0 3.66699 -1.33301 5 -4l302 -710c0.666992 -3.33301 -0.333008 -5.33301 -3 -6l-9 -3c-2 -0.666992 -3.66699 0.333008 -5 3l-89 209h-409l-90 -209c-1.33301 -2.66699 -3 -3.66699 -5 -3l-9 3
c-3.33301 0.666992 -4.33301 2.66699 -3 6zM516 227l-194 458l-199 -458h393zM425 810c-6 0 -11 2 -15 6s-6 8.66699 -6 14c0 6 2 11 6 15s9 6 15 6s11 -2 15 -6s6 -9 6 -15c0 -5.33301 -2 -10 -6 -14s-9 -6 -15 -6zM218 810c-6 0 -11 2 -15 6s-6 8.66699 -6 14
c0 6 2 11 6 15s9 6 15 6s11 -2 15 -6s6 -9 6 -15c0 -5.33301 -2 -10 -6 -14s-9 -6 -15 -6z" />
    <glyph glyph-name="Aring" unicode="&#xc5;" 
d="M316 717c1.33301 2.66699 3 4 5 4h2c2 0 3.66699 -1.33301 5 -4l302 -710c0.666992 -3.33301 -0.333008 -5.33301 -3 -6l-9 -3c-2 -0.666992 -3.66699 0.333008 -5 3l-89 209h-409l-90 -209c-1.33301 -2.66699 -3 -3.66699 -5 -3l-9 3
c-3.33301 0.666992 -4.33301 2.66699 -3 6zM516 227l-194 458l-199 -458h393zM322 750c-30 0 -54.833 9.83301 -74.5 29.5s-29.5 44.5 -29.5 74.5c0 29.333 9.83301 54 29.5 74s44.5 30 74.5 30c29.333 0 54 -10 74 -30s30 -44.667 30 -74c0 -30 -10 -54.833 -30 -74.5
s-44.667 -29.5 -74 -29.5zM322 766c12 0 23.1689 2.33301 33.502 7s19.5 11 27.5 19s14.333 17.333 19 28s7 22 7 34s-2.33301 23.333 -7 34s-11 20 -19 28s-17.167 14.333 -27.5 19s-21.5 7 -33.5 7s-23.333 -2.33301 -34 -7s-19.834 -11 -27.501 -19
s-13.834 -17.333 -18.501 -28s-7 -22 -7 -34c0 -24 8.5 -44.667 25.5 -62s37.5 -26 61.5 -26z" />
    <glyph glyph-name="AE" unicode="&#xc6;" horiz-adv-x="936" 
d="M-6 2l-2.99902 2.99902c-0.666992 0.666992 -0.333984 2.33398 0.999023 5.00098l445 682c2 3.33301 4 5.5 6 6.5s5.66699 1.5 11 1.5h398c4.66699 0 7 -2.33301 7 -7v-4c0 -4.66699 -2.33301 -7 -7 -7h-396v-309h348c4.66699 0 7 -2.33301 7 -7v-4
c0 -4.66699 -2.33301 -7 -7 -7h-348v-337h396c4.66699 0 7 -2.33301 7 -7v-4c0 -4.66699 -2.33301 -7 -7 -7h-406c-4.66699 -0 -7 2.33301 -7 7v203h-295l-137 -210c-2 -2.66699 -4.66699 -3 -8 -1zM439.001 226.999v435l-285 -435h285z" />
    <glyph glyph-name="Ccedilla" unicode="&#xc7;" horiz-adv-x="731" 
d="M62 349c0 50 9.50488 97.0029 28.5049 141.003s44.833 82.333 77.5 115s71.167 58.334 115.5 77.001s91.5 28 141.5 28c51.333 0 96.166 -8.33301 134.499 -25s74.5 -39.334 108.5 -68.001c2.66699 -2.66699 3 -5.33398 1 -8.00098l-5 -6
c-2.66699 -2.66699 -5.33398 -2.66699 -8.00098 0c-32.667 28 -67.334 49.833 -104.001 65.5s-79 23.5 -127 23.5s-92.833 -8.83301 -134.5 -26.5s-78.167 -42 -109.5 -73s-56 -67.333 -74 -109s-27 -86.5 -27 -134.5s9 -92.667 27 -134s42.667 -77.333 74 -108
s67.833 -54.834 109.5 -72.501s86.5 -26.5 134.5 -26.5c86 0 163 31 231 93c3.33301 3.33301 6 3.33301 8 0l5 -6c2 -2.66699 2 -5 0 -7c-34.667 -33.333 -72.834 -58 -114.501 -74s-84.834 -24 -129.501 -24c-2.66699 0 -5.16699 0.166992 -7.5 0.5s-4.5 0.5 -6.5 0.5v-45
c14.667 -1.33301 28.667 -4 42 -8s25 -9.66699 35 -17s17.833 -16.5 23.5 -27.5s8.5 -23.833 8.5 -38.5c0 -24 -8.5 -45 -25.5 -63s-38.833 -27 -65.5 -27c-17.333 0 -32.5 3.33301 -45.5 10s-23.833 14.667 -32.5 24c-3.33301 2.66699 -3.33301 5.66699 0 9l6 5
c3.33301 2 6.33301 1.66699 9 -1c7.33301 -8 16 -14.833 26 -20.5s22.333 -8.5 37 -8.5c22 0 39.5 7.16699 52.5 21.5s19.5 31.166 19.5 50.499c0 12.667 -2.83301 23.5 -8.5 32.5s-13.167 16.333 -22.5 22s-20 10 -32 13s-24.667 5.16699 -38 6.5c-4 0 -6 2 -6 6v56
c-46.667 4 -90.167 15.833 -130.5 35.5s-75.5 45.5 -105.5 77.5s-53.5 68.833 -70.5 110.5s-25.5 86.5 -25.5 134.5z" />
    <glyph glyph-name="Egrave" unicode="&#xc8;" horiz-adv-x="610" 
d="M112 693c0 4.66699 2.33301 7 7 7h407c4.66699 0 7 -2.33301 7 -7v-4c0 -4.66699 -2.33301 -7 -7 -7h-396v-309h348c4.66699 0 7 -2.33301 7 -7v-4c0 -4.66699 -2.33301 -7 -7 -7h-348v-337h396c4.66699 0 7 -2.33301 7 -7v-4c0 -4.66699 -2.33301 -7 -7 -7h-407
c-4.66699 -0 -7 2.33301 -7 7v686zM239 868c-4 2 -5 5 -3 9l2 4c1.33301 2.66699 2.83301 4 4.5 4s3.16699 -0.333008 4.5 -1l182 -91c3.33301 -2 4.33301 -4.33301 3 -7l-2 -5c-2 -4 -5 -5 -9 -3z" />
    <glyph glyph-name="Eacute" unicode="&#xc9;" horiz-adv-x="610" 
d="M112 693c0 4.66699 2.33301 7 7 7h407c4.66699 0 7 -2.33301 7 -7v-4c0 -4.66699 -2.33301 -7 -7 -7h-396v-309h348c4.66699 0 7 -2.33301 7 -7v-4c0 -4.66699 -2.33301 -7 -7 -7h-348v-337h396c4.66699 0 7 -2.33301 7 -7v-4c0 -4.66699 -2.33301 -7 -7 -7h-407
c-4.66699 -0 -7 2.33301 -7 7v686zM243 778c-4 -2 -7 -1 -9 3l-2 5c-1.33301 2.66699 -0.333008 5 3 7l182 91c1.33301 0.666992 2.83301 1 4.5 1s3.16699 -1.33301 4.5 -4l2 -4c2 -4 1 -7 -3 -9z" />
    <glyph glyph-name="Ecircumflex" unicode="&#xca;" horiz-adv-x="610" 
d="M112 693c0 4.66699 2.33301 7 7 7h407c4.66699 0 7 -2.33301 7 -7v-4c0 -4.66699 -2.33301 -7 -7 -7h-396v-309h348c4.66699 0 7 -2.33301 7 -7v-4c0 -4.66699 -2.33301 -7 -7 -7h-348v-337h396c4.66699 0 7 -2.33301 7 -7v-4c0 -4.66699 -2.33301 -7 -7 -7h-407
c-4.66699 -0 -7 2.33301 -7 7v686zM198 763c-2 -1.33301 -3.50293 -1.66602 -4.50293 -0.999023s-1.83301 1.33398 -2.5 2.00098l-4 5c-1.33301 2.66699 -0.666016 5.33398 2.00098 8.00098l129 106c2.66699 2.66699 5.33398 2.66699 8.00098 0l129 -106
c2.66699 -2.66699 3.33398 -5.33398 2.00098 -8.00098l-4 -5c-0.666992 -0.666992 -1.5 -1.33398 -2.5 -2.00098s-2.5 -0.333984 -4.5 0.999023l-124 101z" />
    <glyph glyph-name="Edieresis" unicode="&#xcb;" horiz-adv-x="610" 
d="M112 693c0 4.66699 2.33301 7 7 7h407c4.66699 0 7 -2.33301 7 -7v-4c0 -4.66699 -2.33301 -7 -7 -7h-396v-309h348c4.66699 0 7 -2.33301 7 -7v-4c0 -4.66699 -2.33301 -7 -7 -7h-348v-337h396c4.66699 0 7 -2.33301 7 -7v-4c0 -4.66699 -2.33301 -7 -7 -7h-407
c-4.66699 -0 -7 2.33301 -7 7v686zM427 810c-6 0 -11 2 -15 6s-6 8.66699 -6 14c0 6 2 11 6 15s9 6 15 6s11 -2 15 -6s6 -9 6 -15c0 -5.33301 -2 -10 -6 -14s-9 -6 -15 -6zM220 810c-6 0 -11 2 -15 6s-6 8.66699 -6 14c0 6 2 11 6 15s9 6 15 6s11 -2 15 -6s6 -9 6 -15
c0 -5.33301 -2 -10 -6 -14s-9 -6 -15 -6z" />
    <glyph glyph-name="Igrave" unicode="&#xcc;" horiz-adv-x="242" 
d="M112 693c0 4.66699 2.33301 7 7 7h4c4.66699 0 7 -2.33301 7 -7v-686c0 -4.66699 -2.33301 -7 -7 -7h-4c-4.66699 -0 -7 2.33301 -7 7v686zM37 868c-4 2 -5 5 -3 9l2 4c1.33301 2.66699 2.83301 4 4.5 4s3.16699 -0.333008 4.5 -1l182 -91
c3.33301 -2 4.33301 -4.33301 3 -7l-2 -5c-2 -4 -5 -5 -9 -3z" />
    <glyph glyph-name="Iacute" unicode="&#xcd;" horiz-adv-x="242" 
d="M112 693c0 4.66699 2.33301 7 7 7h4c4.66699 0 7 -2.33301 7 -7v-686c0 -4.66699 -2.33301 -7 -7 -7h-4c-4.66699 -0 -7 2.33301 -7 7v686zM40 778c-4 -2 -7 -1 -9 3l-2 5c-1.33301 2.66699 -0.333008 5 3 7l182 91c1.33301 0.666992 2.83301 1 4.5 1
s3.16699 -1.33301 4.5 -4l2 -4c2 -4 1 -7 -3 -9z" />
    <glyph glyph-name="Icircumflex" unicode="&#xce;" horiz-adv-x="242" 
d="M112 693c0 4.66699 2.33301 7 7 7h4c4.66699 0 7 -2.33301 7 -7v-686c0 -4.66699 -2.33301 -7 -7 -7h-4c-4.66699 -0 -7 2.33301 -7 7v686zM-3 763c-2 -1.33301 -3.50293 -1.66602 -4.50293 -0.999023s-1.83301 1.33398 -2.5 2.00098l-4 5
c-1.33301 2.66699 -0.666016 5.33398 2.00098 8.00098l129 106c2.66699 2.66699 5.33398 2.66699 8.00098 0l129 -106c2.66699 -2.66699 3.33398 -5.33398 2.00098 -8.00098l-4 -5c-0.666992 -0.666992 -1.5 -1.33398 -2.5 -2.00098s-2.5 -0.333984 -4.5 0.999023l-124 101z
" />
    <glyph glyph-name="Idieresis" unicode="&#xcf;" horiz-adv-x="242" 
d="M112 693c0 4.66699 2.33301 7 7 7h4c4.66699 0 7 -2.33301 7 -7v-686c0 -4.66699 -2.33301 -7 -7 -7h-4c-4.66699 -0 -7 2.33301 -7 7v686zM225 810c-6 0 -11 2 -15 6s-6 8.66699 -6 14c0 6 2 11 6 15s9 6 15 6s11 -2 15 -6s6 -9 6 -15c0 -5.33301 -2 -10 -6 -14
s-9 -6 -15 -6zM18 810c-6 0 -11 2 -15 6s-6 8.66699 -6 14c0 6 2 11 6 15s9 6 15 6s11 -2 15 -6s6 -9 6 -15c0 -5.33301 -2 -10 -6 -14s-9 -6 -15 -6z" />
    <glyph glyph-name="Eth" unicode="&#xd0;" horiz-adv-x="755" 
d="M114 340l-40 0.000976562c-4.66699 0 -7 2.33301 -7 7v4c0 4.66699 2.33301 7 7 7h40v335c0 4.66699 2.33301 7 7 7h220c48.667 0 94.334 -9.16699 137.001 -27.5s80 -43.166 112 -74.499s57.333 -68.333 76 -111s28 -88 28 -136
c0 -48.667 -9.33301 -94.334 -28 -137.001s-44 -79.834 -76 -111.501s-69.333 -56.667 -112 -75s-88.334 -27.5 -137.001 -27.5h-220c-4.66699 -0 -7 2.33301 -7 7v333zM341 18.001c46 0 89.333 8.66699 130 26s76.167 41 106.5 71s54.333 65.333 72 106s26.5 84 26.5 130
s-8.83301 89 -26.5 129s-41.667 75 -72 105s-65.833 53.667 -106.5 71s-84 26 -130 26h-209v-324h289c4.66699 0 7 -2.33301 7 -7v-4c0 -4.66699 -2.33301 -7 -7 -7h-289v-322h209z" />
    <glyph glyph-name="Ntilde" unicode="&#xd1;" horiz-adv-x="772" 
d="M112 710c0 3.33301 1.66699 5.66602 5 6.99902s6 0.333008 8 -3l517 -689v668c0 4.66699 2.33301 7 7 7h4c4.66699 0 7 -2.33301 7 -7v-701c0 -3.33301 -1.66699 -5.66602 -5 -6.99902s-6 -0.333008 -8 3l-517 689v-670c0 -4.66699 -2.33301 -7 -7 -7h-4
c-4.66699 -0 -7 2.33301 -7 7v703zM264 804c-4 0.666992 -5 3.66699 -3 9c1.33301 4.66699 3.83301 11.667 7.5 21s8.83398 18.666 15.501 27.999s15.167 17.5 25.5 24.5s22.833 10.5 37.5 10.5c11.333 0 20.833 -2 28.5 -6s14 -9.16699 19 -15.5s9.16699 -13 12.5 -20
l9 -19.5c4 -9.33301 9.83301 -19.333 17.5 -30s19.5 -16 35.5 -16c11.333 0 21 3 29 9s14.667 13 20 21s9.5 16 12.5 24s5.16699 14 6.5 18c1.33301 4.66699 3.66602 6.33398 6.99902 5.00098l8 -2c4 -1.33301 5 -4.33301 3 -9c-1.33301 -4.66699 -3.83301 -11.667 -7.5 -21
s-8.83398 -18.666 -15.501 -27.999s-15.167 -17.5 -25.5 -24.5s-22.833 -10.5 -37.5 -10.5c-11.333 0 -21 2.16699 -29 6.5s-14.667 9.5 -20 15.5s-9.83301 12.5 -13.5 19.5s-6.5 13.167 -8.5 18.5c-2 4 -4.16699 8.83301 -6.5 14.5s-5.5 11 -9.5 16
s-8.83301 9.16699 -14.5 12.5s-12.5 5 -20.5 5c-11.333 0 -21 -3 -29 -9s-14.667 -13 -20 -21s-9.5 -16.167 -12.5 -24.5s-5.16699 -14.5 -6.5 -18.5c-1.33301 -4.66699 -3.66602 -6.33398 -6.99902 -5.00098z" />
    <glyph glyph-name="Ograve" unicode="&#xd2;" horiz-adv-x="846" 
d="M62 349c0 50 9.33301 97 28 141s44.334 82.333 77.001 115s71 58.334 115 77.001s91 28 141 28s97 -9.33301 141 -28s82.333 -44.334 115 -77.001s58.5 -71 77.5 -115s28.5 -91 28.5 -141s-9.5 -96.833 -28.5 -140.5s-44.833 -81.667 -77.5 -114s-71 -57.833 -115 -76.5
s-91 -28 -141 -28s-97 9.33301 -141 28s-82.333 44.167 -115 76.5s-58.334 70.333 -77.001 114s-28 90.5 -28 140.5zM80 349c0 -48 8.83301 -92.667 26.5 -134s42 -77.333 73 -108s67.333 -54.834 109 -72.501s86.5 -26.5 134.5 -26.5s92.833 8.83301 134.5 26.5
s78 41.834 109 72.501s55.5 66.667 73.5 108s27 86 27 134s-9 92.833 -27 134.5s-42.5 78 -73.5 109s-67.333 55.333 -109 73s-86.5 26.5 -134.5 26.5s-92.833 -8.83301 -134.5 -26.5s-78 -42 -109 -73s-55.333 -67.333 -73 -109s-26.5 -86.5 -26.5 -134.5zM339 868
c-4 2 -5 5 -3 9l2 4c1.33301 2.66699 2.83301 4 4.5 4s3.16699 -0.333008 4.5 -1l182 -91c3.33301 -2 4.33301 -4.33301 3 -7l-2 -5c-2 -4 -5 -5 -9 -3z" />
    <glyph glyph-name="Oacute" unicode="&#xd3;" horiz-adv-x="846" 
d="M62 349c0 50 9.33301 97 28 141s44.334 82.333 77.001 115s71 58.334 115 77.001s91 28 141 28s97 -9.33301 141 -28s82.333 -44.334 115 -77.001s58.5 -71 77.5 -115s28.5 -91 28.5 -141s-9.5 -96.833 -28.5 -140.5s-44.833 -81.667 -77.5 -114s-71 -57.833 -115 -76.5
s-91 -28 -141 -28s-97 9.33301 -141 28s-82.333 44.167 -115 76.5s-58.334 70.333 -77.001 114s-28 90.5 -28 140.5zM80 349c0 -48 8.83301 -92.667 26.5 -134s42 -77.333 73 -108s67.333 -54.834 109 -72.501s86.5 -26.5 134.5 -26.5s92.833 8.83301 134.5 26.5
s78 41.834 109 72.501s55.5 66.667 73.5 108s27 86 27 134s-9 92.833 -27 134.5s-42.5 78 -73.5 109s-67.333 55.333 -109 73s-86.5 26.5 -134.5 26.5s-92.833 -8.83301 -134.5 -26.5s-78 -42 -109 -73s-55.333 -67.333 -73 -109s-26.5 -86.5 -26.5 -134.5zM343 778
c-4 -2 -7 -1 -9 3l-2 5c-1.33301 2.66699 -0.333008 5 3 7l182 91c1.33301 0.666992 2.83301 1 4.5 1s3.16699 -1.33301 4.5 -4l2 -4c2 -4 1 -7 -3 -9z" />
    <glyph glyph-name="Ocircumflex" unicode="&#xd4;" horiz-adv-x="846" 
d="M62 349c0 50 9.33301 97 28 141s44.334 82.333 77.001 115s71 58.334 115 77.001s91 28 141 28s97 -9.33301 141 -28s82.333 -44.334 115 -77.001s58.5 -71 77.5 -115s28.5 -91 28.5 -141s-9.5 -96.833 -28.5 -140.5s-44.833 -81.667 -77.5 -114s-71 -57.833 -115 -76.5
s-91 -28 -141 -28s-97 9.33301 -141 28s-82.333 44.167 -115 76.5s-58.334 70.333 -77.001 114s-28 90.5 -28 140.5zM80 349c0 -48 8.83301 -92.667 26.5 -134s42 -77.333 73 -108s67.333 -54.834 109 -72.501s86.5 -26.5 134.5 -26.5s92.833 8.83301 134.5 26.5
s78 41.834 109 72.501s55.5 66.667 73.5 108s27 86 27 134s-9 92.833 -27 134.5s-42.5 78 -73.5 109s-67.333 55.333 -109 73s-86.5 26.5 -134.5 26.5s-92.833 -8.83301 -134.5 -26.5s-78 -42 -109 -73s-55.333 -67.333 -73 -109s-26.5 -86.5 -26.5 -134.5zM298 763
c-2 -1.33301 -3.50293 -1.66602 -4.50293 -0.999023s-1.83301 1.33398 -2.5 2.00098l-4 5c-1.33301 2.66699 -0.666016 5.33398 2.00098 8.00098l129 106c2.66699 2.66699 5.33398 2.66699 8.00098 0l129 -106c2.66699 -2.66699 3.33398 -5.33398 2.00098 -8.00098l-4 -5
c-0.666992 -0.666992 -1.5 -1.33398 -2.5 -2.00098s-2.5 -0.333984 -4.5 0.999023l-124 101z" />
    <glyph glyph-name="Otilde" unicode="&#xd5;" horiz-adv-x="846" 
d="M62 349c0 50 9.33301 97 28 141s44.334 82.333 77.001 115s71 58.334 115 77.001s91 28 141 28s97 -9.33301 141 -28s82.333 -44.334 115 -77.001s58.5 -71 77.5 -115s28.5 -91 28.5 -141s-9.5 -96.833 -28.5 -140.5s-44.833 -81.667 -77.5 -114s-71 -57.833 -115 -76.5
s-91 -28 -141 -28s-97 9.33301 -141 28s-82.333 44.167 -115 76.5s-58.334 70.333 -77.001 114s-28 90.5 -28 140.5zM80 349c0 -48 8.83301 -92.667 26.5 -134s42 -77.333 73 -108s67.333 -54.834 109 -72.501s86.5 -26.5 134.5 -26.5s92.833 8.83301 134.5 26.5
s78 41.834 109 72.501s55.5 66.667 73.5 108s27 86 27 134s-9 92.833 -27 134.5s-42.5 78 -73.5 109s-67.333 55.333 -109 73s-86.5 26.5 -134.5 26.5s-92.833 -8.83301 -134.5 -26.5s-78 -42 -109 -73s-55.333 -67.333 -73 -109s-26.5 -86.5 -26.5 -134.5zM278 804
c-4 0.666992 -5 3.66699 -3 9c1.33301 4.66699 3.83301 11.667 7.5 21s8.83398 18.666 15.501 27.999s15.167 17.5 25.5 24.5s22.833 10.5 37.5 10.5c11.333 0 20.833 -2 28.5 -6s14 -9.16699 19 -15.5s9.16699 -13 12.5 -20l9 -19.5c4 -9.33301 9.83301 -19.333 17.5 -30
s19.5 -16 35.5 -16c11.333 0 21 3 29 9s14.667 13 20 21s9.5 16 12.5 24s5.16699 14 6.5 18c1.33301 4.66699 3.66602 6.33398 6.99902 5.00098l8 -2c4 -1.33301 5 -4.33301 3 -9c-1.33301 -4.66699 -3.83301 -11.667 -7.5 -21s-8.83398 -18.666 -15.501 -27.999
s-15.167 -17.5 -25.5 -24.5s-22.833 -10.5 -37.5 -10.5c-11.333 0 -21 2.16699 -29 6.5s-14.667 9.5 -20 15.5s-9.83301 12.5 -13.5 19.5s-6.5 13.167 -8.5 18.5c-2 4 -4.16699 8.83301 -6.5 14.5s-5.5 11 -9.5 16s-8.83301 9.16699 -14.5 12.5s-12.5 5 -20.5 5
c-11.333 0 -21 -3 -29 -9s-14.667 -13 -20 -21s-9.5 -16.167 -12.5 -24.5s-5.16699 -14.5 -6.5 -18.5c-1.33301 -4.66699 -3.66602 -6.33398 -6.99902 -5.00098z" />
    <glyph glyph-name="Odieresis" unicode="&#xd6;" horiz-adv-x="846" 
d="M62 349c0 50 9.33301 97 28 141s44.334 82.333 77.001 115s71 58.334 115 77.001s91 28 141 28s97 -9.33301 141 -28s82.333 -44.334 115 -77.001s58.5 -71 77.5 -115s28.5 -91 28.5 -141s-9.5 -96.833 -28.5 -140.5s-44.833 -81.667 -77.5 -114s-71 -57.833 -115 -76.5
s-91 -28 -141 -28s-97 9.33301 -141 28s-82.333 44.167 -115 76.5s-58.334 70.333 -77.001 114s-28 90.5 -28 140.5zM80 349c0 -48 8.83301 -92.667 26.5 -134s42 -77.333 73 -108s67.333 -54.834 109 -72.501s86.5 -26.5 134.5 -26.5s92.833 8.83301 134.5 26.5
s78 41.834 109 72.501s55.5 66.667 73.5 108s27 86 27 134s-9 92.833 -27 134.5s-42.5 78 -73.5 109s-67.333 55.333 -109 73s-86.5 26.5 -134.5 26.5s-92.833 -8.83301 -134.5 -26.5s-78 -42 -109 -73s-55.333 -67.333 -73 -109s-26.5 -86.5 -26.5 -134.5zM527 810
c-6 0 -11 2 -15 6s-6 8.66699 -6 14c0 6 2 11 6 15s9 6 15 6s11 -2 15 -6s6 -9 6 -15c0 -5.33301 -2 -10 -6 -14s-9 -6 -15 -6zM320 810c-6 0 -11 2 -15 6s-6 8.66699 -6 14c0 6 2 11 6 15s9 6 15 6s11 -2 15 -6s6 -9 6 -15c0 -5.33301 -2 -10 -6 -14s-9 -6 -15 -6z" />
    <glyph glyph-name="multiply" unicode="&#xd7;" horiz-adv-x="432" 
d="M72 207c-1.33301 1.33301 -1.99805 2.83301 -1.99805 4.5s0.666992 3.16699 2 4.5l131 132l-131 131c-2 3.33301 -2 6.66602 0 9.99902l3 3c3.33301 2 6.66602 2 9.99902 0l131 -131l131 131c3.33301 2 6.66602 2 9.99902 0l3 -3c2 -3.33301 2 -6.66602 0 -9.99902
l-131 -131l131 -132c1.33301 -1.33301 2 -2.83301 2 -4.5s-0.666992 -3.16699 -2 -4.5l-3 -3c-1.33301 -1.33301 -2.83301 -2 -4.5 -2s-3.16699 0.666992 -4.5 2l-132 131l-132 -131c-1.33301 -1.33301 -2.83301 -2 -4.5 -2s-3.16699 0.666992 -4.5 2z" />
    <glyph glyph-name="Oslash" unicode="&#xd8;" horiz-adv-x="848" 
d="M88 34c-3.33301 3.33301 -3.33496 6.66406 -0.00195312 9.99707l66 64c-28 32 -50.167 68.5 -66.5 109.5s-24.5 84.833 -24.5 131.5c0 50 9.33301 97 28 141s44.334 82.333 77.001 115s71 58.334 115 77.001s91 28 141 28s96.833 -9.16699 140.5 -27.5
s81.834 -43.833 114.501 -76.5l68 65c2.66699 3.33301 5.66699 3.33301 9 0l3 -3c3.33301 -3.33301 3.33301 -6.66602 0 -9.99902l-68 -65c29.333 -32.667 52.5 -69.667 69.5 -111s25.5 -85.666 25.5 -132.999c0 -50 -9.5 -96.833 -28.5 -140.5s-44.833 -81.667 -77.5 -114
s-71 -57.833 -115 -76.5s-91 -28 -141 -28c-51.333 0 -98.833 9 -142.5 27s-82.167 43.667 -115.5 77l-66 -63c-2.66699 -3.33301 -5.66699 -3.33301 -9 0zM665.998 593.998c-32 30.667 -68.5 54.667 -109.5 72s-85.167 26 -132.5 26c-48 0 -92.833 -8.83301 -134.5 -26.5
s-78 -42 -109 -73s-55.333 -67.333 -73 -109s-26.5 -86.5 -26.5 -134.5c0 -44.667 7.5 -86.5 22.5 -125.5s36.167 -73.5 63.5 -103.5zM179.998 106.998c31.333 -32 67.833 -56.5029 109.5 -73.5029s86.5 -25.5 134.5 -25.5s92.833 8.83301 134.5 26.5s78 41.834 109 72.501
s55.5 66.667 73.5 108s27 86 27 134c0 44.667 -7.83301 86.834 -23.5 126.501s-37.5 74.834 -65.5 105.501z" />
    <glyph glyph-name="Ugrave" unicode="&#xd9;" horiz-adv-x="726" 
d="M103 693c0 4.66699 2.33203 7 6.99902 7h4c4.66699 0 7 -2.33301 7 -7v-441c0 -36 5.5 -69 16.5 -99s26.833 -55.667 47.5 -77s45.834 -38 75.501 -50s63.167 -18 100.5 -18s71 6 101 18s55.5 28.667 76.5 50s37 47 48 77s16.5 63 16.5 99v441c0 4.66699 2.33301 7 7 7h4
c4.66699 0 7 -2.33301 7 -7v-441c0 -38.667 -6 -74 -18 -106s-29.333 -59.5 -52 -82.5s-50 -41 -82 -54s-68 -19.5 -108 -19.5s-75.833 6.5 -107.5 19.5s-58.667 31 -81 54s-39.5 50.5 -51.5 82.5s-18 67.333 -18 106v441zM277.999 868c-4 2 -5 5 -3 9l2 4
c1.33301 2.66699 2.83301 4 4.5 4s3.16699 -0.333008 4.5 -1l182 -91c3.33301 -2 4.33301 -4.33301 3 -7l-2 -5c-2 -4 -5 -5 -9 -3z" />
    <glyph glyph-name="Uacute" unicode="&#xda;" horiz-adv-x="726" 
d="M103 693c0 4.66699 2.33203 7 6.99902 7h4c4.66699 0 7 -2.33301 7 -7v-441c0 -36 5.5 -69 16.5 -99s26.833 -55.667 47.5 -77s45.834 -38 75.501 -50s63.167 -18 100.5 -18s71 6 101 18s55.5 28.667 76.5 50s37 47 48 77s16.5 63 16.5 99v441c0 4.66699 2.33301 7 7 7h4
c4.66699 0 7 -2.33301 7 -7v-441c0 -38.667 -6 -74 -18 -106s-29.333 -59.5 -52 -82.5s-50 -41 -82 -54s-68 -19.5 -108 -19.5s-75.833 6.5 -107.5 19.5s-58.667 31 -81 54s-39.5 50.5 -51.5 82.5s-18 67.333 -18 106v441zM281.999 778c-4 -2 -7 -1 -9 3l-2 5
c-1.33301 2.66699 -0.333008 5 3 7l182 91c1.33301 0.666992 2.83301 1 4.5 1s3.16699 -1.33301 4.5 -4l2 -4c2 -4 1 -7 -3 -9z" />
    <glyph glyph-name="Ucircumflex" unicode="&#xdb;" horiz-adv-x="726" 
d="M103 693c0 4.66699 2.33203 7 6.99902 7h4c4.66699 0 7 -2.33301 7 -7v-441c0 -36 5.5 -69 16.5 -99s26.833 -55.667 47.5 -77s45.834 -38 75.501 -50s63.167 -18 100.5 -18s71 6 101 18s55.5 28.667 76.5 50s37 47 48 77s16.5 63 16.5 99v441c0 4.66699 2.33301 7 7 7h4
c4.66699 0 7 -2.33301 7 -7v-441c0 -38.667 -6 -74 -18 -106s-29.333 -59.5 -52 -82.5s-50 -41 -82 -54s-68 -19.5 -108 -19.5s-75.833 6.5 -107.5 19.5s-58.667 31 -81 54s-39.5 50.5 -51.5 82.5s-18 67.333 -18 106v441zM236.999 763
c-2 -1.33301 -3.50293 -1.66602 -4.50293 -0.999023s-1.83301 1.33398 -2.5 2.00098l-4 5c-1.33301 2.66699 -0.666016 5.33398 2.00098 8.00098l129 106c2.66699 2.66699 5.33398 2.66699 8.00098 0l129 -106c2.66699 -2.66699 3.33398 -5.33398 2.00098 -8.00098l-4 -5
c-0.666992 -0.666992 -1.5 -1.33398 -2.5 -2.00098s-2.5 -0.333984 -4.5 0.999023l-124 101z" />
    <glyph glyph-name="Udieresis" unicode="&#xdc;" horiz-adv-x="726" 
d="M103 693c0 4.66699 2.33203 7 6.99902 7h4c4.66699 0 7 -2.33301 7 -7v-441c0 -36 5.5 -69 16.5 -99s26.833 -55.667 47.5 -77s45.834 -38 75.501 -50s63.167 -18 100.5 -18s71 6 101 18s55.5 28.667 76.5 50s37 47 48 77s16.5 63 16.5 99v441c0 4.66699 2.33301 7 7 7h4
c4.66699 0 7 -2.33301 7 -7v-441c0 -38.667 -6 -74 -18 -106s-29.333 -59.5 -52 -82.5s-50 -41 -82 -54s-68 -19.5 -108 -19.5s-75.833 6.5 -107.5 19.5s-58.667 31 -81 54s-39.5 50.5 -51.5 82.5s-18 67.333 -18 106v441zM465.999 810c-6 0 -11 2 -15 6s-6 8.66699 -6 14
c0 6 2 11 6 15s9 6 15 6s11 -2 15 -6s6 -9 6 -15c0 -5.33301 -2 -10 -6 -14s-9 -6 -15 -6zM258.999 810c-6 0 -11 2 -15 6s-6 8.66699 -6 14c0 6 2 11 6 15s9 6 15 6s11 -2 15 -6s6 -9 6 -15c0 -5.33301 -2 -10 -6 -14s-9 -6 -15 -6z" />
    <glyph glyph-name="Yacute" unicode="&#xdd;" horiz-adv-x="544" 
d="M263 343l-263.999 345c-2.66699 3.33301 -2.33398 6.33301 0.999023 9l6 4c2 1.33301 3.5 1.5 4.5 0.5l3.5 -3.5l258 -339l258 339c2.66699 4 5.33398 5 8.00098 3l6 -4c3.33301 -2.66699 3.66602 -5.66699 0.999023 -9l-264 -344v-337c0 -4.66699 -2.33301 -7 -7 -7h-4
c-4.66699 -0 -7 2.33301 -7 7v336zM186.001 778c-4 -2 -7 -1 -9 3l-2 5c-1.33301 2.66699 -0.333008 5 3 7l182 91c1.33301 0.666992 2.83301 1 4.5 1s3.16699 -1.33301 4.5 -4l2 -4c2 -4 1 -7 -3 -9z" />
    <glyph glyph-name="Thorn" unicode="&#xde;" horiz-adv-x="598" 
d="M112 693c0 4.66699 2.33398 7.00195 7.00098 7.00195h4c4.66699 0 7 -2.33301 7 -7v-115h197c31.333 0 61 -5.83301 89 -17.5s52.333 -27.834 73 -48.501s37 -44.667 49 -72s18 -56.333 18 -87c0 -32 -6 -61.833 -18 -89.5s-28.333 -51.834 -49 -72.501
s-44.834 -37 -72.501 -49s-57.167 -18 -88.5 -18h-198v-117c0 -4.66699 -2.33301 -7 -7 -7h-4c-4.66699 -0 -7 2.33301 -7 7v686zM328.001 141.002c28.667 0 55.834 5.5 81.501 16.5s48 26.167 67 45.5s34 41.833 45 67.5s16.5 53.167 16.5 82.5
c0 28.667 -5.5 55.667 -16.5 81s-26.167 47.5 -45.5 66.5s-41.833 33.833 -67.5 44.5s-52.834 16 -81.501 16h-197v-420h198z" />
    <glyph glyph-name="germandbls" unicode="&#xdf;" horiz-adv-x="569" 
d="M81 410c0 100.667 18.3369 175.837 55.0039 225.504s90 74.5 160 74.5c22 0 43.5 -3 64.5 -9s39.667 -15.167 56 -27.5s29.333 -28.5 39 -48.5s14.5 -44 14.5 -72c0 -22 -4.5 -43 -13.5 -63s-18.833 -38.333 -29.5 -55l-29.5 -46c-9 -14 -13.5 -26 -13.5 -36
c0 -6 3.66699 -12.833 11 -20.5s16.666 -16.167 27.999 -25.5l34.5 -30.5c12.333 -11 23.5 -23.167 33.5 -36.5s18.333 -28.333 25 -45s10 -35.334 10 -56.001c0 -26 -4.83301 -48.5 -14.5 -67.5s-22.5 -34.5 -38.5 -46.5s-34.167 -20.833 -54.5 -26.5
s-41.166 -8.5 -62.499 -8.5c-23.333 0 -44.333 2.66699 -63 8s-30.667 9.33301 -36 12c-3.33301 1.33301 -4.33301 3.66602 -3 6.99902l3 6c2 3.33301 4.66699 4.33301 8 3c4.66699 -2.66699 15.667 -6.33398 33 -11.001s36.666 -7 57.999 -7c18.667 0 37.167 2.5 55.5 7.5
s34.666 12.667 48.999 23s25.833 23.833 34.5 40.5s13 36.667 13 60c0 16.667 -3.16699 32.5 -9.5 47.5s-14.333 29 -24 42s-20.167 24.833 -31.5 35.5l-32 29c-12 10.667 -22.667 20.834 -32 30.501s-14 19.167 -14 28.5c0 11.333 4.5 24.166 13.5 38.499l30 47
c11 17 21 35.167 30 54.5s13.5 39.666 13.5 60.999c0 24.667 -4.33301 45.834 -13 63.501s-20.334 32.167 -35.001 43.5s-31.334 19.5 -50.001 24.5s-38 7.5 -58 7.5c-64 0 -112.833 -23.333 -146.5 -70s-50.5 -117.334 -50.5 -212.001v-403c0 -4.66699 -2.33301 -7 -7 -7
h-4c-4.66699 -0 -7 2.33301 -7 7v403z" />
    <glyph glyph-name="agrave" unicode="&#xe0;" horiz-adv-x="436" 
d="M47 125c0 20 4.16699 38.332 12.5 54.999s20.166 31 35.499 43s33.833 21.5 55.5 28.5s45.834 10.5 72.501 10.5c24.667 0 47.667 -2.83301 69 -8.5s37.666 -10.5 48.999 -14.5v37c0 40 -7.83301 69.333 -23.5 88s-44.834 28 -87.501 28
c-19.333 0 -36.5 -1.66699 -51.5 -5s-27.833 -6.66602 -38.5 -9.99902c-12 -4.66699 -22.667 -9.66699 -32 -15c-2.66699 -1.33301 -4.5 -1.66602 -5.5 -0.999023s-2.16699 1.66699 -3.5 3l-3 5c-1.33301 2.66699 -1.66602 4.5 -0.999023 5.5s1.66699 1.83301 3 2.5
c10 6 21.667 11.333 35 16c11.333 4 25.166 7.83301 41.499 11.5s34.833 5.5 55.5 5.5c48.667 0 82.334 -11 101.001 -33s28 -55.667 28 -101v-269c0 -4.66699 -2.33301 -7 -7 -7h-4c-4.66699 0 -7 2.33301 -7 7v45c-8 -6.66699 -17.333 -13.667 -28 -21
s-22.667 -14 -36 -20s-27.666 -11 -42.999 -15s-31.333 -6 -48 -6c-19.333 0 -37.5 3.16699 -54.5 9.5s-31.833 15.166 -44.5 26.499s-22.5 25.333 -29.5 42s-10.5 35.667 -10.5 57zM65 124.999c0 -37.333 11.665 -66.1689 34.998 -86.502s52 -30.5 86 -30.5
c18 0 35.333 2.5 52 7.5s31.834 11 45.501 18s25.334 14.5 35.001 22.5s17.167 15 22.5 21v144c-3.33301 0.666992 -9 2.33398 -17 5.00098s-17.167 5.33398 -27.5 8.00098s-21.833 5 -34.5 7s-25.667 3 -39 3c-48 0 -86.333 -11.167 -115 -33.5s-43 -50.833 -43 -85.5z
M128.998 649.996c-4 2 -5 5 -3 9l2 4c1.33301 2.66699 2.83301 4 4.5 4s3.16699 -0.333008 4.5 -1l182 -91c3.33301 -2 4.33301 -4.33301 3 -7l-2 -5c-2 -4 -5 -5 -9 -3z" />
    <glyph glyph-name="aacute" unicode="&#xe1;" horiz-adv-x="436" 
d="M47 125c0 20 4.16699 38.332 12.5 54.999s20.166 31 35.499 43s33.833 21.5 55.5 28.5s45.834 10.5 72.501 10.5c24.667 0 47.667 -2.83301 69 -8.5s37.666 -10.5 48.999 -14.5v37c0 40 -7.83301 69.333 -23.5 88s-44.834 28 -87.501 28
c-19.333 0 -36.5 -1.66699 -51.5 -5s-27.833 -6.66602 -38.5 -9.99902c-12 -4.66699 -22.667 -9.66699 -32 -15c-2.66699 -1.33301 -4.5 -1.66602 -5.5 -0.999023s-2.16699 1.66699 -3.5 3l-3 5c-1.33301 2.66699 -1.66602 4.5 -0.999023 5.5s1.66699 1.83301 3 2.5
c10 6 21.667 11.333 35 16c11.333 4 25.166 7.83301 41.499 11.5s34.833 5.5 55.5 5.5c48.667 0 82.334 -11 101.001 -33s28 -55.667 28 -101v-269c0 -4.66699 -2.33301 -7 -7 -7h-4c-4.66699 0 -7 2.33301 -7 7v45c-8 -6.66699 -17.333 -13.667 -28 -21
s-22.667 -14 -36 -20s-27.666 -11 -42.999 -15s-31.333 -6 -48 -6c-19.333 0 -37.5 3.16699 -54.5 9.5s-31.833 15.166 -44.5 26.499s-22.5 25.333 -29.5 42s-10.5 35.667 -10.5 57zM65 124.999c0 -37.333 11.665 -66.1689 34.998 -86.502s52 -30.5 86 -30.5
c18 0 35.333 2.5 52 7.5s31.834 11 45.501 18s25.334 14.5 35.001 22.5s17.167 15 22.5 21v144c-3.33301 0.666992 -9 2.33398 -17 5.00098s-17.167 5.33398 -27.5 8.00098s-21.833 5 -34.5 7s-25.667 3 -39 3c-48 0 -86.333 -11.167 -115 -33.5s-43 -50.833 -43 -85.5z
M134.998 559.996c-4 -2 -7 -1 -9 3l-2 5c-1.33301 2.66699 -0.333008 5 3 7l182 91c1.33301 0.666992 2.83301 1 4.5 1s3.16699 -1.33301 4.5 -4l2 -4c2 -4 1 -7 -3 -9z" />
    <glyph glyph-name="acircumflex" unicode="&#xe2;" horiz-adv-x="436" 
d="M47 125c0 20 4.16699 38.332 12.5 54.999s20.166 31 35.499 43s33.833 21.5 55.5 28.5s45.834 10.5 72.501 10.5c24.667 0 47.667 -2.83301 69 -8.5s37.666 -10.5 48.999 -14.5v37c0 40 -7.83301 69.333 -23.5 88s-44.834 28 -87.501 28
c-19.333 0 -36.5 -1.66699 -51.5 -5s-27.833 -6.66602 -38.5 -9.99902c-12 -4.66699 -22.667 -9.66699 -32 -15c-2.66699 -1.33301 -4.5 -1.66602 -5.5 -0.999023s-2.16699 1.66699 -3.5 3l-3 5c-1.33301 2.66699 -1.66602 4.5 -0.999023 5.5s1.66699 1.83301 3 2.5
c10 6 21.667 11.333 35 16c11.333 4 25.166 7.83301 41.499 11.5s34.833 5.5 55.5 5.5c48.667 0 82.334 -11 101.001 -33s28 -55.667 28 -101v-269c0 -4.66699 -2.33301 -7 -7 -7h-4c-4.66699 0 -7 2.33301 -7 7v45c-8 -6.66699 -17.333 -13.667 -28 -21
s-22.667 -14 -36 -20s-27.666 -11 -42.999 -15s-31.333 -6 -48 -6c-19.333 0 -37.5 3.16699 -54.5 9.5s-31.833 15.166 -44.5 26.499s-22.5 25.333 -29.5 42s-10.5 35.667 -10.5 57zM65 124.999c0 -37.333 11.665 -66.1689 34.998 -86.502s52 -30.5 86 -30.5
c18 0 35.333 2.5 52 7.5s31.834 11 45.501 18s25.334 14.5 35.001 22.5s17.167 15 22.5 21v144c-3.33301 0.666992 -9 2.33398 -17 5.00098s-17.167 5.33398 -27.5 8.00098s-21.833 5 -34.5 7s-25.667 3 -39 3c-48 0 -86.333 -11.167 -115 -33.5s-43 -50.833 -43 -85.5z
M97.998 547.996c-2 -1.33301 -3.50293 -1.66602 -4.50293 -0.999023s-1.83301 1.33398 -2.5 2.00098l-4 5c-1.33301 2.66699 -0.666016 5.33398 2.00098 8.00098l129 106c2.66699 2.66699 5.33398 2.66699 8.00098 0l129 -106
c2.66699 -2.66699 3.33398 -5.33398 2.00098 -8.00098l-4 -5c-0.666992 -0.666992 -1.5 -1.33398 -2.5 -2.00098s-2.5 -0.333984 -4.5 0.999023l-124 101z" />
    <glyph glyph-name="atilde" unicode="&#xe3;" horiz-adv-x="436" 
d="M47 125c0 20 4.16699 38.332 12.5 54.999s20.166 31 35.499 43s33.833 21.5 55.5 28.5s45.834 10.5 72.501 10.5c24.667 0 47.667 -2.83301 69 -8.5s37.666 -10.5 48.999 -14.5v37c0 40 -7.83301 69.333 -23.5 88s-44.834 28 -87.501 28
c-19.333 0 -36.5 -1.66699 -51.5 -5s-27.833 -6.66602 -38.5 -9.99902c-12 -4.66699 -22.667 -9.66699 -32 -15c-2.66699 -1.33301 -4.5 -1.66602 -5.5 -0.999023s-2.16699 1.66699 -3.5 3l-3 5c-1.33301 2.66699 -1.66602 4.5 -0.999023 5.5s1.66699 1.83301 3 2.5
c10 6 21.667 11.333 35 16c11.333 4 25.166 7.83301 41.499 11.5s34.833 5.5 55.5 5.5c48.667 0 82.334 -11 101.001 -33s28 -55.667 28 -101v-269c0 -4.66699 -2.33301 -7 -7 -7h-4c-4.66699 0 -7 2.33301 -7 7v45c-8 -6.66699 -17.333 -13.667 -28 -21
s-22.667 -14 -36 -20s-27.666 -11 -42.999 -15s-31.333 -6 -48 -6c-19.333 0 -37.5 3.16699 -54.5 9.5s-31.833 15.166 -44.5 26.499s-22.5 25.333 -29.5 42s-10.5 35.667 -10.5 57zM65 124.999c0 -37.333 11.665 -66.1689 34.998 -86.502s52 -30.5 86 -30.5
c18 0 35.333 2.5 52 7.5s31.834 11 45.501 18s25.334 14.5 35.001 22.5s17.167 15 22.5 21v144c-3.33301 0.666992 -9 2.33398 -17 5.00098s-17.167 5.33398 -27.5 8.00098s-21.833 5 -34.5 7s-25.667 3 -39 3c-48 0 -86.333 -11.167 -115 -33.5s-43 -50.833 -43 -85.5z
M82.998 584.996c-4 0.666992 -5 3.66699 -3 9c1.33301 4.66699 3.83301 11.667 7.5 21s8.83398 18.666 15.501 27.999s15.167 17.5 25.5 24.5s22.833 10.5 37.5 10.5c11.333 0 20.833 -2 28.5 -6s14 -9.16699 19 -15.5s9.16699 -13 12.5 -20l9 -19.5
c4 -9.33301 9.83301 -19.333 17.5 -30s19.5 -16 35.5 -16c11.333 0 21 3 29 9s14.667 13 20 21s9.5 16 12.5 24s5.16699 14 6.5 18c1.33301 4.66699 3.66602 6.33398 6.99902 5.00098l8 -2c4 -1.33301 5 -4.33301 3 -9c-1.33301 -4.66699 -3.83301 -11.667 -7.5 -21
s-8.83398 -18.666 -15.501 -27.999s-15.167 -17.5 -25.5 -24.5s-22.833 -10.5 -37.5 -10.5c-11.333 0 -21 2.16699 -29 6.5s-14.667 9.5 -20 15.5s-9.83301 12.5 -13.5 19.5s-6.5 13.167 -8.5 18.5c-2 4 -4.16699 8.83301 -6.5 14.5s-5.5 11 -9.5 16
s-8.83301 9.16699 -14.5 12.5s-12.5 5 -20.5 5c-11.333 0 -21 -3 -29 -9s-14.667 -13 -20 -21s-9.5 -16.167 -12.5 -24.5s-5.16699 -14.5 -6.5 -18.5c-1.33301 -4.66699 -3.66602 -6.33398 -6.99902 -5.00098z" />
    <glyph glyph-name="adieresis" unicode="&#xe4;" horiz-adv-x="436" 
d="M47 125c0 20 4.16699 38.332 12.5 54.999s20.166 31 35.499 43s33.833 21.5 55.5 28.5s45.834 10.5 72.501 10.5c24.667 0 47.667 -2.83301 69 -8.5s37.666 -10.5 48.999 -14.5v37c0 40 -7.83301 69.333 -23.5 88s-44.834 28 -87.501 28
c-19.333 0 -36.5 -1.66699 -51.5 -5s-27.833 -6.66602 -38.5 -9.99902c-12 -4.66699 -22.667 -9.66699 -32 -15c-2.66699 -1.33301 -4.5 -1.66602 -5.5 -0.999023s-2.16699 1.66699 -3.5 3l-3 5c-1.33301 2.66699 -1.66602 4.5 -0.999023 5.5s1.66699 1.83301 3 2.5
c10 6 21.667 11.333 35 16c11.333 4 25.166 7.83301 41.499 11.5s34.833 5.5 55.5 5.5c48.667 0 82.334 -11 101.001 -33s28 -55.667 28 -101v-269c0 -4.66699 -2.33301 -7 -7 -7h-4c-4.66699 0 -7 2.33301 -7 7v45c-8 -6.66699 -17.333 -13.667 -28 -21
s-22.667 -14 -36 -20s-27.666 -11 -42.999 -15s-31.333 -6 -48 -6c-19.333 0 -37.5 3.16699 -54.5 9.5s-31.833 15.166 -44.5 26.499s-22.5 25.333 -29.5 42s-10.5 35.667 -10.5 57zM65 124.999c0 -37.333 11.665 -66.1689 34.998 -86.502s52 -30.5 86 -30.5
c18 0 35.333 2.5 52 7.5s31.834 11 45.501 18s25.334 14.5 35.001 22.5s17.167 15 22.5 21v144c-3.33301 0.666992 -9 2.33398 -17 5.00098s-17.167 5.33398 -27.5 8.00098s-21.833 5 -34.5 7s-25.667 3 -39 3c-48 0 -86.333 -11.167 -115 -33.5s-43 -50.833 -43 -85.5z
M324.998 606.996c-6 0 -10.833 2 -14.5 6s-5.5 8.66699 -5.5 14c0 6 1.83301 11 5.5 15s8.5 6 14.5 6s11 -2 15 -6s6 -9 6 -15c0 -5.33301 -2 -10 -6 -14s-9 -6 -15 -6zM135.998 606.996c-6 0 -11 2 -15 6s-6 8.66699 -6 14c0 6 2 11 6 15s9 6 15 6s10.833 -2 14.5 -6
s5.5 -9 5.5 -15c0 -5.33301 -1.83301 -10 -5.5 -14s-8.5 -6 -14.5 -6z" />
    <glyph glyph-name="aring" unicode="&#xe5;" horiz-adv-x="436" 
d="M47 125c0 20 4.16699 38.332 12.5 54.999s20.166 31 35.499 43s33.833 21.5 55.5 28.5s45.834 10.5 72.501 10.5c24.667 0 47.667 -2.83301 69 -8.5s37.666 -10.5 48.999 -14.5v37c0 40 -7.83301 69.333 -23.5 88s-44.834 28 -87.501 28
c-19.333 0 -36.5 -1.66699 -51.5 -5s-27.833 -6.66602 -38.5 -9.99902c-12 -4.66699 -22.667 -9.66699 -32 -15c-2.66699 -1.33301 -4.5 -1.66602 -5.5 -0.999023s-2.16699 1.66699 -3.5 3l-3 5c-1.33301 2.66699 -1.66602 4.5 -0.999023 5.5s1.66699 1.83301 3 2.5
c10 6 21.667 11.333 35 16c11.333 4 25.166 7.83301 41.499 11.5s34.833 5.5 55.5 5.5c48.667 0 82.334 -11 101.001 -33s28 -55.667 28 -101v-269c0 -4.66699 -2.33301 -7 -7 -7h-4c-4.66699 0 -7 2.33301 -7 7v45c-8 -6.66699 -17.333 -13.667 -28 -21
s-22.667 -14 -36 -20s-27.666 -11 -42.999 -15s-31.333 -6 -48 -6c-19.333 0 -37.5 3.16699 -54.5 9.5s-31.833 15.166 -44.5 26.499s-22.5 25.333 -29.5 42s-10.5 35.667 -10.5 57zM65 124.999c0 -37.333 11.665 -66.1689 34.998 -86.502s52 -30.5 86 -30.5
c18 0 35.333 2.5 52 7.5s31.834 11 45.501 18s25.334 14.5 35.001 22.5s17.167 15 22.5 21v144c-3.33301 0.666992 -9 2.33398 -17 5.00098s-17.167 5.33398 -27.5 8.00098s-21.833 5 -34.5 7s-25.667 3 -39 3c-48 0 -86.333 -11.167 -115 -33.5s-43 -50.833 -43 -85.5z
M222.998 499.996c-30 0 -54.833 9.83301 -74.5 29.5s-29.5 44.5 -29.5 74.5c0 29.333 9.83301 54 29.5 74s44.5 30 74.5 30c29.333 0 54 -10 74 -30s30 -44.667 30 -74c0 -30 -10 -54.833 -30 -74.5s-44.667 -29.5 -74 -29.5zM222.998 515.996
c12 0 23.1689 2.33301 33.502 7s19.5 11 27.5 19s14.333 17.333 19 28s7 22 7 34s-2.33301 23.333 -7 34s-11 20 -19 28s-17.167 14.333 -27.5 19s-21.5 7 -33.5 7s-23.333 -2.33301 -34 -7s-19.834 -11 -27.501 -19s-13.834 -17.333 -18.501 -28s-7 -22 -7 -34
c0 -24 8.5 -44.667 25.5 -62s37.5 -26 61.5 -26z" />
    <glyph glyph-name="ae" unicode="&#xe6;" horiz-adv-x="721" 
d="M47 126c0 20 4.16895 38.332 12.502 54.999s20.166 31 35.499 43s33.833 21.333 55.5 28s45.834 10 72.501 10c24.667 0 48.167 -2.83301 70.5 -8.5s39.166 -10.5 50.499 -14.5v37c0 40 -8.16699 69.333 -24.5 88s-45.833 28 -88.5 28c-19.333 0 -36.5 -1.66699 -51.5 -5
s-27.833 -6.66602 -38.5 -9.99902c-12 -4.66699 -23 -9.66699 -33 -15c-4 -2 -7 -1.33301 -9 2l-3 6c-1.33301 3.33301 -0.666016 5.66602 2.00098 6.99902c10 6 21.667 11.333 35 16c11.333 4 25.166 7.83301 41.499 11.5s35.166 5.5 56.499 5.5
c33.333 0 59.666 -5.33301 78.999 -16s33 -26.667 41 -48c17.333 20 37.666 35.667 60.999 47s50.333 17 81 17c26.667 0 51.167 -4.5 73.5 -13.5s41.666 -21.667 57.999 -38s29 -35.833 38 -58.5s13.5 -47.334 13.5 -74.001c0 -3.33301 -0.5 -8.5 -1.5 -15.5
s-2.16699 -11.833 -3.5 -14.5s-3.33301 -4 -6 -4h-303v-121c15.333 -17.333 34.166 -32.166 56.499 -44.499s47.166 -18.5 74.499 -18.5c32 0 60 4.83301 84 14.5s41.667 19.167 53 28.5c3.33301 2.66699 5.66602 2.33398 6.99902 -0.999023l3 -6
c1.33301 -2.66699 1 -5 -1 -7c-6 -4.66699 -13.833 -9.83398 -23.5 -15.501s-20.667 -10.834 -33 -15.501s-26.166 -8.5 -41.499 -11.5s-31.333 -4.5 -48 -4.5c-29.333 0 -55.666 6 -78.999 18s-43.666 27.667 -60.999 47
c-7.33301 -7.33301 -16.666 -14.666 -27.999 -21.999s-24.166 -14.333 -38.499 -21s-30.166 -12 -47.499 -16s-35 -6 -53 -6c-19.333 0 -37.5 3.16699 -54.5 9.5s-31.833 15.333 -44.5 27s-22.5 25.834 -29.5 42.501s-10.5 35.667 -10.5 57zM657.002 209.999
c0.666992 3.33301 0.998047 6.33301 0.998047 9v7c0 24.667 -4.16699 47.167 -12.5 67.5s-19.666 37.833 -33.999 52.5s-31.666 26 -51.999 34s-42.5 12 -66.5 12c-30 0 -56.5 -6 -79.5 -18s-41.833 -28.667 -56.5 -50c3.33301 -15.333 5 -31.333 5 -48v-66h295zM65 125.999
c0 -37.333 11.668 -66.333 35.001 -87s52 -31 86 -31c18 0 35.333 2.16699 52 6.5s32 9.66602 46 15.999s26.167 13.166 36.5 20.499s18.166 14.333 23.499 21v149c-3.33301 0.666992 -9 2.33398 -17 5.00098s-17.5 5.33398 -28.5 8.00098s-23 5 -36 7s-26.167 3 -39.5 3
c-48 0 -86.333 -11 -115 -33s-43 -50.333 -43 -85z" />
    <glyph glyph-name="ccedilla" unicode="&#xe7;" horiz-adv-x="479" 
d="M52 202c0 30 5.66602 57.8359 16.999 83.5029s26.666 47.667 45.999 66s42 32.666 68 42.999s53.667 15.5 83 15.5c23.333 0 44.5 -2.83301 63.5 -8.5s35.167 -12.167 48.5 -19.5c15.333 -8 29 -17 41 -27c2.66699 -2.66699 2.66699 -5.33398 0 -8.00098l-4 -4
c-3.33301 -3.33301 -6.66602 -3 -9.99902 1c-10.667 8.66699 -23 16.667 -37 24c-12 6 -26.5 11.5 -43.5 16.5s-36.5 7.5 -58.5 7.5c-26.667 0 -52 -4.66699 -76 -14s-45 -22.5 -63 -39.5s-32.167 -37 -42.5 -60s-15.5 -48.5 -15.5 -76.5s5.33301 -54 16 -78
s25.167 -44.5 43.5 -61.5s39.333 -30.333 63 -40s48.5 -14.5 74.5 -14.5c22 0 42 3.16699 60 9.5s33.667 13.5 47 21.5c15.333 9.33301 28.666 20 39.999 32c2.66699 2.66699 5.33398 3 8.00098 1l5 -5c2 -2.66699 2.33301 -4.66699 1 -6
c-12 -13.333 -26.333 -25.333 -43 -36c-14 -9.33301 -31 -17.5 -51 -24.5s-42.333 -10.5 -67 -10.5c-6.66699 0 -11.334 0.333008 -14.001 1v-45c14.667 -1.33301 28.667 -4 42 -8s25 -9.66699 35 -17s17.833 -16.5 23.5 -27.5s8.5 -23.833 8.5 -38.5
c0 -24 -8.5 -45 -25.5 -63s-38.833 -27 -65.5 -27c-17.333 0 -32.5 3.33301 -45.5 10s-23.833 14.667 -32.5 24c-3.33301 2.66699 -3.33301 5.66699 0 9l6 5c3.33301 2 6.33301 1.66699 9 -1c7.33301 -8 16 -14.833 26 -20.5s22.333 -8.5 37 -8.5
c22 0 39.5 7.16699 52.5 21.5s19.5 31.166 19.5 50.499c0 12.667 -2.83301 23.5 -8.5 32.5s-13.167 16.333 -22.5 22s-20 10 -32 13s-24.667 5.16699 -38 6.5c-4 0 -6 2 -6 6v57c-25.333 3.33301 -49.166 11 -71.499 23s-41.666 27.167 -57.999 45.5s-29.333 39.5 -39 63.5
s-14.5 50 -14.5 78z" />
    <glyph glyph-name="egrave" unicode="&#xe8;" horiz-adv-x="477" 
d="M71 193c0.666992 -26 5.16992 -50.333 13.5029 -73s20.166 -42.167 35.499 -58.5s33.833 -29.333 55.5 -39s46.167 -14.5 73.5 -14.5c32 0 59.833 4.83301 83.5 14.5s41.167 19.167 52.5 28.5c3.33301 2.66699 6 2.33398 8 -0.999023l4 -6
c1.33301 -2 0.666016 -4.33301 -2.00098 -7c-12.667 -9.33301 -31.834 -19.5 -57.501 -30.5s-55.167 -16.5 -88.5 -16.5c-30.667 0 -58.167 5.5 -82.5 16.5s-45 26 -62 45s-30 41.5 -39 67.5s-13.5 53.667 -13.5 83c0 28.667 4.5 55.667 13.5 81s22 47.5 39 66.5
s37.667 33.833 62 44.5s51.833 16 82.5 16c26.667 0 51.167 -4.5 73.5 -13.5s41.5 -21.5 57.5 -37.5s28.5 -35.333 37.5 -58s13.5 -47.334 13.5 -74.001c0 -3.33301 -0.333008 -8.5 -1 -15.5s-1.66699 -11.833 -3 -14.5s-3.33301 -4 -6 -4h-350zM412.003 210
c0.666992 3.33301 1.00098 6.49707 1.00098 9.49707v7.5c0 24.667 -4.16699 47 -12.5 67s-19.833 37.333 -34.5 52s-32 26 -52 34s-41.667 12 -65 12c-27.333 0 -51.833 -4.66699 -73.5 -14s-40 -22.166 -55 -38.499s-26.833 -35.666 -35.5 -57.999
s-13.334 -46.166 -14.001 -71.499h341zM152.004 649.997c-4 2 -5 5 -3 9l2 4c1.33301 2.66699 2.83301 4 4.5 4s3.16699 -0.333008 4.5 -1l182 -91c3.33301 -2 4.33301 -4.33301 3 -7l-2 -5c-2 -4 -5 -5 -9 -3z" />
    <glyph glyph-name="eacute" unicode="&#xe9;" horiz-adv-x="477" 
d="M71 193c0.666992 -26 5.16992 -50.333 13.5029 -73s20.166 -42.167 35.499 -58.5s33.833 -29.333 55.5 -39s46.167 -14.5 73.5 -14.5c32 0 59.833 4.83301 83.5 14.5s41.167 19.167 52.5 28.5c3.33301 2.66699 6 2.33398 8 -0.999023l4 -6
c1.33301 -2 0.666016 -4.33301 -2.00098 -7c-12.667 -9.33301 -31.834 -19.5 -57.501 -30.5s-55.167 -16.5 -88.5 -16.5c-30.667 0 -58.167 5.5 -82.5 16.5s-45 26 -62 45s-30 41.5 -39 67.5s-13.5 53.667 -13.5 83c0 28.667 4.5 55.667 13.5 81s22 47.5 39 66.5
s37.667 33.833 62 44.5s51.833 16 82.5 16c26.667 0 51.167 -4.5 73.5 -13.5s41.5 -21.5 57.5 -37.5s28.5 -35.333 37.5 -58s13.5 -47.334 13.5 -74.001c0 -3.33301 -0.333008 -8.5 -1 -15.5s-1.66699 -11.833 -3 -14.5s-3.33301 -4 -6 -4h-350zM412.003 210
c0.666992 3.33301 1.00098 6.49707 1.00098 9.49707v7.5c0 24.667 -4.16699 47 -12.5 67s-19.833 37.333 -34.5 52s-32 26 -52 34s-41.667 12 -65 12c-27.333 0 -51.833 -4.66699 -73.5 -14s-40 -22.166 -55 -38.499s-26.833 -35.666 -35.5 -57.999
s-13.334 -46.166 -14.001 -71.499h341zM158.004 559.997c-4 -2 -7 -1 -9 3l-2 5c-1.33301 2.66699 -0.333008 5 3 7l182 91c1.33301 0.666992 2.83301 1 4.5 1s3.16699 -1.33301 4.5 -4l2 -4c2 -4 1 -7 -3 -9z" />
    <glyph glyph-name="ecircumflex" unicode="&#xea;" horiz-adv-x="477" 
d="M71 193c0.666992 -26 5.16992 -50.333 13.5029 -73s20.166 -42.167 35.499 -58.5s33.833 -29.333 55.5 -39s46.167 -14.5 73.5 -14.5c32 0 59.833 4.83301 83.5 14.5s41.167 19.167 52.5 28.5c3.33301 2.66699 6 2.33398 8 -0.999023l4 -6
c1.33301 -2 0.666016 -4.33301 -2.00098 -7c-12.667 -9.33301 -31.834 -19.5 -57.501 -30.5s-55.167 -16.5 -88.5 -16.5c-30.667 0 -58.167 5.5 -82.5 16.5s-45 26 -62 45s-30 41.5 -39 67.5s-13.5 53.667 -13.5 83c0 28.667 4.5 55.667 13.5 81s22 47.5 39 66.5
s37.667 33.833 62 44.5s51.833 16 82.5 16c26.667 0 51.167 -4.5 73.5 -13.5s41.5 -21.5 57.5 -37.5s28.5 -35.333 37.5 -58s13.5 -47.334 13.5 -74.001c0 -3.33301 -0.333008 -8.5 -1 -15.5s-1.66699 -11.833 -3 -14.5s-3.33301 -4 -6 -4h-350zM412.003 210
c0.666992 3.33301 1.00098 6.49707 1.00098 9.49707v7.5c0 24.667 -4.16699 47 -12.5 67s-19.833 37.333 -34.5 52s-32 26 -52 34s-41.667 12 -65 12c-27.333 0 -51.833 -4.66699 -73.5 -14s-40 -22.166 -55 -38.499s-26.833 -35.666 -35.5 -57.999
s-13.334 -46.166 -14.001 -71.499h341zM121.004 547.997c-2 -1.33301 -3.50293 -1.66602 -4.50293 -0.999023s-1.83301 1.33398 -2.5 2.00098l-4 5c-1.33301 2.66699 -0.666016 5.33398 2.00098 8.00098l129 106c2.66699 2.66699 5.33398 2.66699 8.00098 0l129 -106
c2.66699 -2.66699 3.33398 -5.33398 2.00098 -8.00098l-4 -5c-0.666992 -0.666992 -1.5 -1.33398 -2.5 -2.00098s-2.5 -0.333984 -4.5 0.999023l-124 101z" />
    <glyph glyph-name="edieresis" unicode="&#xeb;" horiz-adv-x="477" 
d="M71 193c0.666992 -26 5.16992 -50.333 13.5029 -73s20.166 -42.167 35.499 -58.5s33.833 -29.333 55.5 -39s46.167 -14.5 73.5 -14.5c32 0 59.833 4.83301 83.5 14.5s41.167 19.167 52.5 28.5c3.33301 2.66699 6 2.33398 8 -0.999023l4 -6
c1.33301 -2 0.666016 -4.33301 -2.00098 -7c-12.667 -9.33301 -31.834 -19.5 -57.501 -30.5s-55.167 -16.5 -88.5 -16.5c-30.667 0 -58.167 5.5 -82.5 16.5s-45 26 -62 45s-30 41.5 -39 67.5s-13.5 53.667 -13.5 83c0 28.667 4.5 55.667 13.5 81s22 47.5 39 66.5
s37.667 33.833 62 44.5s51.833 16 82.5 16c26.667 0 51.167 -4.5 73.5 -13.5s41.5 -21.5 57.5 -37.5s28.5 -35.333 37.5 -58s13.5 -47.334 13.5 -74.001c0 -3.33301 -0.333008 -8.5 -1 -15.5s-1.66699 -11.833 -3 -14.5s-3.33301 -4 -6 -4h-350zM412.003 210
c0.666992 3.33301 1.00098 6.49707 1.00098 9.49707v7.5c0 24.667 -4.16699 47 -12.5 67s-19.833 37.333 -34.5 52s-32 26 -52 34s-41.667 12 -65 12c-27.333 0 -51.833 -4.66699 -73.5 -14s-40 -22.166 -55 -38.499s-26.833 -35.666 -35.5 -57.999
s-13.334 -46.166 -14.001 -71.499h341zM358.004 606.997c-6 0 -10.833 2 -14.5 6s-5.5 8.66699 -5.5 14c0 6 1.83301 11 5.5 15s8.5 6 14.5 6s11 -2 15 -6s6 -9 6 -15c0 -5.33301 -2 -10 -6 -14s-9 -6 -15 -6zM169.004 606.997c-6 0 -11 2 -15 6s-6 8.66699 -6 14
c0 6 2 11 6 15s9 6 15 6s10.833 -2 14.5 -6s5.5 -9 5.5 -15c0 -5.33301 -1.83301 -10 -5.5 -14s-8.5 -6 -14.5 -6z" />
    <glyph glyph-name="igrave" unicode="&#xec;" horiz-adv-x="180" 
d="M81 393c0 4.66699 2.33301 7 7 7h4c4.66699 0 7 -2.33301 7 -7v-386c0 -4.66699 -2.33301 -7 -7 -7h-4c-4.66699 -0 -7 2.33301 -7 7v386zM-4 650c-4 2 -5 5 -3 9l2 4c1.33301 2.66699 2.83301 4 4.5 4s3.16699 -0.333008 4.5 -1l182 -91
c3.33301 -2 4.33301 -4.33301 3 -7l-2 -5c-2 -4 -5 -5 -9 -3z" />
    <glyph glyph-name="iacute" unicode="&#xed;" horiz-adv-x="180" 
d="M81 393c0 4.66699 2.33301 7 7 7h4c4.66699 0 7 -2.33301 7 -7v-386c0 -4.66699 -2.33301 -7 -7 -7h-4c-4.66699 -0 -7 2.33301 -7 7v386zM2 560c-4 -2 -7 -1 -9 3l-2 5c-1.33301 2.66699 -0.333008 5 3 7l182 91c1.33301 0.666992 2.83301 1 4.5 1
s3.16699 -1.33301 4.5 -4l2 -4c2 -4 1 -7 -3 -9z" />
    <glyph glyph-name="icircumflex" unicode="&#xee;" horiz-adv-x="180" 
d="M81 393c0 4.66699 2.33301 7 7 7h4c4.66699 0 7 -2.33301 7 -7v-386c0 -4.66699 -2.33301 -7 -7 -7h-4c-4.66699 -0 -7 2.33301 -7 7v386zM-34 548c-2 -1.33301 -3.50293 -1.66602 -4.50293 -0.999023s-1.83301 1.33398 -2.5 2.00098l-4 5
c-1.33301 2.66699 -0.666016 5.33398 2.00098 8.00098l129 106c2.66699 2.66699 5.33398 2.66699 8.00098 0l129 -106c2.66699 -2.66699 3.33398 -5.33398 2.00098 -8.00098l-4 -5c-0.666992 -0.666992 -1.5 -1.33398 -2.5 -2.00098s-2.5 -0.333984 -4.5 0.999023l-124 101z
" />
    <glyph glyph-name="idieresis" unicode="&#xef;" horiz-adv-x="180" 
d="M81 393c0 4.66699 2.33301 7 7 7h4c4.66699 0 7 -2.33301 7 -7v-386c0 -4.66699 -2.33301 -7 -7 -7h-4c-4.66699 -0 -7 2.33301 -7 7v386zM185 607c-6 0 -10.833 2 -14.5 6s-5.5 8.66699 -5.5 14c0 6 1.83301 11 5.5 15s8.5 6 14.5 6s11 -2 15 -6s6 -9 6 -15
c0 -5.33301 -2 -10 -6 -14s-9 -6 -15 -6zM-4 607c-6 0 -11 2 -15 6s-6 8.66699 -6 14c0 6 2 11 6 15s9 6 15 6s10.833 -2 14.5 -6s5.5 -9 5.5 -15c0 -5.33301 -1.83301 -10 -5.5 -14s-8.5 -6 -14.5 -6z" />
    <glyph glyph-name="eth" unicode="&#xf0;" horiz-adv-x="564" 
d="M49 222c0 34 6 64.501 18 91.501s28.167 50.167 48.5 69.5s43.666 34.166 69.999 44.499s53.833 15.5 82.5 15.5c29.333 0 55.833 -4.16699 79.5 -12.5s44.667 -18.5 63 -30.5s34 -24.833 47 -38.5s23.5 -25.834 31.5 -36.501c-4 31.333 -11 60.333 -21 87
s-22 51.167 -36 73.5s-29.5 42.833 -46.5 61.5s-34.5 35.334 -52.5 50.001l-134 -77c-4 -2.66699 -7 -1.66699 -9 3l-2 3c-2.66699 4 -1.66699 7 3 9l127 73c-28 21.333 -54.833 38.5 -80.5 51.5s-45.834 22.167 -60.501 27.5c-3.33301 2 -4.66602 4.66699 -3.99902 8l2 7
c1.33301 3.33301 4 4.33301 8 3c15.333 -5.33301 37 -15.166 65 -29.499s57 -33.5 87 -57.5l68 39c3.33301 2.66699 6.33301 2 9 -2l2 -3c2 -4.66699 1 -8 -3 -10l-62 -36c20.667 -17.333 40.5 -37 59.5 -59s36 -46.667 51 -74s27 -57.333 36 -90
s13.5 -68.334 13.5 -107.001c0 -40 -5.33301 -77.333 -16 -112s-26 -65 -46 -91s-44.5 -46.333 -73.5 -61s-62.167 -22 -99.5 -22c-30.667 0 -59.667 6 -87 18s-51.166 28.5 -71.499 49.5s-36.5 45.667 -48.5 74s-18 58.5 -18 90.5zM66 222.001
c0 -30 5.5 -57.998 16.5 -83.998s26 -48.667 45 -68s41.167 -34.5 66.5 -45.5s52 -16.5 80 -16.5c34.667 0 65.5 6.83301 92.5 20.5s49.833 32.5 68.5 56.5s32.834 52.333 42.501 85s14.5 68 14.5 106v14l-16.5 24.5c-9.66699 14.333 -23.667 29.666 -42 45.999
s-41.333 31.166 -69 44.499s-59.834 20 -96.501 20c-26.667 0 -52.167 -4.66699 -76.5 -14s-45.833 -22.833 -64.5 -40.5s-33.5 -39 -44.5 -64s-16.5 -53.167 -16.5 -84.5z" />
    <glyph glyph-name="ntilde" unicode="&#xf1;" horiz-adv-x="495" 
d="M81 393c0 4.66699 2.33398 7.00098 7.00098 7.00098h4c4.66699 0 7 -2.33301 7 -7v-55c6 6.66699 14 14.167 24 22.5s21.5 16.166 34.5 23.499s27.667 13.5 44 18.5s34.166 7.5 53.499 7.5c54 0 95.167 -15.833 123.5 -47.5s42.5 -77.834 42.5 -138.501v-217
c0 -4.66699 -2.33301 -7 -7 -7h-4c-4.66699 0 -7 2.33301 -7 7v217c0 54.667 -12.667 96.334 -38 125.001s-62 43 -110 43c-22 0 -42.167 -3.83301 -60.5 -11.5s-34.333 -16.167 -48 -25.5s-24.5 -18.5 -32.5 -27.5s-13 -14.833 -15 -17.5v-303
c0 -4.66699 -2.33301 -7 -7 -7h-4c-4.66699 -0 -7 2.33301 -7 7v386zM99.001 586.001c-4 0.666992 -5 3.66699 -3 9c1.33301 4.66699 3.83301 11.667 7.5 21s8.83398 18.666 15.501 27.999s15.167 17.5 25.5 24.5s22.833 10.5 37.5 10.5c11.333 0 20.833 -2 28.5 -6
s14 -9.16699 19 -15.5s9.16699 -13 12.5 -20l9 -19.5c4 -9.33301 9.83301 -19.333 17.5 -30s19.5 -16 35.5 -16c11.333 0 21 3 29 9s14.667 13 20 21s9.5 16 12.5 24s5.16699 14 6.5 18c1.33301 4.66699 3.66602 6.33398 6.99902 5.00098l8 -2c4 -1.33301 5 -4.33301 3 -9
c-1.33301 -4.66699 -3.83301 -11.667 -7.5 -21s-8.83398 -18.666 -15.501 -27.999s-15.167 -17.5 -25.5 -24.5s-22.833 -10.5 -37.5 -10.5c-11.333 0 -21 2.16699 -29 6.5s-14.667 9.5 -20 15.5s-9.83301 12.5 -13.5 19.5s-6.5 13.167 -8.5 18.5
c-2 4 -4.16699 8.83301 -6.5 14.5s-5.5 11 -9.5 16s-8.83301 9.16699 -14.5 12.5s-12.5 5 -20.5 5c-11.333 0 -21 -3 -29 -9s-14.667 -13 -20 -21s-9.5 -16.167 -12.5 -24.5s-5.16699 -14.5 -6.5 -18.5c-1.33301 -4.66699 -3.66602 -6.33398 -6.99902 -5.00098z" />
    <glyph glyph-name="ograve" unicode="&#xf2;" horiz-adv-x="508" 
d="M51 201c0 28.667 5.16699 55.834 15.5 81.501s24.666 47.834 42.999 66.501s39.833 33.5 64.5 44.5s51.334 16.5 80.001 16.5s55.334 -5.5 80.001 -16.5s46.167 -25.833 64.5 -44.5s32.666 -40.834 42.999 -66.501s15.5 -52.834 15.5 -81.501
c0 -29.333 -5.16699 -56.833 -15.5 -82.5s-24.666 -48 -42.999 -67s-39.833 -34 -64.5 -45s-51.334 -16.5 -80.001 -16.5s-55.334 5.5 -80.001 16.5s-46.167 26 -64.5 45s-32.666 41.333 -42.999 67s-15.5 53.167 -15.5 82.5zM69 201
c0 -27.333 4.83301 -52.666 14.5 -75.999s22.667 -43.666 39 -60.999s35.833 -31 58.5 -41s47 -15 73 -15s50.333 5 73 15s42.167 23.667 58.5 41s29.333 37.666 39 60.999s14.5 48.666 14.5 75.999c0 26.667 -4.83301 51.5 -14.5 74.5s-22.667 43.167 -39 60.5
s-35.833 31 -58.5 41s-47 15 -73 15s-50.333 -5 -73 -15s-42.167 -23.667 -58.5 -41s-29.333 -37.5 -39 -60.5s-14.5 -47.833 -14.5 -74.5zM160 650c-4 2 -5 5 -3 9l2 4c1.33301 2.66699 2.83301 4 4.5 4s3.16699 -0.333008 4.5 -1l182 -91
c3.33301 -2 4.33301 -4.33301 3 -7l-2 -5c-2 -4 -5 -5 -9 -3z" />
    <glyph glyph-name="oacute" unicode="&#xf3;" horiz-adv-x="508" 
d="M51 201c0 28.667 5.16699 55.834 15.5 81.501s24.666 47.834 42.999 66.501s39.833 33.5 64.5 44.5s51.334 16.5 80.001 16.5s55.334 -5.5 80.001 -16.5s46.167 -25.833 64.5 -44.5s32.666 -40.834 42.999 -66.501s15.5 -52.834 15.5 -81.501
c0 -29.333 -5.16699 -56.833 -15.5 -82.5s-24.666 -48 -42.999 -67s-39.833 -34 -64.5 -45s-51.334 -16.5 -80.001 -16.5s-55.334 5.5 -80.001 16.5s-46.167 26 -64.5 45s-32.666 41.333 -42.999 67s-15.5 53.167 -15.5 82.5zM69 201
c0 -27.333 4.83301 -52.666 14.5 -75.999s22.667 -43.666 39 -60.999s35.833 -31 58.5 -41s47 -15 73 -15s50.333 5 73 15s42.167 23.667 58.5 41s29.333 37.666 39 60.999s14.5 48.666 14.5 75.999c0 26.667 -4.83301 51.5 -14.5 74.5s-22.667 43.167 -39 60.5
s-35.833 31 -58.5 41s-47 15 -73 15s-50.333 -5 -73 -15s-42.167 -23.667 -58.5 -41s-29.333 -37.5 -39 -60.5s-14.5 -47.833 -14.5 -74.5zM166 560c-4 -2 -7 -1 -9 3l-2 5c-1.33301 2.66699 -0.333008 5 3 7l182 91c1.33301 0.666992 2.83301 1 4.5 1
s3.16699 -1.33301 4.5 -4l2 -4c2 -4 1 -7 -3 -9z" />
    <glyph glyph-name="ocircumflex" unicode="&#xf4;" horiz-adv-x="508" 
d="M51 201c0 28.667 5.16699 55.834 15.5 81.501s24.666 47.834 42.999 66.501s39.833 33.5 64.5 44.5s51.334 16.5 80.001 16.5s55.334 -5.5 80.001 -16.5s46.167 -25.833 64.5 -44.5s32.666 -40.834 42.999 -66.501s15.5 -52.834 15.5 -81.501
c0 -29.333 -5.16699 -56.833 -15.5 -82.5s-24.666 -48 -42.999 -67s-39.833 -34 -64.5 -45s-51.334 -16.5 -80.001 -16.5s-55.334 5.5 -80.001 16.5s-46.167 26 -64.5 45s-32.666 41.333 -42.999 67s-15.5 53.167 -15.5 82.5zM69 201
c0 -27.333 4.83301 -52.666 14.5 -75.999s22.667 -43.666 39 -60.999s35.833 -31 58.5 -41s47 -15 73 -15s50.333 5 73 15s42.167 23.667 58.5 41s29.333 37.666 39 60.999s14.5 48.666 14.5 75.999c0 26.667 -4.83301 51.5 -14.5 74.5s-22.667 43.167 -39 60.5
s-35.833 31 -58.5 41s-47 15 -73 15s-50.333 -5 -73 -15s-42.167 -23.667 -58.5 -41s-29.333 -37.5 -39 -60.5s-14.5 -47.833 -14.5 -74.5zM129 548c-2 -1.33301 -3.50293 -1.66602 -4.50293 -0.999023s-1.83301 1.33398 -2.5 2.00098l-4 5
c-1.33301 2.66699 -0.666016 5.33398 2.00098 8.00098l129 106c2.66699 2.66699 5.33398 2.66699 8.00098 0l129 -106c2.66699 -2.66699 3.33398 -5.33398 2.00098 -8.00098l-4 -5c-0.666992 -0.666992 -1.5 -1.33398 -2.5 -2.00098s-2.5 -0.333984 -4.5 0.999023l-124 101z
" />
    <glyph glyph-name="otilde" unicode="&#xf5;" horiz-adv-x="508" 
d="M51 201c0 28.667 5.16699 55.834 15.5 81.501s24.666 47.834 42.999 66.501s39.833 33.5 64.5 44.5s51.334 16.5 80.001 16.5s55.334 -5.5 80.001 -16.5s46.167 -25.833 64.5 -44.5s32.666 -40.834 42.999 -66.501s15.5 -52.834 15.5 -81.501
c0 -29.333 -5.16699 -56.833 -15.5 -82.5s-24.666 -48 -42.999 -67s-39.833 -34 -64.5 -45s-51.334 -16.5 -80.001 -16.5s-55.334 5.5 -80.001 16.5s-46.167 26 -64.5 45s-32.666 41.333 -42.999 67s-15.5 53.167 -15.5 82.5zM69 201
c0 -27.333 4.83301 -52.666 14.5 -75.999s22.667 -43.666 39 -60.999s35.833 -31 58.5 -41s47 -15 73 -15s50.333 5 73 15s42.167 23.667 58.5 41s29.333 37.666 39 60.999s14.5 48.666 14.5 75.999c0 26.667 -4.83301 51.5 -14.5 74.5s-22.667 43.167 -39 60.5
s-35.833 31 -58.5 41s-47 15 -73 15s-50.333 -5 -73 -15s-42.167 -23.667 -58.5 -41s-29.333 -37.5 -39 -60.5s-14.5 -47.833 -14.5 -74.5zM110 585c-4 0.666992 -5 3.66699 -3 9c1.33301 4.66699 3.83301 11.667 7.5 21s8.83398 18.666 15.501 27.999
s15.167 17.5 25.5 24.5s22.833 10.5 37.5 10.5c11.333 0 20.833 -2 28.5 -6s14 -9.16699 19 -15.5s9.16699 -13 12.5 -20l9 -19.5c4 -9.33301 9.83301 -19.333 17.5 -30s19.5 -16 35.5 -16c11.333 0 21 3 29 9s14.667 13 20 21s9.5 16 12.5 24s5.16699 14 6.5 18
c1.33301 4.66699 3.66602 6.33398 6.99902 5.00098l8 -2c4 -1.33301 5 -4.33301 3 -9c-1.33301 -4.66699 -3.83301 -11.667 -7.5 -21s-8.83398 -18.666 -15.501 -27.999s-15.167 -17.5 -25.5 -24.5s-22.833 -10.5 -37.5 -10.5c-11.333 0 -21 2.16699 -29 6.5
s-14.667 9.5 -20 15.5s-9.83301 12.5 -13.5 19.5s-6.5 13.167 -8.5 18.5c-2 4 -4.16699 8.83301 -6.5 14.5s-5.5 11 -9.5 16s-8.83301 9.16699 -14.5 12.5s-12.5 5 -20.5 5c-11.333 0 -21 -3 -29 -9s-14.667 -13 -20 -21s-9.5 -16.167 -12.5 -24.5
s-5.16699 -14.5 -6.5 -18.5c-1.33301 -4.66699 -3.66602 -6.33398 -6.99902 -5.00098z" />
    <glyph glyph-name="odieresis" unicode="&#xf6;" horiz-adv-x="508" 
d="M51 201c0 28.667 5.16699 55.834 15.5 81.501s24.666 47.834 42.999 66.501s39.833 33.5 64.5 44.5s51.334 16.5 80.001 16.5s55.334 -5.5 80.001 -16.5s46.167 -25.833 64.5 -44.5s32.666 -40.834 42.999 -66.501s15.5 -52.834 15.5 -81.501
c0 -29.333 -5.16699 -56.833 -15.5 -82.5s-24.666 -48 -42.999 -67s-39.833 -34 -64.5 -45s-51.334 -16.5 -80.001 -16.5s-55.334 5.5 -80.001 16.5s-46.167 26 -64.5 45s-32.666 41.333 -42.999 67s-15.5 53.167 -15.5 82.5zM69 201
c0 -27.333 4.83301 -52.666 14.5 -75.999s22.667 -43.666 39 -60.999s35.833 -31 58.5 -41s47 -15 73 -15s50.333 5 73 15s42.167 23.667 58.5 41s29.333 37.666 39 60.999s14.5 48.666 14.5 75.999c0 26.667 -4.83301 51.5 -14.5 74.5s-22.667 43.167 -39 60.5
s-35.833 31 -58.5 41s-47 15 -73 15s-50.333 -5 -73 -15s-42.167 -23.667 -58.5 -41s-29.333 -37.5 -39 -60.5s-14.5 -47.833 -14.5 -74.5zM347 607c-6 0 -10.833 2 -14.5 6s-5.5 8.66699 -5.5 14c0 6 1.83301 11 5.5 15s8.5 6 14.5 6s11 -2 15 -6s6 -9 6 -15
c0 -5.33301 -2 -10 -6 -14s-9 -6 -15 -6zM158 607c-6 0 -11 2 -15 6s-6 8.66699 -6 14c0 6 2 11 6 15s9 6 15 6s10.833 -2 14.5 -6s5.5 -9 5.5 -15c0 -5.33301 -1.83301 -10 -5.5 -14s-8.5 -6 -14.5 -6z" />
    <glyph glyph-name="divide" unicode="&#xf7;" horiz-adv-x="713" 
d="M352 465c-6.66699 0 -12.334 2.33301 -17.001 7s-7 10.334 -7 17.001s2.33301 12.167 7 16.5s10.334 6.5 17.001 6.5c7.33301 0 13.166 -2.16699 17.499 -6.5s6.5 -9.83301 6.5 -16.5s-2.16699 -12.334 -6.5 -17.001s-10.166 -7 -17.499 -7zM161 340
c-4.66699 0 -7 2.33301 -7 7v4c0 4.66699 2.33301 7 7 7h389c4.66699 0 7 -2.33301 7 -7v-4c0 -4.66699 -2.33301 -7 -7 -7h-389zM328 209c0 6.66699 2.33301 12.167 7 16.5s10.334 6.5 17.001 6.5c7.33301 0 13.166 -2.16699 17.499 -6.5s6.5 -9.83301 6.5 -16.5
s-2.16699 -12.334 -6.5 -17.001s-10.166 -7 -17.499 -7c-6.66699 0 -12.334 2.33301 -17.001 7s-7 10.334 -7 17.001z" />
    <glyph glyph-name="oslash" unicode="&#xf8;" horiz-adv-x="510" 
d="M72 43c-3.33301 3.33301 -3.33398 6.66602 -0.000976562 9.99902l20 20c-13.333 18 -23.333 37 -30 57s-10 42.667 -10 68c0 28.667 5.16699 56 15.5 82s24.666 48.5 42.999 67.5s39.833 34.167 64.5 45.5s51.334 17 80.001 17c32.667 0 61 -6 85 -18s45 -28 63 -48
l26 23c2.66699 2.66699 5.66699 2.66699 9 0l3 -3c3.33301 -3.33301 3.33301 -6.66602 0 -9.99902l-26 -24c13.333 -18.667 23.833 -39.167 31.5 -61.5s11.5 -45.833 11.5 -70.5c0 -29.333 -5.16699 -56.666 -15.5 -81.999s-24.666 -47.333 -42.999 -66
s-39.833 -33.334 -64.5 -44.001s-51.334 -16 -80.001 -16c-30 0 -58 6 -84 18s-48.333 28.667 -67 50l-20 -19c-3.33301 -3.33301 -6.66602 -3 -9.99902 1zM387.999 331c-16.667 19.333 -36.332 34.334 -58.999 45.001s-47.334 16 -74.001 16
c-26 0 -50.333 -5.16699 -73 -15.5s-42.167 -24.333 -58.5 -42s-29.333 -38.167 -39 -61.5s-14.5 -48.333 -14.5 -75c0 -22.667 3 -42.834 9 -60.501s15.333 -35.167 28 -52.5zM119.001 71.001c16.667 -19.333 36.668 -34.667 60.001 -46s48.666 -17 75.999 -17
c26 0 50.333 4.83301 73 14.5s42.167 23 58.5 40s29.333 37 39 60s14.5 48.167 14.5 75.5c0 44.667 -13 84.667 -39 120z" />
    <glyph glyph-name="ugrave" unicode="&#xf9;" horiz-adv-x="486" 
d="M75 393c0 4.66699 2.33398 6.99902 7.00098 6.99902h4c4.66699 0 7 -2.33301 7 -7v-219c0 -54.667 12.667 -96 38 -124s62 -42 110 -42c22.667 0 42.667 3.83301 60 11.5s32.166 16.334 44.499 26.001s22 19 29 28s11.167 14.5 12.5 16.5v303c0 4.66699 2.33301 7 7 7h4
c4.66699 0 7 -2.33301 7 -7v-386c0 -4.66699 -2.33301 -7 -7 -7h-4c-4.66699 -0 -7 2.33301 -7 7v53c-6 -7.33301 -13.5 -15 -22.5 -23s-19.5 -15.5 -31.5 -22.5s-25.667 -12.833 -41 -17.5s-32.333 -7 -51 -7c-54 0 -95.167 15.5 -123.5 46.5s-42.5 76.833 -42.5 137.5v219
zM149.001 649.999c-4 2 -5 5 -3 9l2 4c1.33301 2.66699 2.83301 4 4.5 4s3.16699 -0.333008 4.5 -1l182 -91c3.33301 -2 4.33301 -4.33301 3 -7l-2 -5c-2 -4 -5 -5 -9 -3z" />
    <glyph glyph-name="uacute" unicode="&#xfa;" horiz-adv-x="486" 
d="M75 393c0 4.66699 2.33398 6.99902 7.00098 6.99902h4c4.66699 0 7 -2.33301 7 -7v-219c0 -54.667 12.667 -96 38 -124s62 -42 110 -42c22.667 0 42.667 3.83301 60 11.5s32.166 16.334 44.499 26.001s22 19 29 28s11.167 14.5 12.5 16.5v303c0 4.66699 2.33301 7 7 7h4
c4.66699 0 7 -2.33301 7 -7v-386c0 -4.66699 -2.33301 -7 -7 -7h-4c-4.66699 -0 -7 2.33301 -7 7v53c-6 -7.33301 -13.5 -15 -22.5 -23s-19.5 -15.5 -31.5 -22.5s-25.667 -12.833 -41 -17.5s-32.333 -7 -51 -7c-54 0 -95.167 15.5 -123.5 46.5s-42.5 76.833 -42.5 137.5v219
zM155.001 559.999c-4 -2 -7 -1 -9 3l-2 5c-1.33301 2.66699 -0.333008 5 3 7l182 91c1.33301 0.666992 2.83301 1 4.5 1s3.16699 -1.33301 4.5 -4l2 -4c2 -4 1 -7 -3 -9z" />
    <glyph glyph-name="ucircumflex" unicode="&#xfb;" horiz-adv-x="486" 
d="M75 393c0 4.66699 2.33398 6.99902 7.00098 6.99902h4c4.66699 0 7 -2.33301 7 -7v-219c0 -54.667 12.667 -96 38 -124s62 -42 110 -42c22.667 0 42.667 3.83301 60 11.5s32.166 16.334 44.499 26.001s22 19 29 28s11.167 14.5 12.5 16.5v303c0 4.66699 2.33301 7 7 7h4
c4.66699 0 7 -2.33301 7 -7v-386c0 -4.66699 -2.33301 -7 -7 -7h-4c-4.66699 -0 -7 2.33301 -7 7v53c-6 -7.33301 -13.5 -15 -22.5 -23s-19.5 -15.5 -31.5 -22.5s-25.667 -12.833 -41 -17.5s-32.333 -7 -51 -7c-54 0 -95.167 15.5 -123.5 46.5s-42.5 76.833 -42.5 137.5v219
zM118.001 547.999c-2 -1.33301 -3.50293 -1.66602 -4.50293 -0.999023s-1.83301 1.33398 -2.5 2.00098l-4 5c-1.33301 2.66699 -0.666016 5.33398 2.00098 8.00098l129 106c2.66699 2.66699 5.33398 2.66699 8.00098 0l129 -106
c2.66699 -2.66699 3.33398 -5.33398 2.00098 -8.00098l-4 -5c-0.666992 -0.666992 -1.5 -1.33398 -2.5 -2.00098s-2.5 -0.333984 -4.5 0.999023l-124 101z" />
    <glyph glyph-name="udieresis" unicode="&#xfc;" horiz-adv-x="486" 
d="M75 393c0 4.66699 2.33398 6.99902 7.00098 6.99902h4c4.66699 0 7 -2.33301 7 -7v-219c0 -54.667 12.667 -96 38 -124s62 -42 110 -42c22.667 0 42.667 3.83301 60 11.5s32.166 16.334 44.499 26.001s22 19 29 28s11.167 14.5 12.5 16.5v303c0 4.66699 2.33301 7 7 7h4
c4.66699 0 7 -2.33301 7 -7v-386c0 -4.66699 -2.33301 -7 -7 -7h-4c-4.66699 -0 -7 2.33301 -7 7v53c-6 -7.33301 -13.5 -15 -22.5 -23s-19.5 -15.5 -31.5 -22.5s-25.667 -12.833 -41 -17.5s-32.333 -7 -51 -7c-54 0 -95.167 15.5 -123.5 46.5s-42.5 76.833 -42.5 137.5v219
zM340.001 606.999c-6 0 -10.833 2 -14.5 6s-5.5 8.66699 -5.5 14c0 6 1.83301 11 5.5 15s8.5 6 14.5 6s11 -2 15 -6s6 -9 6 -15c0 -5.33301 -2 -10 -6 -14s-9 -6 -15 -6zM151.001 606.999c-6 0 -11 2 -15 6s-6 8.66699 -6 14c0 6 2 11 6 15s9 6 15 6s10.833 -2 14.5 -6
s5.5 -9 5.5 -15c0 -5.33301 -1.83301 -10 -5.5 -14s-8.5 -6 -14.5 -6z" />
    <glyph glyph-name="yacute" unicode="&#xfd;" horiz-adv-x="422" 
d="M13 395c-2 4.66699 -1.66602 7.33398 1.00098 8.00098l7 3c2.66699 1.33301 5 0.333008 7 -3l188 -376l176 376c2 3.33301 4.33301 4.33301 7 3l7 -3c2.66699 -0.666992 3 -3.33398 1 -8.00098l-326 -696c-2 -4 -4.66699 -5 -8 -3l-5 3
c-2.66699 2 -3.33398 4.66699 -2.00098 8l141 301zM128.001 560c-4 -2 -7 -1 -9 3l-2 5c-1.33301 2.66699 -0.333008 5 3 7l182 91c1.33301 0.666992 2.83301 1 4.5 1s3.16699 -1.33301 4.5 -4l2 -4c2 -4 1 -7 -3 -9z" />
    <glyph glyph-name="thorn" unicode="&#xfe;" horiz-adv-x="491" 
d="M98 -293c0 -4.66699 -2.33203 -6.99902 -6.99902 -6.99902h-4c-4 0 -6 2.33301 -6 7v986c0 4.66699 2 7 6 7h4c4.66699 0 7 -2.33301 7 -7v-339c6 5.33301 13.333 11.166 22 17.499s19.167 12.333 31.5 18s26.166 10.5 41.499 14.5s32.333 6 51 6c28 0 54 -5.5 78 -16.5
s44.667 -26 62 -45s30.833 -41.333 40.5 -67s14.5 -53.167 14.5 -82.5c0 -30 -5 -57.833 -15 -83.5s-24.333 -47.667 -43 -66s-40.834 -32.833 -66.501 -43.5s-54.5 -16 -86.5 -16c-32.667 0 -59.667 6 -81 18s-37.666 23 -48.999 33v-334zM98.001 68.001
c1.33301 -2 5 -6.16797 11 -12.501s14.333 -13 25 -20s23.834 -13.333 39.501 -19s33.834 -8.5 54.501 -8.5c29.333 0 55.833 4.83301 79.5 14.5s44 23 61 40s30.167 37.167 39.5 60.5s14 48.666 14 75.999c0 26.667 -4.5 51.834 -13.5 75.501s-21.333 44.167 -37 61.5
s-34.334 31 -56.001 41s-45.5 15 -71.5 15c-22.667 0 -42.834 -3 -60.501 -9s-32.5 -12.667 -44.5 -20s-21.5 -14.666 -28.5 -21.999s-11.167 -12 -12.5 -14v-259z" />
    <glyph glyph-name="ydieresis" unicode="&#xff;" horiz-adv-x="422" 
d="M13 395c-2 4.66699 -1.66602 7.33398 1.00098 8.00098l7 3c2.66699 1.33301 5 0.333008 7 -3l188 -376l176 376c2 3.33301 4.33301 4.33301 7 3l7 -3c2.66699 -0.666992 3 -3.33398 1 -8.00098l-326 -696c-2 -4 -4.66699 -5 -8 -3l-5 3
c-2.66699 2 -3.33398 4.66699 -2.00098 8l141 301zM310.001 607c-6 0 -10.833 2 -14.5 6s-5.5 8.66699 -5.5 14c0 6 1.83301 11 5.5 15s8.5 6 14.5 6s11 -2 15 -6s6 -9 6 -15c0 -5.33301 -2 -10 -6 -14s-9 -6 -15 -6zM121.001 607c-6 0 -11 2 -15 6s-6 8.66699 -6 14
c0 6 2 11 6 15s9 6 15 6s10.833 -2 14.5 -6s5.5 -9 5.5 -15c0 -5.33301 -1.83301 -10 -5.5 -14s-8.5 -6 -14.5 -6z" />
    <glyph glyph-name="OE" unicode="&#x152;" horiz-adv-x="992" 
d="M62 349c0 50 9.33301 96.999 28 140.999s44.167 82.333 76.5 115s70.5 58.334 114.5 77.001s91 28 141 28c14.667 0 28.834 -0.833008 42.501 -2.5s27.167 -4.16699 40.5 -7.5h404c4 0 6 -2.33301 6 -7v-4c0 -4.66699 -2 -7 -6 -7h-396v-309h348c4 0 6 -2.33301 6 -7v-4
c0 -4.66699 -2 -7 -6 -7h-348v-337h396c4 0 6 -2.33301 6 -7v-4c0 -4.66699 -2 -7 -6 -7h-402c-13.333 -3.33301 -27.333 -5.83301 -42 -7.5s-29.334 -2.5 -44.001 -2.5c-50 0 -96.833 9.33301 -140.5 28s-81.667 44.167 -114 76.5s-57.833 70.333 -76.5 114
s-28 90.5 -28 140.5zM79 348.999c0 -48 8.83105 -92.666 26.498 -133.999s42 -77.333 73 -108s67.167 -54.834 108.5 -72.501s86 -26.5 134 -26.5c13.333 0 25.833 0.5 37.5 1.5s23.834 3.16699 36.501 6.5v668c-12.667 2.66699 -24.667 4.66699 -36 6s-23.666 2 -36.999 2
c-48 0 -92.833 -8.83301 -134.5 -26.5s-78 -42 -109 -73s-55.333 -67.333 -73 -109s-26.5 -86.5 -26.5 -134.5z" />
    <glyph glyph-name="oe" unicode="&#x153;" horiz-adv-x="797" 
d="M51 200c0 28.667 5.16895 55.835 15.502 81.502s24.666 48 42.999 67s39.833 34 64.5 45s51.334 16.5 80.001 16.5c32 0 61.5 -7.5 88.5 -22.5s49.833 -34.5 68.5 -58.5c16.667 24 38.334 43.5 65.001 58.5s57.667 22.5 93 22.5c26.667 0 51.167 -4.83301 73.5 -14.5
s41.5 -22.834 57.5 -39.501s28.5 -36.667 37.5 -60s13.5 -48.333 13.5 -75c0 -3.33301 -0.333008 -8.5 -1 -15.5s-1.66699 -11.833 -3 -14.5s-3.33301 -4 -6 -4h-320v-98c15.333 -24 35.333 -43.5 60 -58.5s54 -22.5 88 -22.5c31.333 0 59 4.83301 83 14.5
s41.667 19.167 53 28.5c2.66699 2.66699 5.33398 2 8.00098 -2l3 -4c2 -2.66699 1.66699 -5.33398 -1 -8.00098c-12.667 -9.33301 -31.834 -19.5 -57.501 -30.5s-55.167 -16.5 -88.5 -16.5c-35.333 0 -66.333 7.33301 -93 22s-48.334 34 -65.001 58
c-18.667 -24.667 -41.334 -44.167 -68.001 -58.5s-56.334 -21.5 -89.001 -21.5c-28.667 0 -55.334 5.33301 -80.001 16s-46.167 25.5 -64.5 44.5s-32.666 41.333 -42.999 67s-15.5 53.167 -15.5 82.5zM732.002 205.001c0.666992 3.33301 1 6.33203 1 8.99902v7
c0 24.667 -4 47.334 -12 68.001s-19.333 38.667 -34 54s-32 27.333 -52 36s-42 13 -66 13c-34 0 -63.333 -7.83301 -88 -23.5s-44.667 -35.5 -60 -59.5v-104h311zM69.002 200c0 -27.333 4.83398 -52.668 14.501 -76.001s22.667 -43.5 39 -60.5s35.833 -30.5 58.5 -40.5
s47 -15 73 -15c30 0 58.167 8 84.5 24s47.833 35.333 64.5 58v219c-16.667 22.667 -38.334 42.167 -65.001 58.5s-54.667 24.5 -84 24.5c-26 0 -50.333 -5 -73 -15s-42.167 -23.667 -58.5 -41s-29.333 -37.666 -39 -60.999s-14.5 -48.333 -14.5 -75z" />
    <glyph glyph-name="Scaron" unicode="&#x160;" horiz-adv-x="556" 
d="M72 73c-3.33301 2.66699 -3.33301 5.66406 0 8.99707l4 4c2.66699 2.66699 5.66699 2.33398 9 -0.999023l21 -16.5c10.667 -8.33301 24.5 -17 41.5 -26s37.167 -17 60.5 -24s49 -10.5 77 -10.5c26.667 0 52.334 4.16699 77.001 12.5s46.334 19.666 65.001 33.999
s33.5 31 44.5 50s16.5 39.5 16.5 61.5c0 27.333 -5.16699 50.5 -15.5 69.5s-25 35.5 -44 49.5s-41.5 25.833 -67.5 35.5s-55 18.834 -87 27.501c-30 8 -57.833 16.833 -83.5 26.5s-47.834 21.5 -66.501 35.5s-33.167 31 -43.5 51s-15.5 44.667 -15.5 74c0 20 4 40.5 12 61.5
s20.667 39.833 38 56.5s39.833 30.334 67.5 41.001s61.167 16 100.5 16c25.333 0 48.5 -2.66699 69.5 -8s39.167 -11.333 54.5 -18c18 -7.33301 34.333 -15.666 49 -24.999c3.33301 -2 4 -4.66699 2 -8l-4 -6c-2 -3.33301 -4.66699 -4 -8 -2
c-14 8.66699 -29.667 16.667 -47 24c-14.667 6 -31.834 11.667 -51.501 17s-41.167 8 -64.5 8c-36 0 -66.667 -4.83301 -92 -14.5s-46 -22 -62 -37s-27.667 -31.833 -35 -50.5s-11 -37 -11 -55c0 -25.333 4.66699 -47 14 -65s22.666 -33.333 39.999 -46s38 -23.5 62 -32.5
s50.667 -17.5 80 -25.5c34.667 -10 66.167 -20.5 94.5 -31.5s52.166 -24.167 71.499 -39.5s34.333 -33.5 45 -54.5s16 -45.833 16 -74.5c0 -24 -6 -46.667 -18 -68s-28.167 -40 -48.5 -56s-43.833 -28.667 -70.5 -38s-54.667 -14 -84 -14c-30 0 -57.333 3.83301 -82 11.5
s-46.167 16.167 -64.5 25.5s-33.166 18.5 -44.499 27.5s-18.666 15.167 -21.999 18.5zM155 861.997c-2.66699 2.66699 -3.33105 5.33398 -1.99805 8.00098l4 5c0.666992 0.666992 1.5 1.33398 2.5 2.00098s2.5 0.333984 4.5 -0.999023l124 -101l124 101
c2 1.33301 3.5 1.66602 4.5 0.999023s1.83301 -1.33398 2.5 -2.00098l4 -5c1.33301 -2.66699 0.666016 -5.33398 -2.00098 -8.00098l-129 -106c-2.66699 -2.66699 -5.33398 -2.66699 -8.00098 0z" />
    <glyph glyph-name="scaron" unicode="&#x161;" horiz-adv-x="381" 
d="M61 35c-2.66699 2 -3.66504 4.33008 -2.99805 6.99707l5 7c2 2.66699 5 2.66699 9 0c10 -8 24.833 -16.833 44.5 -26.5s45.167 -14.5 76.5 -14.5c18 0 34.667 2.33301 50 7s28.666 11.167 39.999 19.5s20.166 18 26.499 29s9.5 23.167 9.5 36.5
c0 14 -3.5 26.167 -10.5 36.5s-16.667 19.166 -29 26.499s-26.666 13.833 -42.999 19.5s-33.833 11.167 -52.5 16.5c-44.667 12.667 -77.834 26.834 -99.501 42.501s-32.5 37.5 -32.5 65.5c0 11.333 2.66699 23 8 35s13.5 23 24.5 33s25 18.333 42 25s37.167 10 60.5 10
c27.333 0 50.666 -3.66699 69.999 -11s34 -14.333 44 -21c3.33301 -2 4 -4.66699 2 -8l-3 -5c-1.33301 -1.33301 -2.5 -2.33301 -3.5 -3s-2.83301 -0.333984 -5.5 0.999023c-9.33301 6 -23 12.333 -41 19s-39 10 -63 10c-20.667 0 -38.334 -2.66699 -53.001 -8
s-26.667 -12.166 -36 -20.499s-16.166 -17.5 -20.499 -27.5s-6.5 -19.667 -6.5 -29c0 -23.333 9.83301 -41.5 29.5 -54.5s48.834 -25.167 87.501 -36.5l57.5 -18c18.333 -6 34.333 -13.167 48 -21.5s24.667 -18.666 33 -30.999s12.5 -27.5 12.5 -45.5
c0 -15.333 -3.83301 -29.666 -11.5 -42.999s-18 -25 -31 -35s-28.5 -17.833 -46.5 -23.5s-37 -8.5 -57 -8.5c-34.667 0 -62.5 5.33301 -83.5 16s-37.167 20.334 -48.5 29.001zM57.002 661.997c-2.66699 2.66699 -3.33105 5.33398 -1.99805 8.00098l4 5
c0.666992 0.666992 1.5 1.33398 2.5 2.00098s2.5 0.333984 4.5 -0.999023l124 -101l124 101c2 1.33301 3.5 1.66602 4.5 0.999023s1.83301 -1.33398 2.5 -2.00098l4 -5c1.33301 -2.66699 0.666016 -5.33398 -2.00098 -8.00098l-129 -106
c-2.66699 -2.66699 -5.33398 -2.66699 -8.00098 0z" />
    <glyph glyph-name="Ydieresis" unicode="&#x178;" horiz-adv-x="544" 
d="M263 343l-263.999 345c-2.66699 3.33301 -2.33398 6.33301 0.999023 9l6 4c2 1.33301 3.5 1.5 4.5 0.5l3.5 -3.5l258 -339l258 339c2.66699 4 5.33398 5 8.00098 3l6 -4c3.33301 -2.66699 3.66602 -5.66699 0.999023 -9l-264 -344v-337c0 -4.66699 -2.33301 -7 -7 -7h-4
c-4.66699 -0 -7 2.33301 -7 7v336zM377.001 810c-6 0 -11 2 -15 6s-6 8.66699 -6 14c0 6 2 11 6 15s9 6 15 6s11 -2 15 -6s6 -9 6 -15c0 -5.33301 -2 -10 -6 -14s-9 -6 -15 -6zM170.001 810c-6 0 -11 2 -15 6s-6 8.66699 -6 14c0 6 2 11 6 15s9 6 15 6s11 -2 15 -6
s6 -9 6 -15c0 -5.33301 -2 -10 -6 -14s-9 -6 -15 -6z" />
    <glyph glyph-name="Zcaron" unicode="&#x17d;" horiz-adv-x="528" 
d="M468 682h-399c-4.66699 0 -7 2.33301 -7 7v4c0 4.66699 2.33301 7 7 7h419c3.33301 0 5.5 -1.16699 6.5 -3.5s0.833008 -4.83301 -0.5 -7.5l-439 -671h411c4.66699 0 7 -2.33301 7 -7v-4c0 -4.66699 -2.33301 -7 -7 -7h-431c-3.33301 0 -5.5 1.16699 -6.5 3.5
s-0.833008 4.83301 0.5 7.5zM146 877c-2.66699 2.66699 -3.33105 5.33398 -1.99805 8.00098l4 5c0.666992 0.666992 1.5 1.33398 2.5 2.00098s2.5 0.333984 4.5 -0.999023l124 -101l124 101c2 1.33301 3.5 1.66602 4.5 0.999023s1.83301 -1.33398 2.5 -2.00098l4 -5
c1.33301 -2.66699 0.666016 -5.33398 -2.00098 -8.00098l-129 -106c-2.66699 -2.66699 -5.33398 -2.66699 -8.00098 0z" />
    <glyph glyph-name="zcaron" unicode="&#x17e;" horiz-adv-x="377" 
d="M308 382h-243c-4 0 -6 2.33301 -6 7v4c0 4.66699 2 7 6 7h267c3.33301 0 5.66602 -1.16699 6.99902 -3.5s1 -4.83301 -1 -7.5l-279 -371h262c4.66699 0 7 -2.33301 7 -7v-4c0 -4.66699 -2.33301 -7 -7 -7h-284c-3.33301 0 -5.66602 1.16699 -6.99902 3.5
s-1 4.83301 1 7.5zM65 659c-2.66699 2.66699 -3.33105 5.33398 -1.99805 8.00098l4 5c0.666992 0.666992 1.5 1.33398 2.5 2.00098s2.5 0.333984 4.5 -0.999023l124 -101l124 101c2 1.33301 3.5 1.66602 4.5 0.999023s1.83301 -1.33398 2.5 -2.00098l4 -5
c1.33301 -2.66699 0.666016 -5.33398 -2.00098 -8.00098l-129 -106c-2.66699 -2.66699 -5.33398 -2.66699 -8.00098 0z" />
    <glyph glyph-name="florin" unicode="&#x192;" horiz-adv-x="345" 
d="M130 382h-110c-4.66699 0 -7 2.33301 -7 7v4c0 4.66699 2.33301 7 7 7h110v134c0 60 13.667 104.333 41 133s63.333 43 108 43c28 0 51.667 -4.83301 71 -14.5s33.666 -19.167 42.999 -28.5c3.33301 -3.33301 3.33301 -6.66602 0 -9.99902l-3 -3
c-3.33301 -3.33301 -6.66602 -3.33301 -9.99902 0c-8.66699 8 -21.334 16.333 -38.001 25s-37.667 13 -63 13c-40 0 -71.833 -12.833 -95.5 -38.5s-35.5 -65.5 -35.5 -119.5v-134h181c4.66699 0 7 -2.33301 7 -7v-4c0 -4.66699 -2.33301 -7 -7 -7h-181v-516
c0 -60 -13.667 -104.333 -41 -133s-63.333 -43 -108 -43c-28 0 -51.667 4.83301 -71 14.5s-33.666 19.167 -42.999 28.5c-3.33301 3.33301 -3.33301 6.66602 0 9.99902l3 3c3.33301 3.33301 6.66602 3.33301 9.99902 0c8.66699 -8 21.334 -16.333 38.001 -25
s37.667 -13 63 -13c40 0 71.833 12.833 95.5 38.5s35.5 65.5 35.5 119.5v516z" />
    <glyph glyph-name="circumflex" unicode="&#x2c6;" horiz-adv-x="373" 
d="M62 548c-2 -1.33301 -3.50293 -1.66602 -4.50293 -0.999023s-1.83301 1.33398 -2.5 2.00098l-4 5c-1.33301 2.66699 -0.666016 5.33398 2.00098 8.00098l129 106c2.66699 2.66699 5.33398 2.66699 8.00098 0l129 -106
c2.66699 -2.66699 3.33398 -5.33398 2.00098 -8.00098l-4 -5c-0.666992 -0.666992 -1.5 -1.33398 -2.5 -2.00098s-2.5 -0.333984 -4.5 0.999023l-124 101z" />
    <glyph glyph-name="tilde" unicode="&#x2dc;" horiz-adv-x="380" 
d="M36 585c-4 0.666992 -5 3.66699 -3 9c1.33301 4.66699 3.83301 11.667 7.5 21s8.83398 18.666 15.501 27.999s15.167 17.5 25.5 24.5s22.833 10.5 37.5 10.5c11.333 0 20.833 -2 28.5 -6s14 -9.16699 19 -15.5s9.16699 -13 12.5 -20l9 -19.5
c4 -9.33301 9.83301 -19.333 17.5 -30s19.5 -16 35.5 -16c11.333 0 21 3 29 9s14.667 13 20 21s9.5 16 12.5 24s5.16699 14 6.5 18c1.33301 4.66699 3.66602 6.33398 6.99902 5.00098l8 -2c4 -1.33301 5 -4.33301 3 -9c-1.33301 -4.66699 -3.83301 -11.667 -7.5 -21
s-8.83398 -18.666 -15.501 -27.999s-15.167 -17.5 -25.5 -24.5s-22.833 -10.5 -37.5 -10.5c-11.333 0 -21 2.16699 -29 6.5s-14.667 9.5 -20 15.5s-9.83301 12.5 -13.5 19.5s-6.5 13.167 -8.5 18.5c-2 4 -4.16699 8.83301 -6.5 14.5s-5.5 11 -9.5 16
s-8.83301 9.16699 -14.5 12.5s-12.5 5 -20.5 5c-11.333 0 -21 -3 -29 -9s-14.667 -13 -20 -21s-9.5 -16.167 -12.5 -24.5s-5.16699 -14.5 -6.5 -18.5c-1.33301 -4.66699 -3.66602 -6.33398 -6.99902 -5.00098z" />
    <glyph glyph-name="mu" unicode="&#x3bc;" horiz-adv-x="504" 
d="M100 -293c0 -4.66699 -2.33008 -7.00098 -6.99707 -7.00098h-4c-4.66699 0 -7 2.33301 -7 7v686c0 4.66699 2.33301 7 7 7h4c4.66699 0 7 -2.33301 7 -7v-219c0 -54.667 12.667 -96 38 -124s62 -42 110 -42c22.667 0 42.667 3.83301 60 11.5s32.166 16.334 44.499 26.001
s22 19 29 28s11.167 14.5 12.5 16.5v303c0 4.66699 2.33301 7 7 7h4c4.66699 0 7 -2.33301 7 -7v-386c0 -4.66699 -2.33301 -7 -7 -7h-4c-4.66699 -0 -7 2.33301 -7 7v53c-6 -7.33301 -13.5 -15 -22.5 -23s-19.5 -15.5 -31.5 -22.5s-25.667 -12.833 -41 -17.5
s-32.333 -7 -51 -7c-36.667 0 -67.834 7.16699 -93.501 21.5s-43.834 36.5 -54.501 66.5v-371z" />
    <glyph glyph-name="endash" unicode="&#x2013;" horiz-adv-x="739" 
d="M170 243c-4.66699 0 -7 2.33301 -7 7v4c0 4.66699 2.33301 7 7 7h399c4.66699 0 7 -2.33301 7 -7v-4c0 -4.66699 -2.33301 -7 -7 -7h-399z" />
    <glyph glyph-name="emdash" unicode="&#x2014;" horiz-adv-x="955" 
d="M170 243c-4.66699 0 -7 2.33301 -7 7v4c0 4.66699 2.33301 7 7 7h615c4.66699 0 7 -2.33301 7 -7v-4c0 -4.66699 -2.33301 -7 -7 -7h-615z" />
    <glyph glyph-name="quoteleft" unicode="&#x2018;" horiz-adv-x="174" 
d="M99 516c-10.667 0 -22 7.00098 -34 21.001s-18 37.667 -18 71c0 17.333 3.16699 32.166 9.5 44.499s13.5 22.5 21.5 30.5c8.66699 9.33301 19 17.333 31 24c4.66699 2 7.66699 1.66699 9 -1l3 -6c2 -4.66699 1 -7.66699 -3 -9c-10 -6 -18.667 -12.667 -26 -20
c-6.66699 -7.33301 -12.667 -16 -18 -26s-8 -22.333 -8 -37c0 -15.333 1.33301 -27.333 4 -36s5.66699 -15.667 9 -21c2.66699 2.66699 5.5 5 8.5 7s6.83301 3 11.5 3c6.66699 0 12.167 -2.33301 16.5 -7s6.5 -10 6.5 -16s-2.16699 -11.167 -6.5 -15.5
s-9.83301 -6.5 -16.5 -6.5z" />
    <glyph glyph-name="quoteright" unicode="&#x2019;" horiz-adv-x="173" 
d="M56 526c-2 4 -1.00098 6.99902 2.99902 8.99902c10 5.33301 18.667 12 26 20c6.66699 6.66699 12.667 15.167 18 25.5s8 22.833 8 37.5c0 15.333 -1.33301 27.333 -4 36s-5.66699 15.667 -9 21c-2.66699 -2.66699 -5.5 -5 -8.5 -7s-6.83301 -3 -11.5 -3
c-6.66699 0 -12.167 2.33301 -16.5 7s-6.5 10 -6.5 16s2.16699 11.167 6.5 15.5s9.83301 6.5 16.5 6.5c10.667 0 22 -7 34 -21s18 -37.667 18 -71c0 -17.333 -3.33301 -32.166 -10 -44.499s-13.667 -22.5 -21 -30.5c-9.33301 -9.33301 -19.666 -17.333 -30.999 -24
c-4.66699 -2 -7.66699 -1.66699 -9 1z" />
    <glyph glyph-name="quotesinglbase" unicode="&#x201a;" horiz-adv-x="262" 
d="M103 13c0 6 2.16602 11.166 6.49902 15.499s9.83301 6.5 16.5 6.5c10.667 0 22 -7 34 -21s18 -37.667 18 -71c0 -17.333 -3.33301 -32.166 -10 -44.499s-13.667 -22.5 -21 -30.5c-9.33301 -9.33301 -19.666 -17.333 -30.999 -24c-4.66699 -2 -7.66699 -1.66699 -9 1l-3 6
c-2 4 -1 7 3 9c10 5.33301 18.667 12 26 20c6.66699 6.66699 12.667 15.167 18 25.5s8 22.833 8 37.5c0 15.333 -1.33301 27.333 -4 36s-5.66699 15.667 -9 21c-2.66699 -2.66699 -5.5 -5 -8.5 -7s-6.83301 -3 -11.5 -3c-6.66699 0 -12.167 2.33301 -16.5 7s-6.5 10 -6.5 16
z" />
    <glyph glyph-name="quotedblleft" unicode="&#x201c;" horiz-adv-x="352" 
d="M277 516c-10.667 0 -22 7.00098 -34 21.001s-18 37.667 -18 71c0 17.333 3.16699 32.166 9.5 44.499s13.5 22.5 21.5 30.5c8.66699 9.33301 19 17.333 31 24c4.66699 2 7.66699 1.66699 9 -1l3 -6c2 -4.66699 1 -7.66699 -3 -9c-10 -6 -18.667 -12.667 -26 -20
c-6.66699 -7.33301 -12.667 -16 -18 -26s-8 -22.333 -8 -37c0 -15.333 1.33301 -27.333 4 -36s5.66699 -15.667 9 -21c2.66699 2.66699 5.5 5 8.5 7s6.83301 3 11.5 3c6.66699 0 12.167 -2.33301 16.5 -7s6.5 -10 6.5 -16s-2.16699 -11.167 -6.5 -15.5
s-9.83301 -6.5 -16.5 -6.5zM99 516.001c-10.667 0 -22 7.00098 -34 21.001s-18 37.667 -18 71c0 17.333 3.16699 32.166 9.5 44.499s13.5 22.5 21.5 30.5c8.66699 9.33301 19 17.333 31 24c4.66699 2 7.66699 1.66699 9 -1l3 -6c2 -4.66699 1 -7.66699 -3 -9
c-10 -6 -18.667 -12.667 -26 -20c-6.66699 -7.33301 -12.667 -16 -18 -26s-8 -22.333 -8 -37c0 -15.333 1.33301 -27.333 4 -36s5.66699 -15.667 9 -21c2.66699 2.66699 5.5 5 8.5 7s6.83301 3 11.5 3c6.66699 0 12.167 -2.33301 16.5 -7s6.5 -10 6.5 -16
s-2.16699 -11.167 -6.5 -15.5s-9.83301 -6.5 -16.5 -6.5z" />
    <glyph glyph-name="quotedblright" unicode="&#x201d;" horiz-adv-x="351" 
d="M234 526c-2 4 -1.00098 6.99902 2.99902 8.99902c10 5.33301 18.667 12 26 20c6.66699 6.66699 12.667 15.167 18 25.5s8 22.833 8 37.5c0 15.333 -1.33301 27.333 -4 36s-5.66699 15.667 -9 21c-2.66699 -2.66699 -5.5 -5 -8.5 -7s-6.83301 -3 -11.5 -3
c-6.66699 0 -12.167 2.33301 -16.5 7s-6.5 10 -6.5 16s2.16699 11.167 6.5 15.5s9.83301 6.5 16.5 6.5c10.667 0 22 -7 34 -21s18 -37.667 18 -71c0 -17.333 -3.33301 -32.166 -10 -44.499s-13.667 -22.5 -21 -30.5c-9.33301 -9.33301 -19.666 -17.333 -30.999 -24
c-4.66699 -2 -7.66699 -1.66699 -9 1zM55.999 525.999c-2 4 -1.00098 6.99902 2.99902 8.99902c10 5.33301 18.667 12 26 20c6.66699 6.66699 12.667 15.167 18 25.5s8 22.833 8 37.5c0 15.333 -1.33301 27.333 -4 36s-5.66699 15.667 -9 21
c-2.66699 -2.66699 -5.5 -5 -8.5 -7s-6.83301 -3 -11.5 -3c-6.66699 0 -12.167 2.33301 -16.5 7s-6.5 10 -6.5 16s2.16699 11.167 6.5 15.5s9.83301 6.5 16.5 6.5c10.667 0 22 -7 34 -21s18 -37.667 18 -71c0 -17.333 -3.33301 -32.166 -10 -44.499s-13.667 -22.5 -21 -30.5
c-9.33301 -9.33301 -19.666 -17.333 -30.999 -24c-4.66699 -2 -7.66699 -1.66699 -9 1z" />
    <glyph glyph-name="quotedblbase" unicode="&#x201e;" horiz-adv-x="440" 
d="M281 13c0 6 2.16602 11.166 6.49902 15.499s9.83301 6.5 16.5 6.5c10.667 0 22 -7 34 -21s18 -37.667 18 -71c0 -17.333 -3.33301 -32.166 -10 -44.499s-13.667 -22.5 -21 -30.5c-9.33301 -9.33301 -19.666 -17.333 -30.999 -24c-4.66699 -2 -7.66699 -1.66699 -9 1l-3 6
c-2 4 -1 7 3 9c10 5.33301 18.667 12 26 20c6.66699 6.66699 12.667 15.167 18 25.5s8 22.833 8 37.5c0 15.333 -1.33301 27.333 -4 36s-5.66699 15.667 -9 21c-2.66699 -2.66699 -5.5 -5 -8.5 -7s-6.83301 -3 -11.5 -3c-6.66699 0 -12.167 2.33301 -16.5 7s-6.5 10 -6.5 16
zM102.999 12.999c0 6 2.16602 11.166 6.49902 15.499s9.83301 6.5 16.5 6.5c10.667 0 22 -7 34 -21s18 -37.667 18 -71c0 -17.333 -3.33301 -32.166 -10 -44.499s-13.667 -22.5 -21 -30.5c-9.33301 -9.33301 -19.666 -17.333 -30.999 -24
c-4.66699 -2 -7.66699 -1.66699 -9 1l-3 6c-2 4 -1 7 3 9c10 5.33301 18.667 12 26 20c6.66699 6.66699 12.667 15.167 18 25.5s8 22.833 8 37.5c0 15.333 -1.33301 27.333 -4 36s-5.66699 15.667 -9 21c-2.66699 -2.66699 -5.5 -5 -8.5 -7s-6.83301 -3 -11.5 -3
c-6.66699 0 -12.167 2.33301 -16.5 7s-6.5 10 -6.5 16z" />
    <glyph glyph-name="dagger" unicode="&#x2020;" horiz-adv-x="523" 
d="M37 382c-4.66699 0 -7 2.33301 -7 7v4c0 4.66699 2.33301 7 7 7h215v293c0 4.66699 2.33301 7 7 7h4c4.66699 0 7 -2.33301 7 -7v-293h216c4.66699 0 7 -2.33301 7 -7v-4c0 -4.66699 -2.33301 -7 -7 -7h-216v-675c0 -4.66699 -2.33301 -7 -7 -7h-4
c-4.66699 0 -7 2.33301 -7 7v675h-215z" />
    <glyph glyph-name="daggerdbl" unicode="&#x2021;" horiz-adv-x="523" 
d="M60 11c0 4.66699 2.33301 7 7 7h185v382h-215c-4.66699 0 -7 2.33301 -7 7v4c0 4.66699 2.33301 7 7 7h215v275c0 4.66699 2.33301 7 7 7h4c4.66699 0 7 -2.33301 7 -7v-275h216c4.66699 0 7 -2.33301 7 -7v-4c0 -4.66699 -2.33301 -7 -7 -7h-216v-382h186
c4.66699 0 7 -2.33301 7 -7v-4c0 -4.66699 -2.33301 -7 -7 -7h-186v-293c0 -4.66699 -2.33301 -7 -7 -7h-4c-4.66699 0 -7 2.33301 -7 7v293h-185c-4.66699 -0 -7 2.33301 -7 7v4z" />
    <glyph glyph-name="bullet" unicode="&#x2022;" horiz-adv-x="354" 
d="M176 189c-10.667 0 -19.5 3.66699 -26.5 11s-10.5 16 -10.5 26c0 11.333 3.5 20.666 10.5 27.999s15.833 11 26.5 11c11.333 0 20.666 -3.66699 27.999 -11s11 -16.666 11 -27.999c0 -10 -3.66699 -18.667 -11 -26s-16.666 -11 -27.999 -11z" />
    <glyph glyph-name="ellipsis" unicode="&#x2026;" horiz-adv-x="624" 
d="M480 21c0 6.66699 2.16699 12.167 6.5 16.5s9.83301 6.5 16.5 6.5c7.33301 0 13.166 -2.16699 17.499 -6.5s6.5 -9.83301 6.5 -16.5s-2.16699 -12.334 -6.5 -17.001s-10.166 -7 -17.499 -7c-6.66699 0 -12.167 2.33301 -16.5 7s-6.5 10.334 -6.5 17.001zM287 21
c0 6.66699 2.16699 12.167 6.5 16.5s9.83301 6.5 16.5 6.5c7.33301 0 13.166 -2.16699 17.499 -6.5s6.5 -9.83301 6.5 -16.5s-2.16699 -12.334 -6.5 -17.001s-10.166 -7 -17.499 -7c-6.66699 0 -12.167 2.33301 -16.5 7s-6.5 10.334 -6.5 17.001zM97 21
c0 6.66699 2.33301 12.167 7 16.5s10.334 6.5 17.001 6.5c7.33301 0 13 -2.16699 17 -6.5s6 -9.83301 6 -16.5s-2 -12.334 -6 -17.001s-9.66699 -7 -17 -7c-6.66699 0 -12.334 2.33301 -17.001 7s-7 10.334 -7 17.001z" />
    <glyph glyph-name="perthousand" unicode="&#x2030;" horiz-adv-x="1018" 
d="M191 427c-19.333 0 -37.666 3.66699 -54.999 11s-32.333 17.5 -45 30.5s-22.667 28 -30 45s-11 35.5 -11 55.5c0 19.333 3.66699 37.666 11 54.999s17.333 32.333 30 45s27.667 22.667 45 30s35.666 11 54.999 11s37.666 -3.66699 54.999 -11s32.5 -17.333 45.5 -30
s23.167 -27.667 30.5 -45s11 -35.666 11 -54.999c0 -20 -3.66699 -38.5 -11 -55.5s-17.5 -32 -30.5 -45s-28.167 -23.167 -45.5 -30.5s-35.666 -11 -54.999 -11zM191 445c16.667 0 32.667 3.16699 48 9.5s28.5 15.166 39.5 26.499s19.833 24.5 26.5 39.5s10 31.167 10 48.5
c0 16.667 -3.33301 32.5 -10 47.5s-15.5 28.167 -26.5 39.5s-24.167 20.166 -39.5 26.499s-31.333 9.5 -48 9.5c-17.333 0 -33.333 -3.16699 -48 -9.5s-27.667 -15.166 -39 -26.499s-20.166 -24.5 -26.499 -39.5s-9.5 -30.833 -9.5 -47.5c0 -17.333 3.16699 -33.5 9.5 -48.5
s15.166 -28.167 26.499 -39.5s24.333 -20.166 39 -26.499s30.667 -9.5 48 -9.5zM683 131c0 20 3.66699 38.5 11 55.5s17.5 32 30.5 45s28 23.167 45 30.5s35.5 11 55.5 11c19.333 0 37.5 -3.66699 54.5 -11s32 -17.5 45 -30.5s23.167 -28 30.5 -45s11 -35.5 11 -55.5
c0 -19.333 -3.66699 -37.666 -11 -54.999s-17.5 -32.333 -30.5 -45s-28 -22.667 -45 -30s-35.167 -11 -54.5 -11c-20 0 -38.5 3.66699 -55.5 11s-32 17.333 -45 30s-23.167 27.667 -30.5 45s-11 35.666 -11 54.999zM360 131c0 20 3.66699 38.5 11 55.5s17.333 32 30 45
s27.667 23.167 45 30.5s35.666 11 54.999 11s37.666 -3.66699 54.999 -11s32.333 -17.5 45 -30.5s22.667 -28 30 -45s11 -35.5 11 -55.5c0 -19.333 -3.66699 -37.666 -11 -54.999s-17.333 -32.333 -30 -45s-27.667 -22.667 -45 -30s-35.666 -11 -54.999 -11
s-37.666 3.66699 -54.999 11s-32.333 17.333 -45 30s-22.667 27.667 -30 45s-11 35.666 -11 54.999zM701 131c0 -17.333 3.16699 -33.333 9.5 -48s15.166 -27.667 26.499 -39s24.5 -20.166 39.5 -26.499s31.167 -9.5 48.5 -9.5c16.667 0 32.5 3.16699 47.5 9.5
s28 15.166 39 26.499s19.833 24.333 26.5 39s10 30.667 10 48s-3.33301 33.5 -10 48.5s-15.5 28.167 -26.5 39.5s-24 20.166 -39 26.499s-30.833 9.5 -47.5 9.5c-17.333 0 -33.5 -3.16699 -48.5 -9.5s-28.167 -15.166 -39.5 -26.499s-20.166 -24.5 -26.499 -39.5
s-9.5 -31.167 -9.5 -48.5zM378 131c0 -17.333 3.16699 -33.333 9.5 -48s15.166 -27.667 26.499 -39s24.333 -20.166 39 -26.499s30.667 -9.5 48 -9.5c16.667 0 32.667 3.16699 48 9.5s28.5 15.166 39.5 26.499s19.833 24.333 26.5 39s10 30.667 10 48
s-3.33301 33.5 -10 48.5s-15.5 28.167 -26.5 39.5s-24.167 20.166 -39.5 26.499s-31.333 9.5 -48 9.5c-17.333 0 -33.333 -3.16699 -48 -9.5s-27.667 -15.166 -39 -26.499s-20.166 -24.5 -26.499 -39.5s-9.5 -31.167 -9.5 -48.5zM537 698c2 2.66699 4.66602 3 7.99902 1
l6 -3c1.33301 -0.666992 2.33301 -1.5 3 -2.5s0.333984 -2.83301 -0.999023 -5.5l-417 -686c-2.66699 -3.33301 -5 -4.33301 -7 -3l-8 5c-2.66699 2 -3 4.66699 -1 8z" />
    <glyph glyph-name="guilsinglleft" unicode="&#x2039;" horiz-adv-x="230" 
d="M36 204c-2 2.66699 -2 5.33301 0 8l122 170c2 3.33301 5 4 9 2l5 -3c3.33301 -2 4 -4.66699 2 -8l-117 -165l117 -167c2 -3.33301 1.33301 -6 -2 -8l-5 -3c-4 -2 -7 -1.33301 -9 2z" />
    <glyph glyph-name="guilsinglright" unicode="&#x203a;" horiz-adv-x="230" 
d="M58 33c-4 2 -4.66699 4.66797 -2 8.00098l117 167l-117 165c-2.66699 3.33301 -2 6 2 8l5 3c4 2 7 1.33301 9 -2l122 -170c2 -2.66699 2 -5.33398 0 -8.00098l-122 -172c-2 -3.33301 -5 -4 -9 -2z" />
    <glyph glyph-name="Euro" unicode="&#x20ac;" horiz-adv-x="743" 
d="M26 265c-4 0 -5.99414 2.00293 -5.99414 6.00293v4c0 2 0.666992 3.83301 2 5.5s2.66602 2.16699 3.99902 1.5h54c-4 20.667 -6 43 -6 67v16.5c0 5.66699 0.333008 11.167 1 16.5h-49c-4 0 -6 2.33301 -6 7v4c0 4.66699 2 7 6 7h51c6 44 19.5 84.833 40.5 122.5
s47.5 70.5 79.5 98.5s68.5 49.833 109.5 65.5s84.5 23.5 130.5 23.5c51.333 0 96.166 -8.33301 134.499 -25s74.5 -39.334 108.5 -68.001c2.66699 -2.66699 3 -5.33398 1 -8.00098l-5 -6c-2.66699 -2.66699 -5.33398 -2.66699 -8.00098 0
c-32.667 28 -67.334 49.833 -104.001 65.5s-79 23.5 -127 23.5c-43.333 0 -84.333 -7.5 -123 -22.5s-73.167 -35.5 -103.5 -61.5s-55.5 -56.833 -75.5 -92.5s-33 -74.167 -39 -115.5h366c4.66699 0 7 -2.33301 7 -7v-4c0 -4.66699 -2.33301 -7 -7 -7h-369
c-0.666992 -5.33301 -1 -10.833 -1 -16.5v-16.5c0 -24 2 -46.333 6 -67h325c4 0 6 -2.33301 6 -7v-4c0 -4 -2 -6 -6 -6h-321c9.33301 -37.333 24.5 -71.833 45.5 -103.5s46.167 -58.834 75.5 -81.501s62.166 -40.334 98.499 -53.001s74.833 -19 115.5 -19
c86 0 163 31 231 93c3.33301 3.33301 6 3.33301 8 0l5 -6c2 -2.66699 2 -5 0 -7c-34.667 -33.333 -72.834 -58 -114.501 -74s-84.834 -24 -129.501 -24c-43.333 0 -84.166 6.83301 -122.499 20.5s-73 32.834 -104 57.501s-57.5 53.667 -79.5 87s-37.667 70 -47 110h-58z" />
    <glyph glyph-name="trademark" unicode="&#x2122;" horiz-adv-x="721" 
d="M289 389c-3.33301 1.33301 -4.66602 4.00195 -3.99902 8.00195l83 309c1.33301 3.33301 3.66602 5 6.99902 5s5.33301 -1.66699 6 -5l92 -281l91 281c1.33301 3.33301 3.66602 5 6.99902 5s5.66602 -1.66699 6.99902 -5l82 -309
c0.666992 -4.66699 -0.666016 -7.33398 -3.99902 -8.00098l-8 -2c-2.66699 -0.666992 -4.66699 0.666016 -6 3.99902l-72 270l-90 -278c-1.33301 -3.33301 -3.66602 -5 -6.99902 -5s-5.66602 1.66699 -6.99902 5l-90 278l-73 -270
c-0.666992 -4 -3.33398 -5.33301 -8.00098 -4zM117 389.002c-4.66699 0 -7 2.33301 -7 7v286h-104c-4.66699 0 -7 2.33301 -7 7v4c0 4.66699 2.33301 7 7 7h224c4.66699 0 7 -2.33301 7 -7v-4c0 -4.66699 -2.33301 -7 -7 -7h-102v-286c0 -4.66699 -2.33301 -7 -7 -7h-4z" />
    <glyph glyph-name=".null" horiz-adv-x="0" 
 />
    <glyph glyph-name="glyph223" horiz-adv-x="0" 
 />
    <glyph glyph-name="glyph224" horiz-adv-x="0" 
 />
  </font>
</defs>
</svg>
